{
.appVersion = "3408";
copyright = "Ariel Martín Pérez";
customParameters = (
{
name = trademark;
value = "Ariel Martín Pérez - www.arielgraphisme.com";
},
{
name = license;

glyphs = (
{
glyphname = A;
lastChange = "2020-07-21 09:24:30 +0000";
layers = (
{
anchors = (
{
name = bottom;
position = "{249, 0}";
},
{
name = ogonek;
position = "{455, 10}";
},
{
name = top;
position = "{251, 710}";
}
);
guideLines = (
{
position = "{253, 552}";
}
);
layerId = "6C5F8957-356A-4AA4-B78F-9BBB75A580E3";
paths = (
{
closed = 1;
nodes = (
"434 -7 OFFCURVE",
"481 6 OFFCURVE",
"481 45 CURVE SMOOTH",
"481 211 OFFCURVE",
"429 535 OFFCURVE",
"419 577 CURVE SMOOTH",
"407 628 OFFCURVE",
"394 670 OFFCURVE",
"379 679 CURVE SMOOTH",
"357 692 OFFCURVE",
"280 679 OFFCURVE",
"270 664 CURVE",
"284 375 OFFCURVE",
"283 145 OFFCURVE",
"300 47 CURVE SMOOTH",
"307 6 OFFCURVE",
"361 -7 OFFCURVE",
"402 -10 CURVE SMOOTH"
);
},
{
closed = 1;
nodes = (
"142 -13 OFFCURVE",
"186 6 OFFCURVE",
"193 47 CURVE SMOOTH",
"210 145 OFFCURVE",
"212 375 OFFCURVE",
"226 664 CURVE",
"216 679 OFFCURVE",
"141 692 OFFCURVE",
"119 679 CURVE SMOOTH",
"104 670 OFFCURVE",
"91 628 OFFCURVE",
"79 577 CURVE SMOOTH",
"69 535 OFFCURVE",
"20 211 OFFCURVE",
"20 45 CURVE SMOOTH",
"20 6 OFFCURVE",
"69 -13 OFFCURVE",
"101 -10 CURVE SMOOTH"
);
},
{
closed = 1;
nodes = (
"271 169 OFFCURVE",
"297 171 OFFCURVE",
"318 174 CURVE",
"332 310 LINE",
"312 312 OFFCURVE",
"280 314 OFFCURVE",
"253 314 CURVE SMOOTH",
"231 314 OFFCURVE",
"193 309 OFFCURVE",
"159 302 CURVE",
"166 174 LINE",
"180 171 OFFCURVE",
"202 169 OFFCURVE",
"253 169 CURVE SMOOTH"
);
},
{
closed = 1;
nodes = (
"151 548 OFFCURVE",
"206 563 OFFCURVE",
"251 563 CURVE SMOOTH",
"308 563 OFFCURVE",
"360 548 OFFCURVE",
"380 541 CURVE",
"379 679 LINE",
"347 698 OFFCURVE",
"296 710 OFFCURVE",
"251 710 CURVE SMOOTH",
"203 710 OFFCURVE",
"150 698 OFFCURVE",
"119 679 CURVE",
"110 525 LINE"
);
}
);
width = 501;
},
{
anchors = (
{
name = bottom;
position = "{272, 0}";
},
{
name = ogonek;
position = "{489, 10}";
},
{
name = top;
position = "{272, 700}";
}
);
associatedMasterId = "6C5F8957-356A-4AA4-B78F-9BBB75A580E3";
backgroundImage = {
crop = "{{0, 0}, {106.8, 129.12}}";
imagePath = "../../Desktop/PERSONAL TYPEFACES/MANOSQUE/letterscans/ACAP.jpg";
locked = "1";
transform = "{6.1134, 0, 0, 6.1134, 2, -54}";
};
layerId = "ED6D6530-DCA0-41E5-9D5D-C657133011AF";
name = "Oct 21 19, 19:55";
paths = (
{
closed = 1;
nodes = (
"244 710 OFFCURVE",
"171 687 OFFCURVE",
"149 674 CURVE",
"140 504 LINE",
"198 530 OFFCURVE",
"238 542 OFFCURVE",
"287 542 CURVE SMOOTH",
"330 542 OFFCURVE",
"391 537 OFFCURVE",
"410 530 CURVE",
"420 647 LINE",
"413 672 OFFCURVE",
"372 710 OFFCURVE",
"287 710 CURVE SMOOTH"
);
},
{
closed = 1;
nodes = (
"249 674 OFFCURVE",
"171 687 OFFCURVE",
"149 674 CURVE SMOOTH",
"134 665 OFFCURVE",
"121 628 OFFCURVE",
"109 577 CURVE SMOOTH",
"99 535 OFFCURVE",
"25 211 OFFCURVE",
"25 45 CURVE SMOOTH",
"25 4 OFFCURVE",
"77 -14 OFFCURVE",
"109 -14 CURVE SMOOTH",
"150 -14 OFFCURVE",
"198 30 OFFCURVE",
"201 47 CURVE SMOOTH",
"216 145 OFFCURVE",
"245 370 OFFCURVE",
"259 659 CURVE"
);
},
{
closed = 1;
nodes = (
"305 394 OFFCURVE",
"340 71 OFFCURVE",
"343 44 CURVE SMOOTH",
"346 19 OFFCURVE",
"372 -13 OFFCURVE",
"428 -13 CURVE SMOOTH",
"448 -13 OFFCURVE",
"470 0 OFFCURVE",
"490 18 CURVE SMOOTH",
"503 30 OFFCURVE",
"518 61 OFFCURVE",
"518 94 CURVE SMOOTH",
"518 118 OFFCURVE",
"427 622 OFFCURVE",
"420 647 CURVE SMOOTH",
"413 672 OFFCURVE",
"310 672 OFFCURVE",
"290 659 CURVE",
"290 605 LINE"
);
},
{
closed = 1;
nodes = (
"209 189 OFFCURVE",
"308 204 OFFCURVE",
"358 198 CURVE",
"372 349 LINE",
"285 357 OFFCURVE",
"220 344 OFFCURVE",
"179 331 CURVE",
"186 179 LINE"
);
}
);
width = 543;
},
{
anchors = (
{
name = bottom;
position = "{272, 0}";
},
{
name = ogonek;
position = "{489, 10}";
},
{
name = top;
position = "{272, 700}";
}
);
associatedMasterId = "6C5F8957-356A-4AA4-B78F-9BBB75A580E3";
backgroundImage = {
crop = "{{0, 0}, {106.8, 129.12}}";
imagePath = "../../Desktop/PERSONAL TYPEFACES/MANOSQUE/letterscans/ACAP.jpg";
locked = "1";
transform = "{6.1134, 0, 0, 6.1134, 2, -54}";
};
layerId = "048838BB-91FF-4589-B84E-E27EE5492139";
name = "Nov 30 19, 14:18";
paths = (
{
closed = 1;
nodes = (
"244 710 OFFCURVE",
"171 687 OFFCURVE",
"149 674 CURVE",
"140 504 LINE",
"198 530 OFFCURVE",
"238 542 OFFCURVE",
"287 542 CURVE SMOOTH",
"330 542 OFFCURVE",
"391 537 OFFCURVE",
"410 530 CURVE",
"420 647 LINE",
"413 672 OFFCURVE",
"372 710 OFFCURVE",
"287 710 CURVE SMOOTH"
);
},
{
closed = 1;
nodes = (
"249 674 OFFCURVE",
"171 687 OFFCURVE",
"149 674 CURVE SMOOTH",
"134 665 OFFCURVE",
"121 628 OFFCURVE",
"109 577 CURVE SMOOTH",
"99 535 OFFCURVE",
"25 211 OFFCURVE",
"25 45 CURVE SMOOTH",
"25 4 OFFCURVE",
"77 -14 OFFCURVE",
"109 -14 CURVE SMOOTH",
"150 -14 OFFCURVE",
"198 30 OFFCURVE",
"201 47 CURVE SMOOTH",
"216 145 OFFCURVE",
"245 370 OFFCURVE",
"259 659 CURVE"
);
},
{
closed = 1;
nodes = (
"305 394 OFFCURVE",
"340 71 OFFCURVE",
"343 44 CURVE SMOOTH",
"346 19 OFFCURVE",
"372 -13 OFFCURVE",
"428 -13 CURVE SMOOTH",
"474 -13 OFFCURVE",
"518 37 OFFCURVE",
"518 94 CURVE SMOOTH",
"518 118 OFFCURVE",
"427 622 OFFCURVE",
"420 647 CURVE SMOOTH",
"413 672 OFFCURVE",
"310 672 OFFCURVE",
"290 659 CURVE",
"290 605 LINE"
);
},
{
closed = 1;
nodes = (
"202 186 OFFCURVE",
"241 191 OFFCURVE",
"289 191 CURVE SMOOTH",
"311 191 OFFCURVE",
"343 190 OFFCURVE",
"358 188 CURVE",
"372 339 LINE",
"347 342 OFFCURVE",
"311 343 OFFCURVE",
"289 343 CURVE SMOOTH",
"247 343 OFFCURVE",
"217 339 OFFCURVE",
"179 331 CURVE",
"186 179 LINE"
);
}
);
width = 543;
},
{
anchors = (
{
name = bottom;
position = "{261, 0}";
},
{
name = ogonek;
position = "{419, 10}";
},
{
name = top;
position = "{261, 700}";
}
);
associatedMasterId = "6C5F8957-356A-4AA4-B78F-9BBB75A580E3";
layerId = "D735B203-CAAF-44B9-9622-852147946AC2";
name = "Apr 3 20, 15:17";
paths = (
{
closed = 1;
nodes = (
"140 -14 OFFCURVE",
"188 6 OFFCURVE",
"191 47 CURVE SMOOTH",
"198 145 OFFCURVE",
"223 370 OFFCURVE",
"237 659 CURVE",
"227 674 OFFCURVE",
"149 687 OFFCURVE",
"127 674 CURVE SMOOTH",
"112 665 OFFCURVE",
"99 628 OFFCURVE",
"87 577 CURVE SMOOTH",
"77 535 OFFCURVE",
"15 211 OFFCURVE",
"15 45 CURVE SMOOTH",
"15 6 OFFCURVE",
"67 -14 OFFCURVE",
"99 -14 CURVE SMOOTH"
);
},
{
closed = 1;
nodes = (
"188 161 OFFCURVE",
"210 159 OFFCURVE",
"261 159 CURVE SMOOTH",
"279 159 OFFCURVE",
"305 161 OFFCURVE",
"326 164 CURVE",
"340 309 LINE",
"315 312 OFFCURVE",
"290 313 OFFCURVE",
"261 313 CURVE SMOOTH",
"226 313 OFFCURVE",
"205 309 OFFCURVE",
"167 301 CURVE",
"174 164 LINE"
);
},
{
closed = 1;
nodes = (
"176 540 OFFCURVE",
"214 552 OFFCURVE",
"261 552 CURVE SMOOTH",
"306 552 OFFCURVE",
"369 547 OFFCURVE",
"388 540 CURVE",
"387 674 LINE",
"351 695 OFFCURVE",
"308 708 OFFCURVE",
"261 708 CURVE",
"210 708 OFFCURVE",
"162 695 OFFCURVE",
"127 674 CURVE",
"118 514 LINE"
);
},
{
closed = 1;
nodes = (
"442 -14 OFFCURVE",
"499 6 OFFCURVE",
"499 45 CURVE SMOOTH",
"499 211 OFFCURVE",
"437 535 OFFCURVE",
"427 577 CURVE SMOOTH",
"415 628 OFFCURVE",
"402 665 OFFCURVE",
"387 674 CURVE SMOOTH",
"365 687 OFFCURVE",
"282 674 OFFCURVE",
"272 659 CURVE",
"286 370 OFFCURVE",
"311 145 OFFCURVE",
"318 47 CURVE SMOOTH",
"321 6 OFFCURVE",
"369 -14 OFFCURVE",
"410 -14 CURVE SMOOTH"
);
}
);
width = 514;
}
);
leftKerningGroup = A;
rightKerningGroup = A;
unicode = 0041;
},
{
glyphname = AE;
lastChange = "2020-07-21 09:24:30 +0000";
layers = (
{
anchors = (
{
name = bottom;
position = "{320, 0}";
},
{
name = top;
position = "{320, 700}";
}
);
layerId = "6C5F8957-356A-4AA4-B78F-9BBB75A580E3";
paths = (
{
closed = 1;
nodes = (
"142 -20 OFFCURVE",
"186 6 OFFCURVE",
"193 47 CURVE SMOOTH",
"210 145 OFFCURVE",
"242 375 OFFCURVE",
"256 664 CURVE",
"246 679 OFFCURVE",
"171 692 OFFCURVE",
"149 679 CURVE SMOOTH",
"134 670 OFFCURVE",
"121 628 OFFCURVE",
"109 577 CURVE SMOOTH",
"99 535 OFFCURVE",
"20 211 OFFCURVE",
"20 45 CURVE SMOOTH",
"20 6 OFFCURVE",
"69 -20 OFFCURVE",
"101 -20 CURVE SMOOTH"
);
},
{
closed = 1;
nodes = (
"271 169 OFFCURVE",
"297 171 OFFCURVE",
"318 174 CURVE",
"332 310 LINE",
"312 312 OFFCURVE",
"280 314 OFFCURVE",
"253 314 CURVE SMOOTH",
"231 314 OFFCURVE",
"193 309 OFFCURVE",
"159 302 CURVE",
"166 174 LINE",
"180 171 OFFCURVE",
"202 169 OFFCURVE",
"253 169 CURVE SMOOTH"
);
},
{
closed = 1;
nodes = (
"560 -10 OFFCURVE",
"587 -6 OFFCURVE",
"599 0 CURVE SMOOTH",
"618 10 OFFCURVE",
"641 81 OFFCURVE",
"641 103 CURVE SMOOTH",
"641 113 OFFCURVE",
"631 127 OFFCURVE",
"617 137 CURVE SMOOTH",
"605 146 OFFCURVE",
"589 152 OFFCURVE",
"578 152 CURVE SMOOTH",
"517 152 OFFCURVE",
"456 135 OFFCURVE",
"426 124 CURVE SMOOTH",
"386 110 OFFCURVE",
"336 15 OFFCURVE",
"353 10 CURVE SMOOTH",
"382 1 OFFCURVE",
"428 -10 OFFCURVE",
"507 -10 CURVE SMOOTH"
);
},
{
closed = 1;
nodes = (
"420 4 OFFCURVE",
"449 15 OFFCURVE",
"457 47 CURVE SMOOTH",
"464 75 OFFCURVE",
"469 295 OFFCURVE",
"469 474 CURVE SMOOTH",
"469 526 OFFCURVE",
"462 674 OFFCURVE",
"456 680 CURVE SMOOTH",
"444 692 OFFCURVE",
"425 696 OFFCURVE",
"398 696 CURVE SMOOTH",
"375 696 OFFCURVE",
"349 689 OFFCURVE",
"330 675 CURVE SMOOTH",
"310 661 OFFCURVE",
"303 514 OFFCURVE",
"303 364 CURVE SMOOTH",
"303 221 OFFCURVE",
"305 76 OFFCURVE",
"314 37 CURVE SMOOTH",
"317 24 OFFCURVE",
"336 15 OFFCURVE",
"353 10 CURVE SMOOTH",
"366 6 OFFCURVE",
"380 4 OFFCURVE",
"393 4 CURVE SMOOTH"
);
},
{
closed = 1;
nodes = (
"541 279 OFFCURVE",
"561 287 OFFCURVE",
"570 292 CURVE SMOOTH",
"579 297 OFFCURVE",
"608 348 OFFCURVE",
"608 375 CURVE SMOOTH",
"608 392 OFFCURVE",
"603 408 OFFCURVE",
"598 414 CURVE SMOOTH",
"590 421 OFFCURVE",
"563 426 OFFCURVE",
"537 426 CURVE SMOOTH",
"511 426 OFFCURVE",
"426 417 OFFCURVE",
"374 407 CURVE",
"374 289 LINE",
"407 284 OFFCURVE",
"451 279 OFFCURVE",
"505 279 CURVE SMOOTH"
);
},
{
closed = 1;
nodes = (
"181 548 OFFCURVE",
"236 563 OFFCURVE",
"281 563 CURVE SMOOTH",
"338 563 OFFCURVE",
"360 548 OFFCURVE",
"380 541 CURVE",
"379 679 LINE",
"149 679 LINE",
"140 525 LINE"
);
},
{
closed = 1;
nodes = (
"567 559 OFFCURVE",
"589 561 OFFCURVE",
"608 564 CURVE SMOOTH",
"634 569 OFFCURVE",
"645 634 OFFCURVE",
"645 650 CURVE",
"645 666 OFFCURVE",
"637 683 OFFCURVE",
"626 700 CURVE SMOOTH",
"615 717 OFFCURVE",
"604 721 OFFCURVE",
"568 721 CURVE SMOOTH",
"428 721 OFFCURVE",
"187 698 OFFCURVE",
"149 679 CURVE SMOOTH",
"139 674 OFFCURVE",
"139 650 OFFCURVE",
"139 604 CURVE SMOOTH",
"139 593 OFFCURVE",
"159 585 OFFCURVE",
"172 582 CURVE SMOOTH",
"232 568 OFFCURVE",
"459 559 OFFCURVE",
"544 559 CURVE SMOOTH"
);
}
);
width = 650;
},
{
associatedMasterId = "6C5F8957-356A-4AA4-B78F-9BBB75A580E3";
layerId = "1052DE89-1470-4C7B-AC94-19A56B88790E";
name = "Mar 29 20, 14:05";
paths = (
{
closed = 1;
nodes = (
"445 4 OFFCURVE",
"480 15 OFFCURVE",
"488 47 CURVE SMOOTH",
"495 75 OFFCURVE",
"510 295 OFFCURVE",
"510 474 CURVE SMOOTH",
"510 526 OFFCURVE",
"507 674 OFFCURVE",
"501 680 CURVE SMOOTH",
"489 692 OFFCURVE",
"470 696 OFFCURVE",
"443 696 CURVE SMOOTH",
"420 696 OFFCURVE",
"394 689 OFFCURVE",
"375 675 CURVE SMOOTH",
"356 661 OFFCURVE",
"336 332 OFFCURVE",
"336 211 CURVE SMOOTH",
"336 136 OFFCURVE",
"337 67 OFFCURVE",
"344 37 CURVE SMOOTH",
"347 24 OFFCURVE",
"361 15 OFFCURVE",
"378 10 CURVE SMOOTH",
"391 6 OFFCURVE",
"405 4 OFFCURVE",
"418 4 CURVE SMOOTH"
);
},
{
closed = 1;
nodes = (
"630 -10 OFFCURVE",
"657 -6 OFFCURVE",
"669 0 CURVE SMOOTH",
"688 10 OFFCURVE",
"721 81 OFFCURVE",
"721 103 CURVE SMOOTH",
"721 118 OFFCURVE",
"709 132 OFFCURVE",
"698 142 CURVE SMOOTH",
"685 154 OFFCURVE",
"669 162 OFFCURVE",
"648 162 CURVE SMOOTH",
"590 162 OFFCURVE",
"489 137 OFFCURVE",
"461 127 CURVE SMOOTH",
"421 113 OFFCURVE",
"361 15 OFFCURVE",
"378 10 CURVE SMOOTH",
"407 1 OFFCURVE",
"478 -10 OFFCURVE",
"557 -10 CURVE SMOOTH"
);
},
{
closed = 1;
nodes = (
"595 259 OFFCURVE",
"617 267 OFFCURVE",
"627 273 CURVE SMOOTH",
"637 279 OFFCURVE",
"668 332 OFFCURVE",
"668 361 CURVE SMOOTH",
"668 380 OFFCURVE",
"663 398 OFFCURVE",
"657 404 CURVE SMOOTH",
"649 412 OFFCURVE",
"619 418 OFFCURVE",
"570 418 CURVE SMOOTH",
"541 418 OFFCURVE",
"449 408 OFFCURVE",
"380 397 CURVE",
"380 270 LINE",
"417 264 OFFCURVE",
"475 259 OFFCURVE",
"535 259 CURVE SMOOTH"
);
},
{
closed = 1;
nodes = (
"589 549 OFFCURVE",
"638 554 OFFCURVE",
"678 558 CURVE SMOOTH",
"699 560 OFFCURVE",
"755 634 OFFCURVE",
"755 650 CURVE",
"755 666 OFFCURVE",
"747 683 OFFCURVE",
"736 700 CURVE SMOOTH",
"725 717 OFFCURVE",
"718 721 OFFCURVE",
"668 721 CURVE SMOOTH",
"594 721 OFFCURVE",
"208 703 OFFCURVE",
"181 689 CURVE SMOOTH",
"158 677 OFFCURVE",
"145 607 OFFCURVE",
"145 586 CURVE SMOOTH",
"145 578 OFFCURVE",
"157 569 OFFCURVE",
"167 564 CURVE SMOOTH",
"191 552 OFFCURVE",
"452 549 OFFCURVE",
"516 549 CURVE SMOOTH"
);
},
{
closed = 1;
nodes = (
"150 -14 OFFCURVE",
"188 7 OFFCURVE",
"196 47 CURVE SMOOTH",
"216 145 OFFCURVE",
"260 360 OFFCURVE",
"274 649 CURVE",
"264 664 OFFCURVE",
"191 694 OFFCURVE",
"181 689 CURVE SMOOTH",
"129 664 OFFCURVE",
"25 184 OFFCURVE",
"25 45 CURVE SMOOTH",
"25 6 OFFCURVE",
"77 -14 OFFCURVE",
"109 -14 CURVE SMOOTH"
);
},
{
closed = 1;
nodes = (
"210 171 OFFCURVE",
"241 169 OFFCURVE",
"287 169 CURVE SMOOTH",
"310 169 OFFCURVE",
"347 171 OFFCURVE",
"368 174 CURVE",
"382 319 LINE",
"357 322 OFFCURVE",
"321 323 OFFCURVE",
"287 323 CURVE SMOOTH",
"257 323 OFFCURVE",
"227 319 OFFCURVE",
"189 311 CURVE",
"196 174 LINE"
);
}
);
width = 765;
}
);
leftKerningGroup = A;
leftMetricsKey = A;
rightKerningGroup = E;
rightMetricsKey = E;
unicode = 00C6;
},
{
glyphname = B;
lastChange = "2020-07-21 09:24:30 +0000";
layers = (
{
associatedMasterId = "6C5F8957-356A-4AA4-B78F-9BBB75A580E3";
backgroundImage = {
crop = "{{0, 0}, {85.68, 131}}";
imagePath = "../../Desktop/PERSONAL TYPEFACES/MANOSQUE/letterscans/BCAP.jpg";
locked = "1";
transform = "{6.17549, 0, 0, 6.17549, 22, -39}";
};
layerId = "49FF9BE4-FBAF-4CD5-85E7-9FC425BF8B6C";
name = "Jul 27 19, 16:29";
paths = (
{
closed = 1;
nodes = (
"423 365 OFFCURVE",
"478 382 OFFCURVE",
"492 404 CURVE SMOOTH",
"506 426 OFFCURVE",
"518 484 OFFCURVE",
"518 536 CURVE SMOOTH",
"518 588 OFFCURVE",
"508 646 OFFCURVE",
"491 665 CURVE SMOOTH",
"474 684 OFFCURVE",
"335 713 OFFCURVE",
"265 713 CURVE SMOOTH",
"195 713 OFFCURVE",
"70 683 OFFCURVE",
"56 666 CURVE SMOOTH",
"42 649 OFFCURVE",
"42 549 OFFCURVE",
"53 538 CURVE SMOOTH",
"64 527 OFFCURVE",
"80 520 OFFCURVE",
"94 520 CURVE SMOOTH",
"108 520 OFFCURVE",
"177 555 OFFCURVE",
"261 555 CURVE SMOOTH",
"332 555 OFFCURVE",
"343 552 OFFCURVE",
"355 548 CURVE",
"357 534 OFFCURVE",
"359 517 OFFCURVE",
"359 500 CURVE SMOOTH",
"359 475 OFFCURVE",
"355 429 OFFCURVE",
"346 392 CURVE SMOOTH",
"338 359 OFFCURVE",
"375 365 OFFCURVE",
"393 365 CURVE"
);
},
{
closed = 1;
nodes = (
"377 352 OFFCURVE",
"362 349 OFFCURVE",
"345 348 CURVE",
"350 272 LINE SMOOTH",
"351 251 OFFCURVE",
"356 219 OFFCURVE",
"353 152 CURVE",
"335 139 OFFCURVE",
"311 134 OFFCURVE",
"287 134 CURVE SMOOTH",
"269 134 OFFCURVE",
"251 137 OFFCURVE",
"236 141 CURVE",
"120 161 LINE",
"70 161 OFFCURVE",
"73 108 OFFCURVE",
"73 70 CURVE SMOOTH",
"73 32 OFFCURVE",
"229 -20 OFFCURVE",
"294 -20 CURVE SMOOTH",
"359 -20 OFFCURVE",
"469 62 OFFCURVE",
"496 100 CURVE SMOOTH",
"503 110 OFFCURVE",
"525 138 OFFCURVE",
"525 161 CURVE SMOOTH",
"525 227 OFFCURVE",
"482 333 OFFCURVE",
"470 343 CURVE SMOOTH",
"454 357 OFFCURVE",
"420 352 OFFCURVE",
"397 352 CURVE"
);
},
{
closed = 1;
nodes = (
"229 102 OFFCURVE",
"240 225 OFFCURVE",
"240 364 CURVE SMOOTH",
"240 456 OFFCURVE",
"237 560 OFFCURVE",
"232 568 CURVE SMOOTH",
"227 576 OFFCURVE",
"210 590 OFFCURVE",
"170 584 CURVE SMOOTH",
"137 579 OFFCURVE",
"98 552 OFFCURVE",
"94 520 CURVE SMOOTH",
"71 348 OFFCURVE",
"73 92 OFFCURVE",
"73 70 CURVE SMOOTH",
"73 48 OFFCURVE",
"214 50 OFFCURVE",
"220 71 CURVE SMOOTH"
);
},
{
closed = 1;
nodes = (
"246 277 OFFCURVE",
"303 280 OFFCURVE",
"400 270 CURVE",
"400 435 LINE",
"318 420 OFFCURVE",
"220 420 OFFCURVE",
"188 423 CURVE",
"188 264 LINE"
);
}
);
width = 570;
},
{
associatedMasterId = "6C5F8957-356A-4AA4-B78F-9BBB75A580E3";
backgroundImage = {
crop = "{{0, 0}, {85.68, 131}}";
imagePath = "../../Desktop/PERSONAL TYPEFACES/MANOSQUE/letterscans/BCAP.jpg";
locked = "1";
transform = "{6.17549, 0, 0, 6.17549, 22, -39}";
};
layerId = "3BD4A29A-A5B2-4066-8F69-A989E66DB699";
name = "Jul 27 19, 18:30";
paths = (
{
closed = 1;
nodes = (
"423 365 OFFCURVE",
"478 382 OFFCURVE",
"492 404 CURVE SMOOTH",
"506 426 OFFCURVE",
"518 484 OFFCURVE",
"518 536 CURVE SMOOTH",
"518 588 OFFCURVE",
"508 646 OFFCURVE",
"491 665 CURVE SMOOTH",
"474 684 OFFCURVE",
"393 713 OFFCURVE",
"265 713 CURVE SMOOTH",
"161 713 OFFCURVE",
"70 683 OFFCURVE",
"56 666 CURVE SMOOTH",
"42 649 OFFCURVE",
"42 549 OFFCURVE",
"53 538 CURVE SMOOTH",
"64 527 OFFCURVE",
"80 524 OFFCURVE",
"94 524 CURVE SMOOTH",
"108 524 OFFCURVE",
"177 555 OFFCURVE",
"261 555 CURVE SMOOTH",
"332 555 OFFCURVE",
"343 552 OFFCURVE",
"355 548 CURVE",
"357 534 OFFCURVE",
"359 517 OFFCURVE",
"359 500 CURVE SMOOTH",
"359 475 OFFCURVE",
"355 429 OFFCURVE",
"346 392 CURVE SMOOTH",
"338 359 OFFCURVE",
"375 365 OFFCURVE",
"393 365 CURVE"
);
},
{
closed = 1;
nodes = (
"377 352 OFFCURVE",
"362 350 OFFCURVE",
"345 348 CURVE",
"350 272 LINE SMOOTH",
"351 251 OFFCURVE",
"356 219 OFFCURVE",
"353 152 CURVE",
"335 139 OFFCURVE",
"311 134 OFFCURVE",
"287 134 CURVE SMOOTH",
"269 134 OFFCURVE",
"251 137 OFFCURVE",
"236 141 CURVE",
"120 161 LINE",
"70 161 OFFCURVE",
"72 88 OFFCURVE",
"77 50 CURVE SMOOTH",
"82 12 OFFCURVE",
"229 -20 OFFCURVE",
"294 -20 CURVE SMOOTH",
"359 -20 OFFCURVE",
"469 62 OFFCURVE",
"496 100 CURVE SMOOTH",
"503 110 OFFCURVE",
"525 138 OFFCURVE",
"525 161 CURVE SMOOTH",
"525 227 OFFCURVE",
"482 333 OFFCURVE",
"470 343 CURVE SMOOTH",
"454 357 OFFCURVE",
"420 352 OFFCURVE",
"397 352 CURVE"
);
},
{
closed = 1;
nodes = (
"229 102 OFFCURVE",
"240 225 OFFCURVE",
"240 364 CURVE SMOOTH",
"240 456 OFFCURVE",
"237 560 OFFCURVE",
"232 568 CURVE SMOOTH",
"227 576 OFFCURVE",
"210 590 OFFCURVE",
"170 584 CURVE SMOOTH",
"137 579 OFFCURVE",
"98 552 OFFCURVE",
"94 520 CURVE SMOOTH",
"77 393 OFFCURVE",
"71 219 OFFCURVE",
"71 123 CURVE SMOOTH",
"71 89 OFFCURVE",
"76 56 OFFCURVE",
"77 50 CURVE SMOOTH",
"82 12 OFFCURVE",
"214 50 OFFCURVE",
"220 71 CURVE SMOOTH"
);
},
{
closed = 1;
nodes = (
"246 277 OFFCURVE",
"303 280 OFFCURVE",
"400 270 CURVE",
"400 435 LINE",
"318 420 OFFCURVE",
"220 420 OFFCURVE",
"188 423 CURVE",
"188 264 LINE"
);
}
);
width = 560;
},
{
associatedMasterId = "6C5F8957-356A-4AA4-B78F-9BBB75A580E3";
backgroundImage = {
crop = "{{0, 0}, {85.68, 131}}";
imagePath = "../../Desktop/PERSONAL TYPEFACES/MANOSQUE/letterscans/BCAP.jpg";
locked = "1";
transform = "{6.17549, 0, 0, 6.17549, 22, -39}";
};
layerId = "D2470F31-E7D4-4A47-98CC-DDD728489581";
name = "Aug 4 19, 11:14";
paths = (
{
closed = 1;
nodes = (
"423 365 OFFCURVE",
"478 382 OFFCURVE",
"492 404 CURVE SMOOTH",
"506 426 OFFCURVE",
"518 484 OFFCURVE",
"518 536 CURVE SMOOTH",
"518 588 OFFCURVE",
"508 646 OFFCURVE",
"491 665 CURVE SMOOTH",
"474 684 OFFCURVE",
"393 713 OFFCURVE",
"265 713 CURVE SMOOTH",
"161 713 OFFCURVE",
"70 683 OFFCURVE",
"56 666 CURVE SMOOTH",
"42 649 OFFCURVE",
"42 549 OFFCURVE",
"53 538 CURVE SMOOTH",
"64 527 OFFCURVE",
"80 524 OFFCURVE",
"94 524 CURVE SMOOTH",
"108 524 OFFCURVE",
"177 555 OFFCURVE",
"261 555 CURVE SMOOTH",
"332 555 OFFCURVE",
"343 552 OFFCURVE",
"355 548 CURVE",
"357 534 OFFCURVE",
"359 517 OFFCURVE",
"359 500 CURVE SMOOTH",
"359 475 OFFCURVE",
"355 429 OFFCURVE",
"346 392 CURVE SMOOTH",
"338 359 OFFCURVE",
"375 365 OFFCURVE",
"393 365 CURVE"
);
},
{
closed = 1;
nodes = (
"377 357 OFFCURVE",
"362 355 OFFCURVE",
"345 353 CURVE",
"350 272 LINE SMOOTH",
"351 251 OFFCURVE",
"356 219 OFFCURVE",
"353 152 CURVE",
"335 139 OFFCURVE",
"311 134 OFFCURVE",
"287 134 CURVE SMOOTH",
"269 134 OFFCURVE",
"251 137 OFFCURVE",
"236 141 CURVE",
"120 161 LINE",
"70 161 OFFCURVE",
"72 88 OFFCURVE",
"77 50 CURVE SMOOTH",
"82 12 OFFCURVE",
"229 -20 OFFCURVE",
"294 -20 CURVE SMOOTH",
"359 -20 OFFCURVE",
"469 62 OFFCURVE",
"496 100 CURVE SMOOTH",
"503 110 OFFCURVE",
"525 138 OFFCURVE",
"525 161 CURVE SMOOTH",
"525 227 OFFCURVE",
"482 338 OFFCURVE",
"470 348 CURVE SMOOTH",
"454 362 OFFCURVE",
"420 357 OFFCURVE",
"397 357 CURVE"
);
},
{
closed = 1;
nodes = (
"229 102 OFFCURVE",
"240 225 OFFCURVE",
"240 364 CURVE SMOOTH",
"240 456 OFFCURVE",
"237 560 OFFCURVE",
"232 568 CURVE SMOOTH",
"227 576 OFFCURVE",
"210 590 OFFCURVE",
"170 584 CURVE SMOOTH",
"137 579 OFFCURVE",
"98 552 OFFCURVE",
"94 520 CURVE SMOOTH",
"77 393 OFFCURVE",
"71 219 OFFCURVE",
"71 123 CURVE SMOOTH",
"71 89 OFFCURVE",
"76 56 OFFCURVE",
"77 50 CURVE SMOOTH",
"82 12 OFFCURVE",
"214 50 OFFCURVE",
"220 71 CURVE SMOOTH"
);
},
{
closed = 1;
nodes = (
"246 277 OFFCURVE",
"303 280 OFFCURVE",
"400 270 CURVE",
"405 298 OFFCURVE",
"408 325 OFFCURVE",
"408 353 CURVE SMOOTH",
"408 380 OFFCURVE",
"405 408 OFFCURVE",
"400 435 CURVE",
"318 420 OFFCURVE",
"220 420 OFFCURVE",
"188 423 CURVE",
"188 264 LINE"
);
}
);
width = 560;
},
{
anchors = (
{
name = bottom;
position = "{280, 0}";
},
{
name = top;
position = "{280, 700}";
}
);
associatedMasterId = "6C5F8957-356A-4AA4-B78F-9BBB75A580E3";
backgroundImage = {
crop = "{{0, 0}, {85.68, 131}}";
imagePath = "../../Desktop/PERSONAL TYPEFACES/MANOSQUE/letterscans/BCAP.jpg";
locked = "1";
transform = "{6.17549, 0, 0, 6.17549, 22, -39}";
};
layerId = "FFAFE978-7000-4F75-87AB-CB2EBEB9E947";
name = "Sep 1 19, 17:51";
paths = (
{
closed = 1;
nodes = (
"440 270 OFFCURVE",
"442 283 OFFCURVE",
"456 305 CURVE SMOOTH",
"470 327 OFFCURVE",
"518 484 OFFCURVE",
"518 536 CURVE SMOOTH",
"518 588 OFFCURVE",
"508 646 OFFCURVE",
"491 665 CURVE SMOOTH",
"474 684 OFFCURVE",
"393 713 OFFCURVE",
"265 713 CURVE SMOOTH",
"161 713 OFFCURVE",
"85 683 OFFCURVE",
"71 666 CURVE SMOOTH",
"57 649 OFFCURVE",
"57 549 OFFCURVE",
"68 538 CURVE SMOOTH",
"79 527 OFFCURVE",
"85 524 OFFCURVE",
"99 524 CURVE SMOOTH",
"113 524 OFFCURVE",
"177 555 OFFCURVE",
"261 555 CURVE SMOOTH",
"332 555 OFFCURVE",
"343 552 OFFCURVE",
"355 548 CURVE",
"357 534 OFFCURVE",
"359 517 OFFCURVE",
"359 500 CURVE SMOOTH",
"359 465 OFFCURVE",
"347 406 OFFCURVE",
"323 373 CURVE SMOOTH",
"302 344 OFFCURVE",
"382 270 OFFCURVE",
"400 270 CURVE"
);
},
{
closed = 1;
nodes = (
"323 373 OFFCURVE",
"337 320 CURVE SMOOTH",
"350 272 LINE SMOOTH",
"354 257 OFFCURVE",
"359 227 OFFCURVE",
"359 198 CURVE SMOOTH",
"359 181 OFFCURVE",
"358 165 OFFCURVE",
"353 152 CURVE",
"335 139 OFFCURVE",
"311 134 OFFCURVE",
"287 134 CURVE SMOOTH",
"269 134 OFFCURVE",
"251 137 OFFCURVE",
"236 141 CURVE",
"120 161 LINE",
"70 161 OFFCURVE",
"72 88 OFFCURVE",
"77 50 CURVE SMOOTH",
"82 12 OFFCURVE",
"249 -20 OFFCURVE",
"314 -20 CURVE SMOOTH",
"379 -20 OFFCURVE",
"469 62 OFFCURVE",
"496 100 CURVE SMOOTH",
"503 110 OFFCURVE",
"525 158 OFFCURVE",
"525 181 CURVE SMOOTH",
"525 247 OFFCURVE",
"469 392 OFFCURVE",
"430 406 CURVE SMOOTH",
"367 429 OFFCURVE"
);
},
{
closed = 1;
nodes = (
"229 102 OFFCURVE",
"240 225 OFFCURVE",
"240 364 CURVE SMOOTH",
"240 456 OFFCURVE",
"237 560 OFFCURVE",
"232 568 CURVE SMOOTH",
"227 576 OFFCURVE",
"210 590 OFFCURVE",
"170 584 CURVE SMOOTH",
"137 579 OFFCURVE",
"98 552 OFFCURVE",
"94 520 CURVE SMOOTH",
"77 393 OFFCURVE",
"71 219 OFFCURVE",
"71 123 CURVE SMOOTH",
"71 89 OFFCURVE",
"76 56 OFFCURVE",
"77 50 CURVE SMOOTH",
"82 12 OFFCURVE",
"214 50 OFFCURVE",
"220 71 CURVE SMOOTH"
);
},
{
closed = 1;
nodes = (
"223 272 OFFCURVE",
"257 276 OFFCURVE",
"299 276 CURVE SMOOTH",
"328 276 OFFCURVE",
"361 274 OFFCURVE",
"400 270 CURVE",
"405 298 OFFCURVE",
"408 325 OFFCURVE",
"408 353 CURVE SMOOTH",
"408 380 OFFCURVE",
"469 436 OFFCURVE",
"428 428 CURVE SMOOTH",
"373 417 OFFCURVE",
"329 417 OFFCURVE",
"292 418 CURVE SMOOTH",
"246 419 OFFCURVE",
"206 421 OFFCURVE",
"188 423 CURVE",
"188 264 LINE"
);
}
);
width = 560;
},
{
anchors = (
{
name = bottom;
position = "{280, 0}";
},
{
name = top;
position = "{280, 700}";
}
);
associatedMasterId = "6C5F8957-356A-4AA4-B78F-9BBB75A580E3";
backgroundImage = {
crop = "{{0, 0}, {85.68, 131}}";
imagePath = "../../Desktop/PERSONAL TYPEFACES/MANOSQUE/letterscans/BCAP.jpg";
locked = "1";
transform = "{6.17549, 0, 0, 6.17549, 22, -39}";
};
layerId = "07CBA00E-9877-4795-A02F-E340579875C4";
name = "Sep 1 19, 17:51";
paths = (
{
closed = 1;
nodes = (
"440 270 OFFCURVE",
"442 283 OFFCURVE",
"456 305 CURVE SMOOTH",
"470 327 OFFCURVE",
"518 484 OFFCURVE",
"518 536 CURVE SMOOTH",
"518 588 OFFCURVE",
"508 646 OFFCURVE",
"491 665 CURVE SMOOTH",
"474 684 OFFCURVE",
"393 713 OFFCURVE",
"265 713 CURVE SMOOTH",
"161 713 OFFCURVE",
"85 683 OFFCURVE",
"71 666 CURVE SMOOTH",
"57 649 OFFCURVE",
"57 549 OFFCURVE",
"68 538 CURVE SMOOTH",
"79 527 OFFCURVE",
"85 524 OFFCURVE",
"99 524 CURVE SMOOTH",
"113 524 OFFCURVE",
"177 555 OFFCURVE",
"261 555 CURVE SMOOTH",
"332 555 OFFCURVE",
"343 552 OFFCURVE",
"355 548 CURVE",
"357 534 OFFCURVE",
"359 517 OFFCURVE",
"359 500 CURVE SMOOTH",
"359 465 OFFCURVE",
"347 406 OFFCURVE",
"323 373 CURVE SMOOTH",
"302 344 OFFCURVE",
"382 270 OFFCURVE",
"400 270 CURVE"
);
},
{
closed = 1;
nodes = (
"323 373 OFFCURVE",
"337 320 CURVE SMOOTH",
"350 272 LINE SMOOTH",
"354 257 OFFCURVE",
"359 227 OFFCURVE",
"359 198 CURVE SMOOTH",
"359 181 OFFCURVE",
"358 165 OFFCURVE",
"353 152 CURVE",
"335 139 OFFCURVE",
"311 134 OFFCURVE",
"287 134 CURVE SMOOTH",
"269 134 OFFCURVE",
"251 137 OFFCURVE",
"236 141 CURVE",
"120 161 LINE",
"70 161 OFFCURVE",
"72 88 OFFCURVE",
"77 50 CURVE SMOOTH",
"82 12 OFFCURVE",
"249 -20 OFFCURVE",
"314 -20 CURVE SMOOTH",
"379 -20 OFFCURVE",
"469 62 OFFCURVE",
"496 100 CURVE SMOOTH",
"503 110 OFFCURVE",
"525 158 OFFCURVE",
"525 181 CURVE SMOOTH",
"525 247 OFFCURVE",
"469 392 OFFCURVE",
"430 406 CURVE SMOOTH",
"367 429 OFFCURVE"
);
},
{
closed = 1;
nodes = (
"229 102 OFFCURVE",
"240 225 OFFCURVE",
"240 364 CURVE SMOOTH",
"240 456 OFFCURVE",
"237 560 OFFCURVE",
"232 568 CURVE SMOOTH",
"227 576 OFFCURVE",
"210 590 OFFCURVE",
"170 584 CURVE SMOOTH",
"137 579 OFFCURVE",
"98 552 OFFCURVE",
"94 520 CURVE SMOOTH",
"77 393 OFFCURVE",
"71 219 OFFCURVE",
"71 123 CURVE SMOOTH",
"71 89 OFFCURVE",
"76 56 OFFCURVE",
"77 50 CURVE SMOOTH",
"82 12 OFFCURVE",
"214 50 OFFCURVE",
"220 71 CURVE SMOOTH"
);
},
{
closed = 1;
nodes = (
"223 272 OFFCURVE",
"257 276 OFFCURVE",
"299 276 CURVE SMOOTH",
"328 276 OFFCURVE",
"361 274 OFFCURVE",
"400 270 CURVE",
"405 298 OFFCURVE",
"408 325 OFFCURVE",
"408 353 CURVE SMOOTH",
"408 380 OFFCURVE",
"469 436 OFFCURVE",
"428 428 CURVE SMOOTH",
"373 417 OFFCURVE",
"329 417 OFFCURVE",
"292 418 CURVE SMOOTH",
"246 419 OFFCURVE",
"206 421 OFFCURVE",
"188 423 CURVE",
"188 264 LINE"
);
}
);
width = 560;
},
{
anchors = (
{
name = bottom;
position = "{237, 0}";
},
{
name = top;
position = "{237, 700}";
}
);
layerId = "6C5F8957-356A-4AA4-B78F-9BBB75A580E3";
paths = (
{
closed = 1;
nodes = (
"359 295 OFFCURVE",
"409 322 OFFCURVE",
"423 344 CURVE SMOOTH",
"437 366 OFFCURVE",
"450 424 OFFCURVE",
"450 476 CURVE SMOOTH",
"450 533 OFFCURVE",
"439 651 OFFCURVE",
"422 670 CURVE SMOOTH",
"405 689 OFFCURVE",
"324 718 OFFCURVE",
"227 718 CURVE SMOOTH",
"123 718 OFFCURVE",
"47 688 OFFCURVE",
"33 671 CURVE SMOOTH",
"23 659 OFFCURVE",
"15 623 OFFCURVE",
"15 592 CURVE SMOOTH",
"15 579 OFFCURVE",
"17 569 OFFCURVE",
"20 566 CURVE SMOOTH",
"31 555 OFFCURVE",
"47 552 OFFCURVE",
"61 552 CURVE SMOOTH",
"75 552 OFFCURVE",
"144 573 OFFCURVE",
"223 573 CURVE SMOOTH",
"251 573 OFFCURVE",
"285 568 OFFCURVE",
"305 560 CURVE",
"283 583 LINE",
"287 568 OFFCURVE",
"290 535 OFFCURVE",
"290 495 CURVE SMOOTH",
"290 456 OFFCURVE",
"286 414 OFFCURVE",
"279 392 CURVE SMOOTH",
"268 360 OFFCURVE",
"311 295 OFFCURVE",
"329 295 CURVE"
);
},
{
closed = 1;
nodes = (
"315 -20 OFFCURVE",
"406 32 OFFCURVE",
"433 70 CURVE SMOOTH",
"443 84 OFFCURVE",
"450 128 OFFCURVE",
"450 181 CURVE SMOOTH",
"450 220 OFFCURVE",
"442 255 OFFCURVE",
"429 270 CURVE SMOOTH",
"415 285 OFFCURVE",
"390 301 OFFCURVE",
"366 310 CURVE",
"277 310 LINE",
"286 287 OFFCURVE",
"290 236 OFFCURVE",
"290 184 CURVE SMOOTH",
"290 138 OFFCURVE",
"287 91 OFFCURVE",
"281 61 CURVE",
"336 152 LINE",
"294 130 OFFCURVE",
"276 125 OFFCURVE",
"244 125 CURVE SMOOTH",
"205 125 OFFCURVE",
"139 145 OFFCURVE",
"77 175 CURVE",
"39 30 LINE",
"44 -8 OFFCURVE",
"186 -20 OFFCURVE",
"251 -20 CURVE SMOOTH"
);
},
{
closed = 1;
nodes = (
"45 -8 OFFCURVE",
"176 20 OFFCURVE",
"182 41 CURVE SMOOTH",
"191 72 OFFCURVE",
"191 225 OFFCURVE",
"191 364 CURVE SMOOTH",
"191 456 OFFCURVE",
"189 595 OFFCURVE",
"184 603 CURVE SMOOTH",
"179 611 OFFCURVE",
"162 625 OFFCURVE",
"122 619 CURVE SMOOTH",
"89 614 OFFCURVE",
"50 597 OFFCURVE",
"46 565 CURVE SMOOTH",
"32 460 OFFCURVE",
"24 120 OFFCURVE",
"39 30 CURVE SMOOTH"
);
},
{
closed = 1;
nodes = (
"276 284 OFFCURVE",
"316 289 OFFCURVE",
"336 296 CURVE",
"366 426 LINE",
"331 420 OFFCURVE",
"300 416 OFFCURVE",
"257 416 CURVE SMOOTH",
"227 416 OFFCURVE",
"191 418 OFFCURVE",
"145 423 CURVE",
"145 290 LINE",
"172 286 OFFCURVE",
"211 284 OFFCURVE",
"235 284 CURVE SMOOTH"
);
}
);
width = 475;
},
{
anchors = (
{
name = bottom;
position = "{252, 0}";
},
{
name = top;
position = "{252, 700}";
}
);
associatedMasterId = "6C5F8957-356A-4AA4-B78F-9BBB75A580E3";
layerId = "BC3EA645-1CA8-4885-81CB-D139331C3D25";
name = "Jul 21 20, 08:39";
paths = (
{
closed = 1;
nodes = (
"374 295 OFFCURVE",
"424 322 OFFCURVE",
"438 344 CURVE SMOOTH",
"452 366 OFFCURVE",
"465 424 OFFCURVE",
"465 476 CURVE SMOOTH",
"465 533 OFFCURVE",
"454 651 OFFCURVE",
"437 670 CURVE SMOOTH",
"420 689 OFFCURVE",
"339 718 OFFCURVE",
"237 718 CURVE SMOOTH",
"133 718 OFFCURVE",
"57 688 OFFCURVE",
"43 671 CURVE SMOOTH",
"33 659 OFFCURVE",
"25 623 OFFCURVE",
"25 592 CURVE SMOOTH",
"25 579 OFFCURVE",
"27 569 OFFCURVE",
"30 566 CURVE SMOOTH",
"41 555 OFFCURVE",
"57 552 OFFCURVE",
"71 552 CURVE SMOOTH",
"85 552 OFFCURVE",
"149 573 OFFCURVE",
"233 573 CURVE SMOOTH",
"266 573 OFFCURVE",
"300 568 OFFCURVE",
"320 560 CURVE",
"298 583 LINE",
"302 568 OFFCURVE",
"305 535 OFFCURVE",
"305 495 CURVE SMOOTH",
"305 456 OFFCURVE",
"301 414 OFFCURVE",
"294 392 CURVE SMOOTH",
"283 360 OFFCURVE",
"326 295 OFFCURVE",
"344 295 CURVE"
);
},
{
closed = 1;
nodes = (
"330 -20 OFFCURVE",
"421 42 OFFCURVE",
"448 80 CURVE SMOOTH",
"459 95 OFFCURVE",
"466 148 OFFCURVE",
"466 181 CURVE SMOOTH",
"466 220 OFFCURVE",
"457 255 OFFCURVE",
"444 270 CURVE SMOOTH",
"430 285 OFFCURVE",
"405 301 OFFCURVE",
"381 310 CURVE",
"292 310 LINE",
"301 290 OFFCURVE",
"305 252 OFFCURVE",
"305 207 CURVE SMOOTH",
"305 170 OFFCURVE",
"302 129 OFFCURVE",
"296 91 CURVE",
"351 152 LINE",
"309 130 OFFCURVE",
"291 125 OFFCURVE",
"259 125 CURVE SMOOTH",
"220 125 OFFCURVE",
"154 145 OFFCURVE",
"92 175 CURVE",
"54 60 LINE",
"59 22 OFFCURVE",
"201 -20 OFFCURVE",
"266 -20 CURVE SMOOTH"
);
},
{
closed = 1;
nodes = (
"60 22 OFFCURVE",
"191 50 OFFCURVE",
"197 71 CURVE SMOOTH",
"206 102 OFFCURVE",
"206 225 OFFCURVE",
"206 364 CURVE SMOOTH",
"206 456 OFFCURVE",
"204 595 OFFCURVE",
"199 603 CURVE SMOOTH",
"194 611 OFFCURVE",
"177 625 OFFCURVE",
"137 619 CURVE SMOOTH",
"104 614 OFFCURVE",
"65 597 OFFCURVE",
"61 565 CURVE SMOOTH",
"47 460 OFFCURVE",
"39 150 OFFCURVE",
"54 60 CURVE SMOOTH"
);
},
{
closed = 1;
nodes = (
"221 284 OFFCURVE",
"250 284 CURVE SMOOTH",
"291 284 OFFCURVE",
"329 288 OFFCURVE",
"351 296 CURVE",
"381 426 LINE",
"346 420 OFFCURVE",
"315 416 OFFCURVE",
"272 416 CURVE SMOOTH",
"242 416 OFFCURVE",
"206 418 OFFCURVE",
"160 423 CURVE",
"160 290 LINE",
"190 286 OFFCURVE"
);
}
);
width = 491;
}
);
leftKerningGroup = B;
rightKerningGroup = B;
unicode = 0042;
},
{
glyphname = C;
lastChange = "2020-07-21 13:00:30 +0000";
layers = (
{
anchors = (
{
name = bottom;
position = "{236, -20}";
},
{
name = top;
position = "{246, 700}";
}
);
guideLines = (
{
angle = 90;
position = "{430, 194}";
}
);
layerId = "6C5F8957-356A-4AA4-B78F-9BBB75A580E3";
paths = (
{
closed = 1;
nodes = (
"96 15 OFFCURVE",
"246 36 OFFCURVE",
"217 107 CURVE SMOOTH",
"194 163 OFFCURVE",
"190 284 OFFCURVE",
"190 364 CURVE",
"190 424 OFFCURVE",
"200 538 OFFCURVE",
"213 581 CURVE SMOOTH",
"219 601 OFFCURVE",
"227 614 OFFCURVE",
"227 635 CURVE SMOOTH",
"227 663 OFFCURVE",
"205 677 OFFCURVE",
"164 677 CURVE SMOOTH",
"134 677 OFFCURVE",
"91 666 OFFCURVE",
"78 656 CURVE SMOOTH",
"49 631 OFFCURVE",
"25 504 OFFCURVE",
"25 338 CURVE SMOOTH",
"25 187 OFFCURVE",
"43 61 OFFCURVE",
"70 37 CURVE SMOOTH"
);
},
{
closed = 1;
nodes = (
"304 -20 OFFCURVE",
"393 21 OFFCURVE",
"410 44 CURVE SMOOTH",
"427 67 OFFCURVE",
"435 141 OFFCURVE",
"435 194 CURVE",
"373 145 LINE",
"333 133 OFFCURVE",
"287 125 OFFCURVE",
"253 125 CURVE SMOOTH",
"220 125 OFFCURVE",
"176 148 OFFCURVE",
"144 167 CURVE",
"70 37 LINE",
"95 14 OFFCURVE",
"174 -20 OFFCURVE",
"236 -20 CURVE SMOOTH"
);
},
{
closed = 1;
nodes = (
"374 101 LINE SMOOTH",
"400 101 OFFCURVE",
"435 148 OFFCURVE",
"435 194 CURVE",
"435 245 OFFCURVE",
"431 285 OFFCURVE",
"425 294 CURVE SMOOTH",
"413 311 OFFCURVE",
"383 323 OFFCURVE",
"348 323 CURVE",
"322 323 OFFCURVE",
"301 318 OFFCURVE",
"290 305 CURVE SMOOTH",
"282 295 OFFCURVE",
"277 259 OFFCURVE",
"277 215 CURVE SMOOTH",
"277 169 OFFCURVE",
"281 123 OFFCURVE",
"288 101 CURVE"
);
},
{
closed = 1;
nodes = (
"221 558 OFFCURVE",
"249 563 OFFCURVE",
"302 563 CURVE SMOOTH",
"348 563 OFFCURVE",
"429 585 OFFCURVE",
"428 599 CURVE SMOOTH",
"426 622 OFFCURVE",
"420 647 OFFCURVE",
"413 662 CURVE SMOOTH",
"403 684 OFFCURVE",
"363 710 OFFCURVE",
"313 710 CURVE SMOOTH",
"224 710 OFFCURVE",
"99 677 OFFCURVE",
"78 656 CURVE SMOOTH",
"60 638 OFFCURVE",
"115 512 OFFCURVE",
"194 545 CURVE"
);
},
{
closed = 1;
nodes = (
"352 380 OFFCURVE",
"410 412 OFFCURVE",
"422 425 CURVE SMOOTH",
"427 431 OFFCURVE",
"430 462 OFFCURVE",
"430 503 CURVE SMOOTH",
"430 534 OFFCURVE",
"429 585 OFFCURVE",
"428 599 CURVE SMOOTH",
"426 622 OFFCURVE",
"377 631 OFFCURVE",
"349 631 CURVE SMOOTH",
"321 631 OFFCURVE",
"295 613 OFFCURVE",
"292 592 CURVE SMOOTH",
"287 558 OFFCURVE",
"284 503 OFFCURVE",
"284 453 CURVE SMOOTH",
"284 443 OFFCURVE",
"285 424 OFFCURVE",
"287 404 CURVE SMOOTH",
"289 390 OFFCURVE",
"304 380 OFFCURVE",
"324 380 CURVE SMOOTH"
);
}
);
width = 460;
},
{
associatedMasterId = "6C5F8957-356A-4AA4-B78F-9BBB75A580E3";
backgroundImage = {
crop = "{{0, 0}, {84.48, 126}}";
imagePath = "../../Desktop/PERSONAL TYPEFACES/MANOSQUE/letterscans/CAP.jpg";
locked = "1";
transform = "{6.17307, 0, 0, 6.17307, 0, -32.555}";
};
layerId = "8AE38138-496B-4B08-A02D-707EEAB5F851";
name = "Jul 27 19, 16:04";
paths = (
{
closed = 1;
nodes = (
"56 619 OFFCURVE",
"24 449 OFFCURVE",
"24 350 CURVE SMOOTH",
"24 251 OFFCURVE",
"47 70 OFFCURVE",
"72 47 CURVE SMOOTH",
"97 24 OFFCURVE",
"237 63 OFFCURVE",
"215 137 CURVE SMOOTH",
"192 213 OFFCURVE",
"183 304 OFFCURVE",
"183 364 CURVE SMOOTH",
"183 424 OFFCURVE",
"187 498 OFFCURVE",
"199 541 CURVE SMOOTH",
"205 561 OFFCURVE",
"208 584 OFFCURVE",
"208 605 CURVE SMOOTH",
"208 633 OFFCURVE",
"176 657 OFFCURVE",
"135 657 CURVE SMOOTH",
"105 657 OFFCURVE",
"87 647 OFFCURVE",
"75 636 CURVE SMOOTH"
);
},
{
closed = 1;
nodes = (
"340 -16 OFFCURVE",
"431 21 OFFCURVE",
"448 44 CURVE SMOOTH",
"465 67 OFFCURVE",
"483 141 OFFCURVE",
"483 194 CURVE",
"411 157 LINE",
"341 142 OFFCURVE",
"234 141 OFFCURVE",
"172 169 CURVE",
"72 47 LINE",
"97 24 OFFCURVE",
"180 -16 OFFCURVE",
"262 -16 CURVE SMOOTH"
);
},
{
closed = 1;
nodes = (
"373 293 OFFCURVE",
"334 271 OFFCURVE",
"330 254 CURVE SMOOTH",
"321 217 OFFCURVE",
"326 147 OFFCURVE",
"330 101 CURVE",
"422 101 LINE SMOOTH",
"448 101 OFFCURVE",
"483 148 OFFCURVE",
"483 194 CURVE",
"483 215 OFFCURVE",
"479 255 OFFCURVE",
"473 264 CURVE SMOOTH",
"467 273 OFFCURVE",
"452 293 OFFCURVE",
"396 293 CURVE"
);
},
{
closed = 1;
nodes = (
"207 539 OFFCURVE",
"288 564 OFFCURVE",
"341 564 CURVE SMOOTH",
"369 564 OFFCURVE",
"391 558 OFFCURVE",
"402 553 CURVE",
"465 601 LINE SMOOTH",
"465 628 OFFCURVE",
"459 657 OFFCURVE",
"452 672 CURVE SMOOTH",
"441 694 OFFCURVE",
"402 720 OFFCURVE",
"352 720 CURVE SMOOTH",
"243 720 OFFCURVE",
"96 657 OFFCURVE",
"75 636 CURVE SMOOTH",
"57 618 OFFCURVE",
"101 493 OFFCURVE",
"180 526 CURVE"
);
},
{
closed = 1;
nodes = (
"316 550 OFFCURVE",
"313 501 OFFCURVE",
"313 463 CURVE SMOOTH",
"313 442 OFFCURVE",
"314 425 OFFCURVE",
"316 414 CURVE SMOOTH",
"318 406 OFFCURVE",
"335 390 OFFCURVE",
"363 390 CURVE SMOOTH",
"391 390 OFFCURVE",
"449 422 OFFCURVE",
"461 435 CURVE SMOOTH",
"473 448 OFFCURVE",
"465 565 OFFCURVE",
"465 601 CURVE SMOOTH",
"465 628 OFFCURVE",
"416 631 OFFCURVE",
"388 631 CURVE SMOOTH",
"360 631 OFFCURVE",
"324 613 OFFCURVE",
"321 592 CURVE SMOOTH"
);
}
);
width = 600;
}
);
leftKerningGroup = CG;
leftMetricsKey = O;
rightKerningGroup = C;
unicode = 0043;
},
{
glyphname = D;
lastChange = "2020-07-21 09:24:30 +0000";
layers = (
{
anchors = (
{
name = bottom;
position = "{236, -10}";
},
{
name = center;
position = "{119, 340}";
},
{
name = top;
position = "{215, 700}";
}
);
layerId = "6C5F8957-356A-4AA4-B78F-9BBB75A580E3";
paths = (
{
closed = 1;
nodes = (
"273 0 OFFCURVE",
"415 78 OFFCURVE",
"436 105 CURVE SMOOTH",
"453 127 OFFCURVE",
"464 253 OFFCURVE",
"464 390 CURVE SMOOTH",
"464 465 OFFCURVE",
"460 533 OFFCURVE",
"455 561 CURVE SMOOTH",
"453 569 OFFCURVE",
"437 596 OFFCURVE",
"411 627 CURVE SMOOTH",
"386 659 OFFCURVE",
"360 686 OFFCURVE",
"348 695 CURVE",
"297 627 LINE",
"299 595 OFFCURVE",
"300 525 OFFCURVE",
"300 450 CURVE SMOOTH",
"300 323 OFFCURVE",
"294 164 OFFCURVE",
"283 77 CURVE SMOOTH"
);
},
{
closed = 1;
nodes = (
"300 -17 OFFCURVE",
"370 20 OFFCURVE",
"436 105 CURVE",
"307 125 LINE",
"259 125 OFFCURVE",
"174 131 OFFCURVE",
"139 141 CURVE",
"92 0 LINE",
"125 -10 OFFCURVE",
"193 -17 OFFCURVE",
"262 -17 CURVE SMOOTH"
);
},
{
closed = 1;
nodes = (
"170 -6 OFFCURVE",
"186 11 OFFCURVE",
"192 37 CURVE SMOOTH",
"199 65 OFFCURVE",
"204 295 OFFCURVE",
"204 474 CURVE SMOOTH",
"204 526 OFFCURVE",
"201 674 OFFCURVE",
"195 680 CURVE SMOOTH",
"183 692 OFFCURVE",
"164 696 OFFCURVE",
"137 696 CURVE SMOOTH",
"110 696 OFFCURVE",
"84 689 OFFCURVE",
"65 675 CURVE SMOOTH",
"46 661 OFFCURVE",
"36 328 OFFCURVE",
"36 207 CURVE SMOOTH",
"36 149 OFFCURVE",
"47 73 OFFCURVE",
"58 27 CURVE SMOOTH",
"61 16 OFFCURVE",
"74 5 OFFCURVE",
"92 0 CURVE SMOOTH",
"105 -4 OFFCURVE",
"139 -6 OFFCURVE",
"152 -6 CURVE SMOOTH"
);
},
{
closed = 1;
nodes = (
"96 538 OFFCURVE",
"154 568 OFFCURVE",
"232 568 CURVE SMOOTH",
"258 568 OFFCURVE",
"290 565 OFFCURVE",
"302 561 CURVE",
"422 532 OFFCURVE",
"370 679 OFFCURVE",
"348 695 CURVE SMOOTH",
"333 706 OFFCURVE",
"288 713 OFFCURVE",
"236 713 CURVE SMOOTH",
"159 713 OFFCURVE",
"74 694 OFFCURVE",
"34 666 CURVE SMOOTH",
"23 657 OFFCURVE",
"15 625 OFFCURVE",
"15 584 CURVE SMOOTH",
"15 568 OFFCURVE",
"17 555 OFFCURVE",
"21 551 CURVE SMOOTH",
"29 543 OFFCURVE",
"43 538 OFFCURVE",
"56 538 CURVE SMOOTH"
);
}
);
width = 489;
},
{
associatedMasterId = "6C5F8957-356A-4AA4-B78F-9BBB75A580E3";
backgroundImage = {
crop = "{{0, 0}, {85.68, 129.12}}";
imagePath = "../../Desktop/PERSONAL TYPEFACES/MANOSQUE/letterscans/DCAP.jpg";
locked = "1";
transform = "{6.22013, 0, 0, 6.22013, 5, -52}";
};
layerId = "35605CEA-5D91-490E-9D63-1964F39E0D7A";
name = "Jul 31 19, 23:33";
paths = (
{
closed = 1;
nodes = (
"234 102 OFFCURVE",
"245 225 OFFCURVE",
"245 364 CURVE SMOOTH",
"245 456 OFFCURVE",
"242 560 OFFCURVE",
"237 568 CURVE SMOOTH",
"232 576 OFFCURVE",
"215 590 OFFCURVE",
"175 584 CURVE SMOOTH",
"142 579 OFFCURVE",
"103 552 OFFCURVE",
"99 520 CURVE SMOOTH",
"82 393 OFFCURVE",
"76 219 OFFCURVE",
"76 123 CURVE SMOOTH",
"76 89 OFFCURVE",
"81 56 OFFCURVE",
"82 50 CURVE SMOOTH",
"87 12 OFFCURVE",
"219 50 OFFCURVE",
"225 71 CURVE SMOOTH"
);
},
{
closed = 1;
nodes = (
"264 713 LINE",
"163 712 OFFCURVE",
"75 683 OFFCURVE",
"61 666 CURVE SMOOTH",
"47 649 OFFCURVE",
"47 549 OFFCURVE",
"58 538 CURVE SMOOTH",
"69 527 OFFCURVE",
"85 524 OFFCURVE",
"99 524 CURVE SMOOTH",
"113 524 OFFCURVE",
"181 555 OFFCURVE",
"264 555 CURVE"
);
},
{
closed = 1;
nodes = (
"351 -20 OFFCURVE",
"321 124 OFFCURVE",
"286 123 CURVE",
"264 124 OFFCURVE",
"236 117 OFFCURVE",
"221 123 CURVE",
"125 161 LINE",
"75 161 OFFCURVE",
"77 88 OFFCURVE",
"82 50 CURVE SMOOTH",
"87 12 OFFCURVE",
"224 -20 OFFCURVE",
"286 -20 CURVE"
);
},
{
closed = 1;
nodes = (
"367 352 OFFCURVE",
"333 193 OFFCURVE",
"326 179 CURVE SMOOTH",
"319 165 OFFCURVE",
"273 135 OFFCURVE",
"225 135 CURVE",
"225 13 LINE",
"238 4 OFFCURVE",
"268 -20 OFFCURVE",
"286 -20 CURVE SMOOTH",
"321 -20 OFFCURVE",
"409 23 OFFCURVE",
"441 71 CURVE SMOOTH",
"483 135 OFFCURVE",
"530 318 OFFCURVE",
"530 397 CURVE SMOOTH",
"530 476 OFFCURVE",
"462 610 OFFCURVE",
"437 638 CURVE SMOOTH",
"412 666 OFFCURVE",
"299 713 OFFCURVE",
"264 713 CURVE",
"205 622 LINE",
"264 555 LINE",
"304 555 OFFCURVE",
"367 459 OFFCURVE",
"367 405 CURVE"
);
}
);
width = 555;
},
{
anchors = (
{
name = bottom;
position = "{242, 0}";
},
{
name = center;
position = "{127, 350}";
},
{
name = top;
position = "{221, 700}";
}
);
associatedMasterId = "6C5F8957-356A-4AA4-B78F-9BBB75A580E3";
layerId = "22AAD38E-FF2F-48FD-8C3D-2D699A71BEE4";
name = "Mar 31 20, 10:50";
paths = (
{
closed = 1;
nodes = (
"278 -10 OFFCURVE",
"376 33 OFFCURVE",
"408 81 CURVE SMOOTH",
"450 145 OFFCURVE",
"471 275 OFFCURVE",
"471 451 CURVE SMOOTH",
"471 542 OFFCURVE",
"373 713 OFFCURVE",
"221 713 CURVE",
"162 622 LINE",
"221 555 LINE",
"261 555 OFFCURVE",
"324 479 OFFCURVE",
"324 421 CURVE SMOOTH",
"324 279 OFFCURVE",
"290 193 OFFCURVE",
"283 179 CURVE SMOOTH",
"276 165 OFFCURVE",
"230 135 OFFCURVE",
"182 135 CURVE",
"182 13 LINE",
"195 4 OFFCURVE",
"225 -10 OFFCURVE",
"243 -10 CURVE SMOOTH"
);
},
{
closed = 1;
nodes = (
"308 -10 OFFCURVE",
"278 124 OFFCURVE",
"243 123 CURVE",
"221 124 OFFCURVE",
"193 117 OFFCURVE",
"178 123 CURVE",
"82 171 LINE",
"32 171 OFFCURVE",
"34 98 OFFCURVE",
"39 60 CURVE SMOOTH",
"44 22 OFFCURVE",
"181 -10 OFFCURVE",
"243 -10 CURVE"
);
},
{
closed = 1;
nodes = (
"45 22 OFFCURVE",
"176 50 OFFCURVE",
"182 71 CURVE SMOOTH",
"191 102 OFFCURVE",
"191 225 OFFCURVE",
"191 364 CURVE SMOOTH",
"191 456 OFFCURVE",
"189 570 OFFCURVE",
"184 578 CURVE SMOOTH",
"179 586 OFFCURVE",
"162 600 OFFCURVE",
"122 594 CURVE SMOOTH",
"89 589 OFFCURVE",
"50 572 OFFCURVE",
"46 540 CURVE SMOOTH",
"32 435 OFFCURVE",
"24 150 OFFCURVE",
"39 60 CURVE SMOOTH"
);
},
{
closed = 1;
nodes = (
"85 524 OFFCURVE",
"138 555 OFFCURVE",
"221 555 CURVE",
"221 713 LINE",
"125 712 OFFCURVE",
"47 683 OFFCURVE",
"33 666 CURVE SMOOTH",
"19 649 OFFCURVE",
"9 549 OFFCURVE",
"20 538 CURVE SMOOTH",
"31 527 OFFCURVE",
"57 524 OFFCURVE",
"71 524 CURVE SMOOTH"
);
}
);
width = 486;
},
{
anchors = (
{
name = bottom;
position = "{242, 0}";
},
{
name = center;
position = "{127, 350}";
},
{
name = top;
position = "{221, 700}";
}
);
associatedMasterId = "6C5F8957-356A-4AA4-B78F-9BBB75A580E3";
layerId = "EEDAF5DF-A0B5-4FD9-82CA-AC04C2C306CB";
name = "Mar 31 20, 12:07";
paths = (
{
closed = 1;
nodes = (
"338 -17 OFFCURVE",
"432 106 OFFCURVE",
"444 125 CURVE",
"352 161 LINE",
"312 154 OFFCURVE",
"276 150 OFFCURVE",
"247 150 CURVE SMOOTH",
"211 150 OFFCURVE",
"207 154 OFFCURVE",
"175 161 CURVE",
"98 10 LINE",
"111 6 OFFCURVE",
"207 -17 OFFCURVE",
"267 -17 CURVE SMOOTH"
);
},
{
closed = 1;
nodes = (
"375 85 OFFCURVE",
"430 102 OFFCURVE",
"444 124 CURVE SMOOTH",
"458 146 OFFCURVE",
"470 234 OFFCURVE",
"470 286 CURVE SMOOTH",
"470 338 OFFCURVE",
"460 646 OFFCURVE",
"443 665 CURVE SMOOTH",
"426 684 OFFCURVE",
"345 713 OFFCURVE",
"242 713 CURVE SMOOTH",
"138 713 OFFCURVE",
"57 683 OFFCURVE",
"43 666 CURVE SMOOTH",
"29 649 OFFCURVE",
"19 549 OFFCURVE",
"30 538 CURVE SMOOTH",
"41 527 OFFCURVE",
"67 524 OFFCURVE",
"81 524 CURVE SMOOTH",
"95 524 OFFCURVE",
"154 555 OFFCURVE",
"238 555 CURVE SMOOTH",
"264 555 OFFCURVE",
"295 552 OFFCURVE",
"307 548 CURVE",
"311 521 OFFCURVE",
"313 457 OFFCURVE",
"313 386 CURVE SMOOTH",
"313 279 OFFCURVE",
"308 154 OFFCURVE",
"298 112 CURVE SMOOTH",
"290 79 OFFCURVE",
"327 85 OFFCURVE",
"345 85 CURVE"
);
},
{
closed = 1;
nodes = (
"165 4 OFFCURVE",
"190 15 OFFCURVE",
"198 47 CURVE SMOOTH",
"205 75 OFFCURVE",
"210 295 OFFCURVE",
"210 474 CURVE SMOOTH",
"210 526 OFFCURVE",
"207 674 OFFCURVE",
"201 680 CURVE SMOOTH",
"189 692 OFFCURVE",
"170 696 OFFCURVE",
"143 696 CURVE SMOOTH",
"120 696 OFFCURVE",
"94 689 OFFCURVE",
"75 675 CURVE SMOOTH",
"56 661 OFFCURVE",
"46 332 OFFCURVE",
"46 211 CURVE SMOOTH",
"46 136 OFFCURVE",
"57 67 OFFCURVE",
"64 37 CURVE SMOOTH",
"67 24 OFFCURVE",
"81 15 OFFCURVE",
"98 10 CURVE SMOOTH",
"111 6 OFFCURVE",
"125 4 OFFCURVE",
"138 4 CURVE SMOOTH"
);
}
);
width = 495;
},
{
anchors = (
{
name = bottom;
position = "{242, 0}";
},
{
name = center;
position = "{127, 350}";
},
{
name = top;
position = "{221, 700}";
}
);
associatedMasterId = "6C5F8957-356A-4AA4-B78F-9BBB75A580E3";
layerId = "D33C9F26-A7BF-4D3D-976F-194CB1D79371";
name = "Mar 31 20, 15:36";
paths = (
{
closed = 1;
nodes = (
"338 -17 OFFCURVE",
"433 98 OFFCURVE",
"454 125 CURVE",
"352 161 LINE",
"312 154 OFFCURVE",
"276 150 OFFCURVE",
"247 150 CURVE SMOOTH",
"211 150 OFFCURVE",
"207 154 OFFCURVE",
"175 161 CURVE",
"98 10 LINE",
"111 6 OFFCURVE",
"207 -17 OFFCURVE",
"267 -17 CURVE SMOOTH"
);
},
{
closed = 1;
nodes = (
"165 4 OFFCURVE",
"190 15 OFFCURVE",
"198 47 CURVE SMOOTH",
"205 75 OFFCURVE",
"210 295 OFFCURVE",
"210 474 CURVE SMOOTH",
"210 526 OFFCURVE",
"207 674 OFFCURVE",
"201 680 CURVE SMOOTH",
"189 692 OFFCURVE",
"170 696 OFFCURVE",
"143 696 CURVE SMOOTH",
"120 696 OFFCURVE",
"94 689 OFFCURVE",
"75 675 CURVE SMOOTH",
"56 661 OFFCURVE",
"46 332 OFFCURVE",
"46 211 CURVE SMOOTH",
"46 136 OFFCURVE",
"57 67 OFFCURVE",
"64 37 CURVE SMOOTH",
"67 24 OFFCURVE",
"81 15 OFFCURVE",
"98 10 CURVE SMOOTH",
"111 6 OFFCURVE",
"125 4 OFFCURVE",
"138 4 CURVE SMOOTH"
);
},
{
closed = 1;
nodes = (
"473 150 OFFCURVE",
"480 199 OFFCURVE",
"480 364 CURVE SMOOTH",
"480 456 OFFCURVE",
"471 547 OFFCURVE",
"463 601 CURVE SMOOTH",
"458 636 OFFCURVE",
"404 670 OFFCURVE",
"383 685 CURVE",
"308 586 LINE",
"311 538 OFFCURVE",
"310 474 OFFCURVE",
"310 364 CURVE SMOOTH",
"310 234 OFFCURVE",
"297 133 OFFCURVE",
"294 77 CURVE SMOOTH",
"290 0 OFFCURVE",
"433 98 OFFCURVE",
"454 125 CURVE SMOOTH"
);
},
{
closed = 1;
nodes = (
"428 519 OFFCURVE",
"404 670 OFFCURVE",
"383 685 CURVE SMOOTH",
"356 704 OFFCURVE",
"345 713 OFFCURVE",
"242 713 CURVE SMOOTH",
"138 713 OFFCURVE",
"57 683 OFFCURVE",
"43 666 CURVE SMOOTH",
"29 649 OFFCURVE",
"19 549 OFFCURVE",
"30 538 CURVE SMOOTH",
"41 527 OFFCURVE",
"67 524 OFFCURVE",
"81 524 CURVE SMOOTH",
"95 524 OFFCURVE",
"154 555 OFFCURVE",
"238 555 CURVE SMOOTH",
"264 555 OFFCURVE",
"295 552 OFFCURVE",
"307 548 CURVE"
);
}
);
width = 495;
}
);
leftKerningGroup = EF;
rightKerningGroup = O;
unicode = 0044;
},
{
glyphname = Eth;
lastChange = "2020-04-08 18:48:26 +0000";
layers = (
{
components = (
{
name = D;
}
);
layerId = "6C5F8957-356A-4AA4-B78F-9BBB75A580E3";
paths = (
{
closed = 1;
nodes = (
"186 280 OFFCURVE",
"219 286 OFFCURVE",
"243 294 CURVE SMOOTH",
"263 301 OFFCURVE",
"276 329 OFFCURVE",
"276 345 CURVE SMOOTH",
"276 359 OFFCURVE",
"263 383 OFFCURVE",
"240 391 CURVE SMOOTH",
"225 396 OFFCURVE",
"186 400 OFFCURVE",
"125 400 CURVE SMOOTH",
"74 400 OFFCURVE",
"38 397 OFFCURVE",
"22 391 CURVE SMOOTH",
"2 384 OFFCURVE",
"-6 359 OFFCURVE",
"-6 345 CURVE SMOOTH",
"-6 329 OFFCURVE",
"2 307 OFFCURVE",
"22 300 CURVE SMOOTH",
"55 288 OFFCURVE",
"74 280 OFFCURVE",
"125 280 CURVE SMOOTH"
);
}
);
width = 504;
}
);
leftKerningGroup = EF;
rightKerningGroup = O;
unicode = 00D0;
},
{
glyphname = E;
lastChange = "2020-07-21 09:24:30 +0000";
layers = (
{
anchors = (
{
name = bottom;
position = "{241, -10}";
},
{
name = ogonek;
position = "{350, 10}";
},
{
name = top;
position = "{203, 717}";
},
{
name = topleft;
position = "{0, 700}";
}
);
layerId = "6C5F8957-356A-4AA4-B78F-9BBB75A580E3";
paths = (
{
closed = 1;
nodes = (
"155 4 OFFCURVE",
"184 15 OFFCURVE",
"192 47 CURVE SMOOTH",
"199 75 OFFCURVE",
"204 295 OFFCURVE",
"204 474 CURVE SMOOTH",
"204 526 OFFCURVE",
"197 674 OFFCURVE",
"191 680 CURVE SMOOTH",
"179 692 OFFCURVE",
"160 696 OFFCURVE",
"133 696 CURVE SMOOTH",
"110 696 OFFCURVE",
"84 689 OFFCURVE",
"65 675 CURVE SMOOTH",
"45 661 OFFCURVE",
"38 514 OFFCURVE",
"38 364 CURVE SMOOTH",
"38 221 OFFCURVE",
"40 76 OFFCURVE",
"49 37 CURVE SMOOTH",
"51 29 OFFCURVE",
"66 18 OFFCURVE",
"88 10 CURVE SMOOTH",
"98 6 OFFCURVE",
"115 4 OFFCURVE",
"128 4 CURVE SMOOTH"
);
},
{
closed = 1;
nodes = (
"284 -10 OFFCURVE",
"341 -3 OFFCURVE",
"353 4 CURVE SMOOTH",
"372 15 OFFCURVE",
"375 61 OFFCURVE",
"375 83 CURVE SMOOTH",
"375 105 OFFCURVE",
"355 146 OFFCURVE",
"331 146 CURVE SMOOTH",
"277 146 OFFCURVE",
"211 138 OFFCURVE",
"165 127 CURVE SMOOTH",
"125 117 OFFCURVE",
"66 18 OFFCURVE",
"88 10 CURVE SMOOTH",
"98 6 OFFCURVE",
"162 -10 OFFCURVE",
"241 -10 CURVE SMOOTH"
);
},
{
closed = 1;
nodes = (
"276 279 OFFCURVE",
"296 287 OFFCURVE",
"305 292 CURVE SMOOTH",
"314 297 OFFCURVE",
"343 348 OFFCURVE",
"343 375 CURVE SMOOTH",
"343 392 OFFCURVE",
"338 408 OFFCURVE",
"333 414 CURVE SMOOTH",
"325 421 OFFCURVE",
"298 426 OFFCURVE",
"272 426 CURVE SMOOTH",
"246 426 OFFCURVE",
"161 417 OFFCURVE",
"109 407 CURVE",
"109 289 LINE",
"142 284 OFFCURVE",
"186 279 OFFCURVE",
"240 279 CURVE SMOOTH"
);
},
{
closed = 1;
nodes = (
"302 559 OFFCURVE",
"324 561 OFFCURVE",
"343 564 CURVE SMOOTH",
"369 569 OFFCURVE",
"380 634 OFFCURVE",
"380 650 CURVE",
"380 666 OFFCURVE",
"372 683 OFFCURVE",
"361 700 CURVE SMOOTH",
"350 717 OFFCURVE",
"339 721 OFFCURVE",
"303 721 CURVE SMOOTH",
"163 721 OFFCURVE",
"69 708 OFFCURVE",
"31 689 CURVE SMOOTH",
"21 684 OFFCURVE",
"15 650 OFFCURVE",
"15 604 CURVE SMOOTH",
"15 593 OFFCURVE",
"24 585 OFFCURVE",
"37 582 CURVE SMOOTH",
"97 568 OFFCURVE",
"194 559 OFFCURVE",
"279 559 CURVE SMOOTH"
);
}
);
width = 385;
}
);
leftKerningGroup = EF;
rightKerningGroup = E;
unicode = 0045;
},
{
glyphname = F;
lastChange = "2020-07-21 14:15:04 +0000";
layers = (
{
guideLines = (
{
position = "{235, 229}";
},
{
position = "{108, -11}";
}
);
layerId = "6C5F8957-356A-4AA4-B78F-9BBB75A580E3";
paths = (
{
closed = 1;
nodes = (
"155 -11 OFFCURVE",
"189 0 OFFCURVE",
"197 32 CURVE SMOOTH",
"202 52 OFFCURVE",
"206 204 OFFCURVE",
"206 356 CURVE SMOOTH",
"206 513 OFFCURVE",
"202 669 OFFCURVE",
"191 680 CURVE SMOOTH",
"179 692 OFFCURVE",
"160 696 OFFCURVE",
"133 696 CURVE SMOOTH",
"110 696 OFFCURVE",
"84 689 OFFCURVE",
"65 675 CURVE SMOOTH",
"45 661 OFFCURVE",
"35 401 OFFCURVE",
"35 212 CURVE SMOOTH",
"35 119 OFFCURVE",
"37 44 OFFCURVE",
"42 22 CURVE SMOOTH",
"45 9 OFFCURVE",
"71 0 OFFCURVE",
"88 -5 CURVE SMOOTH",
"101 -9 OFFCURVE",
"115 -11 OFFCURVE",
"128 -11 CURVE SMOOTH"
);
},
{
closed = 1;
nodes = (
"266 234 OFFCURVE",
"286 242 OFFCURVE",
"295 247 CURVE SMOOTH",
"304 252 OFFCURVE",
"333 308 OFFCURVE",
"333 335 CURVE SMOOTH",
"333 352 OFFCURVE",
"328 368 OFFCURVE",
"323 374 CURVE SMOOTH",
"315 381 OFFCURVE",
"288 386 OFFCURVE",
"262 386 CURVE SMOOTH",
"236 386 OFFCURVE",
"156 377 OFFCURVE",
"109 367 CURVE",
"109 244 LINE",
"142 239 OFFCURVE",
"176 234 OFFCURVE",
"230 234 CURVE SMOOTH"
);
},
{
closed = 1;
nodes = (
"297 559 OFFCURVE",
"319 561 OFFCURVE",
"338 564 CURVE SMOOTH",
"364 569 OFFCURVE",
"375 634 OFFCURVE",
"375 650 CURVE",
"375 666 OFFCURVE",
"367 683 OFFCURVE",
"356 700 CURVE SMOOTH",
"345 717 OFFCURVE",
"334 721 OFFCURVE",
"298 721 CURVE SMOOTH",
"158 721 OFFCURVE",
"69 708 OFFCURVE",
"31 689 CURVE SMOOTH",
"21 684 OFFCURVE",
"15 650 OFFCURVE",
"15 604 CURVE SMOOTH",
"15 593 OFFCURVE",
"24 585 OFFCURVE",
"37 582 CURVE SMOOTH",
"97 568 OFFCURVE",
"189 559 OFFCURVE",
"274 559 CURVE SMOOTH"
);
}
);
width = 380;
},
{
associatedMasterId = "6C5F8957-356A-4AA4-B78F-9BBB75A580E3";
backgroundImage = {
crop = "{{0, 0}, {85.44, 130.08}}";
imagePath = "../../Desktop/PERSONAL TYPEFACES/MANOSQUE/letterscans/FCAP.jpg";
locked = "1";
transform = "{6.17555, 0, 0, 6.17555, -19, -46}";
};
layerId = "65930FC0-C90E-4415-89B7-293BC9994497";
name = "Jul 27 19, 17:00";
paths = (
{
closed = 1;
nodes = (
"485 666 OFFCURVE",
"477 683 OFFCURVE",
"466 700 CURVE SMOOTH",
"455 717 OFFCURVE",
"448 721 OFFCURVE",
"398 721 CURVE SMOOTH",
"324 721 OFFCURVE",
"99 709 OFFCURVE",
"76 689 CURVE SMOOTH",
"63 677 OFFCURVE",
"50 607 OFFCURVE",
"50 586 CURVE SMOOTH",
"50 578 OFFCURVE",
"57 569 OFFCURVE",
"67 564 CURVE SMOOTH",
"91 553 OFFCURVE",
"182 549 OFFCURVE",
"246 549 CURVE SMOOTH",
"319 549 OFFCURVE",
"368 554 OFFCURVE",
"408 558 CURVE SMOOTH",
"429 560 OFFCURVE",
"485 634 OFFCURVE",
"485 650 CURVE"
);
},
{
closed = 1;
nodes = (
"56 121 OFFCURVE",
"57 52 OFFCURVE",
"64 22 CURVE SMOOTH",
"69 0 OFFCURVE",
"107 -11 OFFCURVE",
"138 -11 CURVE SMOOTH",
"165 -11 OFFCURVE",
"200 0 OFFCURVE",
"208 32 CURVE SMOOTH",
"215 60 OFFCURVE",
"230 295 OFFCURVE",
"230 474 CURVE SMOOTH",
"230 526 OFFCURVE",
"227 664 OFFCURVE",
"221 670 CURVE SMOOTH",
"209 682 OFFCURVE",
"190 686 OFFCURVE",
"163 686 CURVE SMOOTH",
"140 686 OFFCURVE",
"114 679 OFFCURVE",
"95 665 CURVE SMOOTH",
"76 651 OFFCURVE",
"56 317 OFFCURVE",
"56 196 CURVE SMOOTH"
);
},
{
closed = 1;
nodes = (
"197 274 OFFCURVE",
"215 269 OFFCURVE",
"275 269 CURVE SMOOTH",
"335 269 OFFCURVE",
"357 277 OFFCURVE",
"367 283 CURVE SMOOTH",
"377 289 OFFCURVE",
"408 332 OFFCURVE",
"408 361 CURVE SMOOTH",
"408 380 OFFCURVE",
"403 398 OFFCURVE",
"397 404 CURVE SMOOTH",
"389 412 OFFCURVE",
"369 418 OFFCURVE",
"350 418 CURVE SMOOTH",
"321 418 OFFCURVE",
"189 408 OFFCURVE",
"160 397 CURVE",
"160 280 LINE"
);
}
);
width = 510;
}
);
leftKerningGroup = EF;
leftMetricsKey = E;
rightKerningGroup = F;
unicode = 0046;
},
{
glyphname = G;
lastChange = "2020-07-21 11:37:55 +0000";
layers = (
{
anchors = (
{
name = bottom;
position = "{254, 0}";
},
{
name = top;
position = "{254, 700}";
}
);
associatedMasterId = "6C5F8957-356A-4AA4-B78F-9BBB75A580E3";
layerId = "D1A2C442-6EF2-4792-897B-C6C8436FA547";
name = "Jul 20 20, 12:01";
paths = (
{
closed = 1;
nodes = (
"322 -16 OFFCURVE",
"398 21 OFFCURVE",
"415 44 CURVE SMOOTH",
"432 67 OFFCURVE",
"453 148 OFFCURVE",
"453 194 CURVE",
"378 157 LINE",
"348 150 OFFCURVE",
"310 137 OFFCURVE",
"273 137 CURVE SMOOTH",
"229 137 OFFCURVE",
"219 153 OFFCURVE",
"184 169 CURVE",
"79 47 LINE",
"104 24 OFFCURVE",
"172 -16 OFFCURVE",
"244 -16 CURVE SMOOTH"
);
},
{
closed = 1;
nodes = (
"389 101 LINE SMOOTH",
"415 101 OFFCURVE",
"453 148 OFFCURVE",
"453 194 CURVE SMOOTH",
"453 208 OFFCURVE",
"441 231 OFFCURVE",
"427 246 CURVE SMOOTH",
"400 275 OFFCURVE",
"369 283 OFFCURVE",
"353 283 CURVE SMOOTH",
"283 283 OFFCURVE",
"262 273 OFFCURVE",
"262 263 CURVE SMOOTH",
"262 260 OFFCURVE",
"263 257 OFFCURVE",
"267 254 CURVE SMOOTH",
"285 241 OFFCURVE",
"302 219 OFFCURVE",
"302 202 CURVE SMOOTH",
"302 172 OFFCURVE",
"298 145 OFFCURVE",
"278 101 CURVE"
);
},
{
closed = 1;
nodes = (
"483 249 OFFCURVE",
"483 280 CURVE SMOOTH",
"483 328 OFFCURVE",
"474 364 OFFCURVE",
"463 372 CURVE SMOOTH",
"453 379 OFFCURVE",
"414 383 OFFCURVE",
"372 383 CURVE SMOOTH",
"323 383 OFFCURVE",
"279 377 OFFCURVE",
"267 366 CURVE SMOOTH",
"251 352 OFFCURVE",
"242 319 OFFCURVE",
"242 272 CURVE SMOOTH",
"242 260 OFFCURVE",
"246 248 OFFCURVE",
"253 243 CURVE SMOOTH",
"265 235 OFFCURVE",
"298 229 OFFCURVE",
"351 228 CURVE SMOOTH",
"430 228 OFFCURVE"
);
},
{
closed = 1;
nodes = (
"226 546 OFFCURVE",
"264 553 OFFCURVE",
"313 553 CURVE SMOOTH",
"359 553 OFFCURVE",
"440 585 OFFCURVE",
"439 599 CURVE SMOOTH",
"437 622 OFFCURVE",
"431 647 OFFCURVE",
"424 662 CURVE SMOOTH",
"414 684 OFFCURVE",
"374 710 OFFCURVE",
"324 710 CURVE SMOOTH",
"219 710 OFFCURVE",
"120 688 OFFCURVE",
"88 656 CURVE SMOOTH",
"70 638 OFFCURVE",
"125 502 OFFCURVE",
"204 535 CURVE"
);
},
{
closed = 1;
nodes = (
"364 420 OFFCURVE",
"422 452 OFFCURVE",
"434 465 CURVE SMOOTH",
"440 472 OFFCURVE",
"442 497 OFFCURVE",
"442 533 CURVE SMOOTH",
"442 554 OFFCURVE",
"440 585 OFFCURVE",
"439 599 CURVE SMOOTH",
"437 622 OFFCURVE",
"389 631 OFFCURVE",
"361 631 CURVE SMOOTH",
"333 631 OFFCURVE",
"297 613 OFFCURVE",
"294 592 CURVE SMOOTH",
"288 550 OFFCURVE",
"286 531 OFFCURVE",
"286 493 CURVE SMOOTH",
"286 472 OFFCURVE",
"288 455 OFFCURVE",
"289 444 CURVE SMOOTH",
"290 436 OFFCURVE",
"308 420 OFFCURVE",
"336 420 CURVE SMOOTH"
);
},
{
closed = 1;
nodes = (
"103 24 OFFCURVE",
"261 36 OFFCURVE",
"232 107 CURVE SMOOTH",
"209 163 OFFCURVE",
"195 284 OFFCURVE",
"195 364 CURVE SMOOTH",
"195 424 OFFCURVE",
"205 538 OFFCURVE",
"218 581 CURVE SMOOTH",
"224 601 OFFCURVE",
"232 614 OFFCURVE",
"232 635 CURVE SMOOTH",
"232 663 OFFCURVE",
"210 677 OFFCURVE",
"169 677 CURVE SMOOTH",
"139 677 OFFCURVE",
"100 668 OFFCURVE",
"88 656 CURVE SMOOTH",
"70 638 OFFCURVE",
"30 513 OFFCURVE",
"30 364 CURVE SMOOTH",
"30 195 OFFCURVE",
"53 70 OFFCURVE",
"78 47 CURVE SMOOTH"
);
}
);
width = 498;
},
{
anchors = (
{
name = bottom;
position = "{254, 0}";
},
{
name = top;
position = "{254, 700}";
}
);
associatedMasterId = "6C5F8957-356A-4AA4-B78F-9BBB75A580E3";
layerId = "806119EF-9C3A-436D-920D-66EB53DC3CD0";
name = "Jul 20 20, 12:01";
paths = (
{
closed = 1;
nodes = (
"322 -16 OFFCURVE",
"398 21 OFFCURVE",
"415 44 CURVE SMOOTH",
"432 67 OFFCURVE",
"453 148 OFFCURVE",
"453 194 CURVE",
"378 157 LINE",
"348 150 OFFCURVE",
"310 137 OFFCURVE",
"273 137 CURVE SMOOTH",
"229 137 OFFCURVE",
"219 153 OFFCURVE",
"184 169 CURVE",
"79 47 LINE",
"104 24 OFFCURVE",
"172 -16 OFFCURVE",
"244 -16 CURVE SMOOTH"
);
},
{
closed = 1;
nodes = (
"389 101 LINE SMOOTH",
"415 101 OFFCURVE",
"453 148 OFFCURVE",
"453 194 CURVE SMOOTH",
"453 208 OFFCURVE",
"441 231 OFFCURVE",
"427 246 CURVE SMOOTH",
"400 275 OFFCURVE",
"369 283 OFFCURVE",
"353 283 CURVE SMOOTH",
"283 283 OFFCURVE",
"262 273 OFFCURVE",
"262 263 CURVE SMOOTH",
"262 260 OFFCURVE",
"263 257 OFFCURVE",
"267 254 CURVE SMOOTH",
"285 241 OFFCURVE",
"302 219 OFFCURVE",
"302 202 CURVE SMOOTH",
"302 172 OFFCURVE",
"298 145 OFFCURVE",
"278 101 CURVE"
);
},
{
closed = 1;
nodes = (
"483 249 OFFCURVE",
"483 280 CURVE SMOOTH",
"483 328 OFFCURVE",
"474 364 OFFCURVE",
"463 372 CURVE SMOOTH",
"453 379 OFFCURVE",
"414 383 OFFCURVE",
"372 383 CURVE SMOOTH",
"323 383 OFFCURVE",
"279 377 OFFCURVE",
"267 366 CURVE SMOOTH",
"251 352 OFFCURVE",
"242 319 OFFCURVE",
"242 272 CURVE SMOOTH",
"242 260 OFFCURVE",
"246 248 OFFCURVE",
"253 243 CURVE SMOOTH",
"265 235 OFFCURVE",
"298 229 OFFCURVE",
"351 228 CURVE SMOOTH",
"430 228 OFFCURVE"
);
},
{
closed = 1;
nodes = (
"226 546 OFFCURVE",
"264 553 OFFCURVE",
"313 553 CURVE SMOOTH",
"359 553 OFFCURVE",
"440 585 OFFCURVE",
"439 599 CURVE SMOOTH",
"437 622 OFFCURVE",
"431 647 OFFCURVE",
"424 662 CURVE SMOOTH",
"414 684 OFFCURVE",
"374 710 OFFCURVE",
"324 710 CURVE SMOOTH",
"219 710 OFFCURVE",
"120 688 OFFCURVE",
"88 656 CURVE SMOOTH",
"70 638 OFFCURVE",
"125 502 OFFCURVE",
"204 535 CURVE"
);
},
{
closed = 1;
nodes = (
"364 420 OFFCURVE",
"422 452 OFFCURVE",
"434 465 CURVE SMOOTH",
"440 472 OFFCURVE",
"442 497 OFFCURVE",
"442 533 CURVE SMOOTH",
"442 554 OFFCURVE",
"440 585 OFFCURVE",
"439 599 CURVE SMOOTH",
"437 622 OFFCURVE",
"389 631 OFFCURVE",
"361 631 CURVE SMOOTH",
"333 631 OFFCURVE",
"297 613 OFFCURVE",
"294 592 CURVE SMOOTH",
"288 550 OFFCURVE",
"286 531 OFFCURVE",
"286 493 CURVE SMOOTH",
"286 472 OFFCURVE",
"288 455 OFFCURVE",
"289 444 CURVE SMOOTH",
"290 436 OFFCURVE",
"308 420 OFFCURVE",
"336 420 CURVE SMOOTH"
);
},
{
closed = 1;
nodes = (
"103 24 OFFCURVE",
"261 36 OFFCURVE",
"232 107 CURVE SMOOTH",
"209 163 OFFCURVE",
"195 284 OFFCURVE",
"195 364 CURVE SMOOTH",
"195 424 OFFCURVE",
"205 538 OFFCURVE",
"218 581 CURVE SMOOTH",
"224 601 OFFCURVE",
"232 614 OFFCURVE",
"232 635 CURVE SMOOTH",
"232 663 OFFCURVE",
"210 677 OFFCURVE",
"169 677 CURVE SMOOTH",
"139 677 OFFCURVE",
"100 668 OFFCURVE",
"88 656 CURVE SMOOTH",
"70 638 OFFCURVE",
"30 513 OFFCURVE",
"30 364 CURVE SMOOTH",
"30 195 OFFCURVE",
"53 70 OFFCURVE",
"78 47 CURVE SMOOTH"
);
}
);
width = 498;
},
{
anchors = (
{
name = bottom;
position = "{249, 0}";
},
{
name = top;
position = "{249, 700}";
}
);
layerId = "6C5F8957-356A-4AA4-B78F-9BBB75A580E3";
paths = (
{
closed = 1;
nodes = (
"96 15 OFFCURVE",
"246 36 OFFCURVE",
"217 107 CURVE SMOOTH",
"194 163 OFFCURVE",
"190 284 OFFCURVE",
"190 364 CURVE",
"190 424 OFFCURVE",
"200 538 OFFCURVE",
"213 581 CURVE SMOOTH",
"219 601 OFFCURVE",
"227 614 OFFCURVE",
"227 635 CURVE SMOOTH",
"227 663 OFFCURVE",
"205 677 OFFCURVE",
"164 677 CURVE SMOOTH",
"134 677 OFFCURVE",
"91 666 OFFCURVE",
"78 656 CURVE SMOOTH",
"49 631 OFFCURVE",
"25 504 OFFCURVE",
"25 338 CURVE SMOOTH",
"25 187 OFFCURVE",
"43 61 OFFCURVE",
"70 37 CURVE SMOOTH"
);
},
{
closed = 1;
nodes = (
"299 -20 OFFCURVE",
"388 21 OFFCURVE",
"405 44 CURVE SMOOTH",
"422 67 OFFCURVE",
"430 141 OFFCURVE",
"430 194 CURVE",
"368 145 LINE",
"328 133 OFFCURVE",
"282 125 OFFCURVE",
"253 125 CURVE SMOOTH",
"220 125 OFFCURVE",
"176 148 OFFCURVE",
"144 167 CURVE",
"70 37 LINE",
"95 14 OFFCURVE",
"174 -20 OFFCURVE",
"236 -20 CURVE SMOOTH"
);
},
{
closed = 1;
nodes = (
"384 101 LINE SMOOTH",
"405 101 OFFCURVE",
"433 148 OFFCURVE",
"433 194 CURVE SMOOTH",
"433 212 OFFCURVE",
"425 232 OFFCURVE",
"412 246 CURVE SMOOTH",
"391 268 OFFCURVE",
"362 283 OFFCURVE",
"338 283 CURVE SMOOTH",
"315 283 OFFCURVE",
"277 272 OFFCURVE",
"281 254 CURVE SMOOTH",
"285 238 OFFCURVE",
"287 204 OFFCURVE",
"287 171 CURVE SMOOTH",
"287 144 OFFCURVE",
"286 118 OFFCURVE",
"282 101 CURVE"
);
},
{
closed = 1;
nodes = (
"415 228 OFFCURVE",
"463 249 OFFCURVE",
"463 280 CURVE SMOOTH",
"463 328 OFFCURVE",
"454 364 OFFCURVE",
"443 372 CURVE SMOOTH",
"433 379 OFFCURVE",
"399 383 OFFCURVE",
"357 383 CURVE SMOOTH",
"308 383 OFFCURVE",
"264 377 OFFCURVE",
"252 366 CURVE SMOOTH",
"236 352 OFFCURVE",
"227 319 OFFCURVE",
"227 272 CURVE SMOOTH",
"227 260 OFFCURVE",
"231 248 OFFCURVE",
"238 243 CURVE SMOOTH",
"250 235 OFFCURVE",
"283 229 OFFCURVE",
"336 228 CURVE SMOOTH"
);
},
{
closed = 1;
nodes = (
"221 558 OFFCURVE",
"249 563 OFFCURVE",
"302 563 CURVE SMOOTH",
"348 563 OFFCURVE",
"429 585 OFFCURVE",
"428 599 CURVE SMOOTH",
"426 622 OFFCURVE",
"420 647 OFFCURVE",
"413 662 CURVE SMOOTH",
"403 684 OFFCURVE",
"363 710 OFFCURVE",
"313 710 CURVE SMOOTH",
"224 710 OFFCURVE",
"99 677 OFFCURVE",
"78 656 CURVE SMOOTH",
"60 638 OFFCURVE",
"115 512 OFFCURVE",
"194 545 CURVE"
);
},
{
closed = 1;
nodes = (
"352 430 OFFCURVE",
"410 462 OFFCURVE",
"422 475 CURVE SMOOTH",
"427 481 OFFCURVE",
"430 512 OFFCURVE",
"430 553 CURVE SMOOTH",
"430 564 OFFCURVE",
"429 582 OFFCURVE",
"428 599 CURVE SMOOTH",
"426 622 OFFCURVE",
"377 631 OFFCURVE",
"349 631 CURVE SMOOTH",
"321 631 OFFCURVE",
"295 613 OFFCURVE",
"291 592 CURVE SMOOTH",
"286 564 OFFCURVE",
"284 534 OFFCURVE",
"284 505 CURVE SMOOTH",
"284 488 OFFCURVE",
"285 471 OFFCURVE",
"287 454 CURVE SMOOTH",
"289 440 OFFCURVE",
"304 430 OFFCURVE",
"324 430 CURVE SMOOTH"
);
}
);
width = 473;
},
{
anchors = (
{
name = bottom;
position = "{254, 0}";
},
{
name = top;
position = "{254, 700}";
}
);
associatedMasterId = "6C5F8957-356A-4AA4-B78F-9BBB75A580E3";
layerId = "BF59C830-6BCD-4F12-805F-3C4996E427A9";
name = "Jul 20 20, 14:10";
paths = (
{
closed = 1;
nodes = (
"322 -16 OFFCURVE",
"393 21 OFFCURVE",
"410 44 CURVE SMOOTH",
"427 67 OFFCURVE",
"448 148 OFFCURVE",
"448 194 CURVE",
"378 157 LINE",
"348 150 OFFCURVE",
"310 137 OFFCURVE",
"273 137 CURVE SMOOTH",
"229 137 OFFCURVE",
"219 153 OFFCURVE",
"184 169 CURVE",
"79 47 LINE",
"104 24 OFFCURVE",
"172 -16 OFFCURVE",
"244 -16 CURVE SMOOTH"
);
},
{
closed = 1;
nodes = (
"389 101 LINE SMOOTH",
"410 101 OFFCURVE",
"448 148 OFFCURVE",
"448 194 CURVE SMOOTH",
"448 212 OFFCURVE",
"440 232 OFFCURVE",
"427 246 CURVE SMOOTH",
"406 268 OFFCURVE",
"377 283 OFFCURVE",
"353 283 CURVE SMOOTH",
"330 283 OFFCURVE",
"292 272 OFFCURVE",
"296 254 CURVE SMOOTH",
"299 241 OFFCURVE",
"301 219 OFFCURVE",
"301 202 CURVE SMOOTH",
"301 172 OFFCURVE",
"297 145 OFFCURVE",
"287 101 CURVE"
);
},
{
closed = 1;
nodes = (
"478 249 OFFCURVE",
"478 280 CURVE SMOOTH",
"478 328 OFFCURVE",
"469 364 OFFCURVE",
"458 372 CURVE SMOOTH",
"448 379 OFFCURVE",
"414 383 OFFCURVE",
"372 383 CURVE SMOOTH",
"323 383 OFFCURVE",
"279 377 OFFCURVE",
"267 366 CURVE SMOOTH",
"251 352 OFFCURVE",
"242 319 OFFCURVE",
"242 272 CURVE SMOOTH",
"242 260 OFFCURVE",
"246 248 OFFCURVE",
"253 243 CURVE SMOOTH",
"265 235 OFFCURVE",
"298 229 OFFCURVE",
"351 228 CURVE SMOOTH",
"430 228 OFFCURVE"
);
},
{
closed = 1;
nodes = (
"226 546 OFFCURVE",
"264 553 OFFCURVE",
"313 553 CURVE SMOOTH",
"359 553 OFFCURVE",
"440 585 OFFCURVE",
"439 599 CURVE SMOOTH",
"437 622 OFFCURVE",
"431 647 OFFCURVE",
"424 662 CURVE SMOOTH",
"414 684 OFFCURVE",
"374 710 OFFCURVE",
"324 710 CURVE SMOOTH",
"219 710 OFFCURVE",
"120 688 OFFCURVE",
"88 656 CURVE SMOOTH",
"70 638 OFFCURVE",
"125 502 OFFCURVE",
"204 535 CURVE"
);
},
{
closed = 1;
nodes = (
"364 420 OFFCURVE",
"422 452 OFFCURVE",
"434 465 CURVE SMOOTH",
"440 472 OFFCURVE",
"442 497 OFFCURVE",
"442 533 CURVE SMOOTH",
"442 554 OFFCURVE",
"440 585 OFFCURVE",
"439 599 CURVE SMOOTH",
"437 622 OFFCURVE",
"389 631 OFFCURVE",
"361 631 CURVE SMOOTH",
"333 631 OFFCURVE",
"297 613 OFFCURVE",
"294 592 CURVE SMOOTH",
"288 550 OFFCURVE",
"286 531 OFFCURVE",
"286 493 CURVE SMOOTH",
"286 472 OFFCURVE",
"288 455 OFFCURVE",
"289 444 CURVE SMOOTH",
"290 436 OFFCURVE",
"308 420 OFFCURVE",
"336 420 CURVE SMOOTH"
);
},
{
closed = 1;
nodes = (
"103 24 OFFCURVE",
"261 36 OFFCURVE",
"232 107 CURVE SMOOTH",
"209 163 OFFCURVE",
"195 284 OFFCURVE",
"195 364 CURVE SMOOTH",
"195 424 OFFCURVE",
"205 538 OFFCURVE",
"218 581 CURVE SMOOTH",
"224 601 OFFCURVE",
"232 614 OFFCURVE",
"232 635 CURVE SMOOTH",
"232 663 OFFCURVE",
"210 677 OFFCURVE",
"169 677 CURVE SMOOTH",
"139 677 OFFCURVE",
"100 668 OFFCURVE",
"88 656 CURVE SMOOTH",
"70 638 OFFCURVE",
"30 513 OFFCURVE",
"30 364 CURVE SMOOTH",
"30 195 OFFCURVE",
"53 70 OFFCURVE",
"78 47 CURVE SMOOTH"
);
}
);
width = 493;
}
);
leftKerningGroup = CG;
leftMetricsKey = C;
rightKerningGroup = G;
unicode = 0047;
},
{
glyphname = H;
lastChange = "2020-07-21 07:21:15 +0000";
layers = (
{
anchors = (
{
name = bottom;
position = "{245, 0}";
},
{
name = center;
position = "{245, 350}";
},
{
name = top;
position = "{250, 700}";
},
{
name = topleft;
position = "{5, 700}";
}
);
components = (
{
name = _part.bar;
transform = "{1, 0, 0, 1, -5, 0}";
},
{
name = _part.bar;
transform = "{1, 0, 0, 1, 241, 0}";
}
);
layerId = "6C5F8957-356A-4AA4-B78F-9BBB75A580E3";
paths = (
{
closed = 1;
nodes = (
"196 279 OFFCURVE",
"260 285 OFFCURVE",
"347 307 CURVE",
"347 427 LINE",
"333 430 OFFCURVE",
"309 434 OFFCURVE",
"274 434 CURVE SMOOTH",
"221 434 OFFCURVE",
"190 427 OFFCURVE",
"130 411 CURVE",
"130 279 LINE"
);
}
);
width = 480;
},
{
associatedMasterId = "6C5F8957-356A-4AA4-B78F-9BBB75A580E3";
backgroundImage = {
crop = "{{0, 0}, {91, 129.12}}";
imagePath = "../../Desktop/PERSONAL TYPEFACES/MANOSQUE/letterscans/HCAP.jpg";
locked = "1";
transform = "{6.28417, 0, 0, 6.28417, 0, -81}";
};
components = (
{
name = _part.bar;
},
{
name = _part.bar;
transform = "{1, 0, 0, 1, 310, 0}";
}
);
layerId = "9B56483E-1606-455A-8ADE-E35800A67A57";
name = "Jul 27 19, 18:29";
paths = (
{
closed = 1;
nodes = (
"251 269 OFFCURVE",
"315 275 OFFCURVE",
"402 297 CURVE",
"402 432 LINE",
"388 435 OFFCURVE",
"364 439 OFFCURVE",
"329 439 CURVE SMOOTH",
"276 439 OFFCURVE",
"245 432 OFFCURVE",
"185 416 CURVE",
"185 269 LINE"
);
}
);
width = 574;
}
);
leftKerningGroup = H;
rightKerningGroup = H;
unicode = 0048;
},
{
glyphname = Hbar;
lastChange = "2020-07-20 12:13:52 +0000";
layers = (
{
anchors = (
{
name = bottom;
position = "{262, 0}";
},
{
name = center;
position = "{262, 350}";
},
{
name = top;
position = "{262, 700}";
},
{
name = topleft;
position = "{10, 700}";
}
);
components = (
{
name = _part.bar;
transform = "{1, 0, 0, 1, 20, 0}";
},
{
name = _part.bar;
transform = "{1, 0, 0, 1, 286, 0}";
}
);
layerId = "6C5F8957-356A-4AA4-B78F-9BBB75A580E3";
paths = (
{
closed = 1;
nodes = (
"380 483 OFFCURVE",
"479 489 OFFCURVE",
"504 497 CURVE SMOOTH",
"524 504 OFFCURVE",
"537 524 OFFCURVE",
"537 548 CURVE SMOOTH",
"537 568 OFFCURVE",
"523 586 OFFCURVE",
"501 594 CURVE SMOOTH",
"485 599 OFFCURVE",
"387 603 OFFCURVE",
"256 603 CURVE SMOOTH",
"137 603 OFFCURVE",
"47 599 OFFCURVE",
"33 594 CURVE SMOOTH",
"16 588 OFFCURVE",
"5 570 OFFCURVE",
"5 548 CURVE SMOOTH",
"5 527 OFFCURVE",
"16 509 OFFCURVE",
"33 503 CURVE SMOOTH",
"66 491 OFFCURVE",
"155 483 OFFCURVE",
"256 483 CURVE SMOOTH"
);
},
{
closed = 1;
nodes = (
"221 209 OFFCURVE",
"285 215 OFFCURVE",
"372 237 CURVE",
"372 357 LINE",
"358 360 OFFCURVE",
"334 364 OFFCURVE",
"299 364 CURVE SMOOTH",
"246 364 OFFCURVE",
"215 357 OFFCURVE",
"155 341 CURVE",
"155 209 LINE"
);
}
);
width = 542;
}
);
unicode = 0126;
},
{
glyphname = J;
lastChange = "2020-07-21 14:40:15 +0000";
layers = (
{
anchors = (
{
name = bottom;
position = "{243, 0}";
},
{
name = top;
position = "{338, 700}";
}
);
guideLines = (
{
position = "{122, 413}";
}
);
layerId = "6C5F8957-356A-4AA4-B78F-9BBB75A580E3";
paths = (
{
closed = 1;
nodes = (
"295 -20 OFFCURVE",
"401 12 OFFCURVE",
"413 50 CURVE SMOOTH",
"419 69 OFFCURVE",
"420 161 OFFCURVE",
"374 161 CURVE",
"336 141 OFFCURVE",
"302 132 OFFCURVE",
"268 133 CURVE SMOOTH",
"207 136 OFFCURVE",
"162 156 OFFCURVE",
"147 170 CURVE",
"170 112 LINE",
"180 160 OFFCURVE",
"182 326 OFFCURVE",
"182 350 CURVE SMOOTH",
"182 364 OFFCURVE",
"181 377 OFFCURVE",
"178 390 CURVE SMOOTH",
"174 406 OFFCURVE",
"148 413 OFFCURVE",
"113 413 CURVE SMOOTH",
"90 413 OFFCURVE",
"39 400 OFFCURVE",
"36 382 CURVE SMOOTH",
"31 345 OFFCURVE",
"26 272 OFFCURVE",
"26 204 CURVE SMOOTH",
"26 137 OFFCURVE",
"31 77 OFFCURVE",
"36 65 CURVE SMOOTH",
"44 49 OFFCURVE",
"155 -20 OFFCURVE",
"230 -20 CURVE SMOOTH"
);
},
{
closed = 1;
nodes = (
"423 80 OFFCURVE",
"432 172 OFFCURVE",
"432 305 CURVE SMOOTH",
"432 401 OFFCURVE",
"426 473 OFFCURVE",
"416 590 CURVE SMOOTH",
"414 617 OFFCURVE",
"394 631 OFFCURVE",
"353 631 CURVE SMOOTH",
"313 631 OFFCURVE",
"281 586 OFFCURVE",
"276 578 CURVE SMOOTH",
"271 570 OFFCURVE",
"264 456 OFFCURVE",
"264 364 CURVE SMOOTH",
"264 225 OFFCURVE",
"265 102 OFFCURVE",
"274 71 CURVE SMOOTH",
"280 50 OFFCURVE",
"401 12 OFFCURVE",
"413 50 CURVE SMOOTH"
);
},
{
closed = 1;
nodes = (
"318 542 OFFCURVE",
"400 540 OFFCURVE",
"432 552 CURVE SMOOTH",
"455 561 OFFCURVE",
"460 596 OFFCURVE",
"463 607 CURVE SMOOTH",
"470 635 OFFCURVE",
"475 663 OFFCURVE",
"475 679 CURVE SMOOTH",
"475 687 OFFCURVE",
"471 696 OFFCURVE",
"464 701 CURVE SMOOTH",
"456 707 OFFCURVE",
"425 711 OFFCURVE",
"386 711 CURVE SMOOTH",
"198 711 OFFCURVE",
"106 704 OFFCURVE",
"94 694 CURVE SMOOTH",
"87 688 OFFCURVE",
"83 660 OFFCURVE",
"83 631 CURVE SMOOTH",
"83 599 OFFCURVE",
"88 566 OFFCURVE",
"100 560 CURVE",
"116 553 OFFCURVE",
"198 542 OFFCURVE",
"295 542 CURVE SMOOTH"
);
}
);
width = 480;
},
{
associatedMasterId = "6C5F8957-356A-4AA4-B78F-9BBB75A580E3";
backgroundImage = {
crop = "{{0, 0}, {87.84, 131}}";
imagePath = "../../Desktop/PERSONAL TYPEFACES/MANOSQUE/letterscans/JCAP.jpg";
locked = "1";
transform = "{6.16513, 0, 0, 6.16513, 16, -67}";
};
layerId = "0D36D468-581B-4B75-9707-F4488C8FDAAF";
name = "Jul 27 19, 16:53";
paths = (
{
closed = 1;
nodes = (
"95 272 OFFCURVE",
"50 259 OFFCURVE",
"39 241 CURVE SMOOTH",
"27 221 OFFCURVE",
"25 187 OFFCURVE",
"25 151 CURVE SMOOTH",
"25 128 OFFCURVE",
"33 74 OFFCURVE",
"39 65 CURVE SMOOTH",
"50 50 OFFCURVE",
"180 -20 OFFCURVE",
"245 -20 CURVE SMOOTH",
"310 -20 OFFCURVE",
"453 12 OFFCURVE",
"462 50 CURVE SMOOTH",
"471 88 OFFCURVE",
"469 161 OFFCURVE",
"419 161 CURVE",
"371 141 OFFCURVE",
"377 153 OFFCURVE",
"316 143 CURVE SMOOTH",
"260 134 OFFCURVE",
"195 153 OFFCURVE",
"185 168 CURVE",
"187 184 OFFCURVE",
"187 206 OFFCURVE",
"187 209 CURVE SMOOTH",
"187 223 OFFCURVE",
"186 236 OFFCURVE",
"183 249 CURVE SMOOTH",
"179 265 OFFCURVE",
"153 272 OFFCURVE",
"118 272 CURVE SMOOTH"
);
},
{
closed = 1;
nodes = (
"325 50 OFFCURVE",
"452 12 OFFCURVE",
"462 50 CURVE SMOOTH",
"464 56 OFFCURVE",
"481 172 OFFCURVE",
"481 305 CURVE SMOOTH",
"481 401 OFFCURVE",
"475 473 OFFCURVE",
"465 590 CURVE SMOOTH",
"463 617 OFFCURVE",
"443 631 OFFCURVE",
"402 631 CURVE SMOOTH",
"362 631 OFFCURVE",
"326 586 OFFCURVE",
"321 578 CURVE SMOOTH",
"316 570 OFFCURVE",
"309 456 OFFCURVE",
"309 364 CURVE SMOOTH",
"309 225 OFFCURVE",
"310 102 OFFCURVE",
"319 71 CURVE SMOOTH"
);
},
{
closed = 1;
nodes = (
"210 687 OFFCURVE",
"209 663 OFFCURVE",
"209 618 CURVE SMOOTH",
"209 593 OFFCURVE",
"214 566 OFFCURVE",
"225 560 CURVE",
"241 553 OFFCURVE",
"347 542 OFFCURVE",
"370 542 CURVE SMOOTH",
"393 542 OFFCURVE",
"409 543 OFFCURVE",
"442 552 CURVE SMOOTH",
"475 561 OFFCURVE",
"485 592 OFFCURVE",
"493 607 CURVE SMOOTH",
"501 622 OFFCURVE",
"505 671 OFFCURVE",
"505 679 CURVE SMOOTH",
"505 687 OFFCURVE",
"503 694 OFFCURVE",
"494 701 CURVE SMOOTH",
"485 708 OFFCURVE",
"466 711 OFFCURVE",
"441 711 CURVE SMOOTH",
"308 711 OFFCURVE",
"231 704 OFFCURVE",
"219 694 CURVE SMOOTH"
);
}
);
width = 550;
}
);
leftKerningGroup = J;
rightKerningGroup = J;
unicode = 004A;
},
{
glyphname = K;
lastChange = "2020-07-20 14:47:27 +0000";
layers = (
{
anchors = (
{
name = bottom;
position = "{250, 0}";
},
{
name = top;
position = "{250, 700}";
}
);
components = (
{
name = _part.bar;
transform = "{1, 0, 0, 1, -5, 0}";
}
);
layerId = "6C5F8957-356A-4AA4-B78F-9BBB75A580E3";
paths = (
{
closed = 1;
nodes = (
"217 254 LINE",
"260 288 OFFCURVE",
"319 338 OFFCURVE",
"370 424 CURVE SMOOTH",
"410 492 OFFCURVE",
"467 595 OFFCURVE",
"467 628 CURVE SMOOTH",
"467 653 OFFCURVE",
"402 710 OFFCURVE",
"374 710 CURVE SMOOTH",
"358 710 OFFCURVE",
"327 700 OFFCURVE",
"319 688 CURVE SMOOTH",
"294 650 OFFCURVE",
"249 531 OFFCURVE",
"206 391 CURVE",
"183 391 LINE",
"183 254 LINE"
);
},
{
closed = 1;
nodes = (
"389 -10 OFFCURVE",
"414 -2 OFFCURVE",
"425 7 CURVE SMOOTH",
"457 34 OFFCURVE",
"479 78 OFFCURVE",
"479 119 CURVE SMOOTH",
"479 126 OFFCURVE",
"474 136 OFFCURVE",
"467 140 CURVE SMOOTH",
"394 180 OFFCURVE",
"361 226 OFFCURVE",
"300 370 CURVE",
"252 370 LINE SMOOTH",
"231 370 OFFCURVE",
"217 283 OFFCURVE",
"217 254 CURVE SMOOTH",
"217 189 OFFCURVE",
"312 -10 OFFCURVE",
"373 -10 CURVE SMOOTH"
);
}
);
width = 484;
},
{
associatedMasterId = "6C5F8957-356A-4AA4-B78F-9BBB75A580E3";
backgroundImage = {
crop = "{{0, 0}, {86.88, 127}}";
imagePath = "../../Desktop/PERSONAL TYPEFACES/MANOSQUE/letterscans/KCAP.jpg";
locked = "1";
transform = "{6.25068, 0, 0, 6.25068, 20, -62}";
};
components = (
{
name = _part.bar;
}
);
layerId = "455FE82C-F5D5-44B1-B654-50B06F145E4E";
name = "Jul 27 19, 17:58";
paths = (
{
closed = 1;
nodes = (
"303 453 LINE",
"258 440 OFFCURVE",
"207 417 OFFCURVE",
"164 386 CURVE",
"164 250 LINE",
"200 250 OFFCURVE",
"354 297 OFFCURVE",
"399 346 CURVE"
);
},
{
closed = 1;
nodes = (
"439 389 OFFCURVE",
"514 585 OFFCURVE",
"514 642 CURVE SMOOTH",
"514 678 OFFCURVE",
"471 711 OFFCURVE",
"446 711 CURVE SMOOTH",
"421 711 OFFCURVE",
"358 691 OFFCURVE",
"347 679 CURVE SMOOTH",
"336 667 OFFCURVE",
"312 569 OFFCURVE",
"303 453 CURVE SMOOTH",
"301 426 OFFCURVE",
"354 297 OFFCURVE",
"399 346 CURVE SMOOTH"
);
},
{
closed = 1;
nodes = (
"476 -15 OFFCURVE",
"524 34 OFFCURVE",
"524 54 CURVE SMOOTH",
"524 73 OFFCURVE",
"447 188 OFFCURVE",
"416 232 CURVE SMOOTH",
"385 276 OFFCURVE",
"342 345 OFFCURVE",
"331 345 CURVE SMOOTH",
"320 345 OFFCURVE",
"234 322 OFFCURVE",
"234 302 CURVE SMOOTH",
"234 282 OFFCURVE",
"273 175 OFFCURVE",
"306 113 CURVE SMOOTH",
"334 61 OFFCURVE",
"357 24 OFFCURVE",
"375 10 CURVE SMOOTH",
"393 -4 OFFCURVE",
"426 -15 OFFCURVE",
"446 -15 CURVE"
);
}
);
width = 559;
},
{
associatedMasterId = "6C5F8957-356A-4AA4-B78F-9BBB75A580E3";
backgroundImage = {
crop = "{{0, 0}, {86.88, 127}}";
imagePath = "../../Desktop/PERSONAL TYPEFACES/MANOSQUE/letterscans/KCAP.jpg";
locked = "1";
transform = "{6.25068, 0, 0, 6.25068, 20, -62}";
};
components = (
{
name = _part.bar;
}
);
layerId = "9FEDB855-E75D-430E-A645-2D4E1C02CB0F";
name = "Jul 27 19, 22:03";
paths = (
{
closed = 1;
nodes = (
"293 463 LINE",
"248 450 OFFCURVE",
"197 427 OFFCURVE",
"154 396 CURVE",
"164 250 LINE",
"200 250 OFFCURVE",
"354 297 OFFCURVE",
"399 346 CURVE"
);
},
{
closed = 1;
nodes = (
"439 389 OFFCURVE",
"514 589 OFFCURVE",
"514 646 CURVE SMOOTH",
"514 682 OFFCURVE",
"471 711 OFFCURVE",
"446 711 CURVE SMOOTH",
"410 711 OFFCURVE",
"374 699 OFFCURVE",
"365 681 CURVE SMOOTH",
"337 624 OFFCURVE",
"313 548 OFFCURVE",
"293 463 CURVE SMOOTH",
"286 434 OFFCURVE",
"354 297 OFFCURVE",
"399 346 CURVE SMOOTH"
);
},
{
closed = 1;
nodes = (
"476 -15 OFFCURVE",
"524 34 OFFCURVE",
"524 54 CURVE SMOOTH",
"524 73 OFFCURVE",
"447 188 OFFCURVE",
"416 232 CURVE SMOOTH",
"385 276 OFFCURVE",
"342 345 OFFCURVE",
"331 345 CURVE SMOOTH",
"320 345 OFFCURVE",
"234 322 OFFCURVE",
"234 302 CURVE SMOOTH",
"234 282 OFFCURVE",
"273 175 OFFCURVE",
"306 113 CURVE SMOOTH",
"334 61 OFFCURVE",
"357 24 OFFCURVE",
"375 10 CURVE SMOOTH",
"393 -4 OFFCURVE",
"426 -15 OFFCURVE",
"446 -15 CURVE"
);
}
);
width = 559;
},
{
anchors = (
{
name = bottom;
position = "{280, 0}";
},
{
name = top;
position = "{280, 700}";
}
);
associatedMasterId = "6C5F8957-356A-4AA4-B78F-9BBB75A580E3";
backgroundImage = {
crop = "{{0, 0}, {92.88, 130.08}}";
imagePath = "../../Desktop/PERSONAL TYPEFACES/MANOSQUE/letterscans/KCAP-new.jpg";
locked = "1";
transform = "{6.48729, 0, 0, 6.48729, -20, -80}";
};
components = (
{
name = _part.bar;
}
);
layerId = "B4C285C6-EFD6-4A4E-B8F4-0A4939EC55F4";
name = "Sep 1 19, 18:31";
paths = (
{
closed = 1;
nodes = (
"287 299 LINE SMOOTH",
"269 288 OFFCURVE",
"232 262 OFFCURVE",
"232 233 CURVE SMOOTH",
"232 218 OFFCURVE",
"264 170 OFFCURVE",
"307 103 CURVE SMOOTH",
"348 39 OFFCURVE",
"400 -21 OFFCURVE",
"418 -21 CURVE SMOOTH",
"434 -21 OFFCURVE",
"459 -13 OFFCURVE",
"470 -4 CURVE SMOOTH",
"481 5 OFFCURVE",
"524 75 OFFCURVE",
"524 102 CURVE SMOOTH",
"524 115 OFFCURVE",
"471 161 OFFCURVE",
"428 219 CURVE SMOOTH",
"388 272 OFFCURVE",
"375 290 OFFCURVE",
"355 339 CURVE"
);
},
{
closed = 1;
nodes = (
"343 607 OFFCURVE",
"349 462 OFFCURVE",
"349 500 CURVE SMOOTH",
"349 545 OFFCURVE",
"345 409 OFFCURVE",
"336 372 CURVE SMOOTH",
"328 339 OFFCURVE",
"365 345 OFFCURVE",
"383 345 CURVE",
"413 345 OFFCURVE",
"468 362 OFFCURVE",
"482 384 CURVE SMOOTH",
"496 406 OFFCURVE",
"508 464 OFFCURVE",
"508 516 CURVE SMOOTH",
"508 568 OFFCURVE",
"495 644 OFFCURVE",
"481 665 CURVE SMOOTH",
"466 688 OFFCURVE",
"449 703 OFFCURVE",
"405 703 CURVE",
"371 703 OFFCURVE",
"343 659 OFFCURVE",
"343 641 CURVE SMOOTH"
);
},
{
closed = 1;
nodes = (
"161 163 OFFCURVE",
"291 210 OFFCURVE",
"331 240 CURVE SMOOTH",
"391 285 OFFCURVE",
"472 369 OFFCURVE",
"482 384 CURVE",
"440 430 LINE",
"358 415 OFFCURVE",
"220 355 OFFCURVE",
"178 308 CURVE",
"178 159 LINE"
);
}
);
width = 559;
},
{
anchors = (
{
name = bottom;
position = "{280, 0}";
},
{
name = top;
position = "{280, 700}";
}
);
associatedMasterId = "6C5F8957-356A-4AA4-B78F-9BBB75A580E3";
components = (
{
name = _part.bar;
}
);
layerId = "29374408-B2FD-442F-A273-E7325CD26051";
name = "Mar 29 20, 13:40";
paths = (
{
closed = 1;
nodes = (
"217 161 OFFCURVE",
"522 560 OFFCURVE",
"522 615 CURVE SMOOTH",
"522 645 OFFCURVE",
"461 713 OFFCURVE",
"449 713 CURVE SMOOTH",
"432 713 OFFCURVE",
"394 709 OFFCURVE",
"376 694 CURVE SMOOTH",
"354 675 OFFCURVE",
"294 559 OFFCURVE",
"252 482 CURVE SMOOTH",
"205 396 OFFCURVE",
"157 301 OFFCURVE",
"114 217 CURVE",
"194 161 LINE"
);
},
{
closed = 1;
nodes = (
"434 -21 OFFCURVE",
"459 -13 OFFCURVE",
"470 -4 CURVE SMOOTH",
"481 5 OFFCURVE",
"524 82 OFFCURVE",
"524 108 CURVE SMOOTH",
"524 115 OFFCURVE",
"520 124 OFFCURVE",
"512 129 CURVE SMOOTH",
"446 170 OFFCURVE",
"346 248 OFFCURVE",
"295 369 CURVE",
"277 369 LINE SMOOTH",
"256 369 OFFCURVE",
"222 262 OFFCURVE",
"222 233 CURVE SMOOTH",
"222 218 OFFCURVE",
"254 170 OFFCURVE",
"297 103 CURVE SMOOTH",
"338 39 OFFCURVE",
"400 -21 OFFCURVE",
"418 -21 CURVE SMOOTH"
);
}
);
width = 549;
},
{
anchors = (
{
name = bottom;
position = "{270, 0}";
},
{
name = top;
position = "{270, 700}";
}
);
associatedMasterId = "6C5F8957-356A-4AA4-B78F-9BBB75A580E3";
components = (
{
name = _part.bar;
}
);
layerId = "6E9479A6-3436-41D4-8362-D3A90CA08B72";
name = "Apr 2 20, 15:07";
paths = (
{
closed = 1;
nodes = (
"276 257 OFFCURVE",
"502 558 OFFCURVE",
"502 615 CURVE SMOOTH",
"502 645 OFFCURVE",
"461 713 OFFCURVE",
"429 713 CURVE SMOOTH",
"402 713 OFFCURVE",
"374 709 OFFCURVE",
"356 694 CURVE SMOOTH",
"321 665 OFFCURVE",
"155 317 OFFCURVE",
"114 217 CURVE",
"194 161 LINE"
);
},
{
closed = 1;
nodes = (
"434 -10 OFFCURVE",
"459 -2 OFFCURVE",
"470 7 CURVE SMOOTH",
"481 16 OFFCURVE",
"524 93 OFFCURVE",
"524 119 CURVE SMOOTH",
"524 126 OFFCURVE",
"519 137 OFFCURVE",
"512 140 CURVE SMOOTH",
"409 178 OFFCURVE",
"333 256 OFFCURVE",
"285 370 CURVE",
"267 370 LINE SMOOTH",
"246 370 OFFCURVE",
"212 263 OFFCURVE",
"212 234 CURVE SMOOTH",
"212 215 OFFCURVE",
"240 157 OFFCURVE",
"277 109 CURVE SMOOTH",
"325 45 OFFCURVE",
"388 -10 OFFCURVE",
"418 -10 CURVE SMOOTH"
);
}
);
width = 529;
},
{
anchors = (
{
name = bottom;
position = "{260, 0}";
},
{
name = top;
position = "{260, 700}";
}
);
associatedMasterId = "6C5F8957-356A-4AA4-B78F-9BBB75A580E3";
components = (
{
name = _part.bar;
transform = "{1, 0, 0, 1, -10, 0}";
}
);
layerId = "AF231DA6-9677-44C5-B0D5-ED065D1BE29A";
name = "Apr 6 20, 22:51";
paths = (
{
closed = 1;
nodes = (
"266 257 OFFCURVE",
"472 558 OFFCURVE",
"472 615 CURVE SMOOTH",
"472 645 OFFCURVE",
"431 713 OFFCURVE",
"399 713 CURVE SMOOTH",
"372 713 OFFCURVE",
"344 709 OFFCURVE",
"326 694 CURVE SMOOTH",
"291 665 OFFCURVE",
"155 317 OFFCURVE",
"114 217 CURVE",
"184 161 LINE"
);
},
{
closed = 1;
nodes = (
"404 -10 OFFCURVE",
"429 -2 OFFCURVE",
"440 7 CURVE SMOOTH",
"451 16 OFFCURVE",
"494 93 OFFCURVE",
"494 119 CURVE SMOOTH",
"494 126 OFFCURVE",
"489 137 OFFCURVE",
"482 140 CURVE SMOOTH",
"381 183 OFFCURVE",
"323 256 OFFCURVE",
"275 370 CURVE",
"257 370 LINE SMOOTH",
"236 370 OFFCURVE",
"202 263 OFFCURVE",
"202 234 CURVE SMOOTH",
"202 212 OFFCURVE",
"227 149 OFFCURVE",
"264 97 CURVE SMOOTH",
"306 38 OFFCURVE",
"363 -10 OFFCURVE",
"388 -10 CURVE SMOOTH"
);
}
);
width = 504;
},
{
anchors = (
{
name = bottom;
position = "{265, 0}";
},
{
name = top;
position = "{265, 700}";
}
);
associatedMasterId = "6C5F8957-356A-4AA4-B78F-9BBB75A580E3";
components = (
{
name = _part.bar;
transform = "{1, 0, 0, 1, -5, 0}";
}
);
layerId = "615E9EBC-2FBA-47E4-85F0-6B8A6E426959";
name = "Jul 20 20, 15:46";
paths = (
{
closed = 1;
nodes = (
"217 254 LINE",
"260 288 OFFCURVE",
"319 348 OFFCURVE",
"370 434 CURVE SMOOTH",
"410 502 OFFCURVE",
"457 595 OFFCURVE",
"457 628 CURVE SMOOTH",
"457 663 OFFCURVE",
"402 710 OFFCURVE",
"374 710 CURVE SMOOTH",
"348 710 OFFCURVE",
"322 694 OFFCURVE",
"311 671 CURVE SMOOTH",
"303 654 OFFCURVE",
"259 563 OFFCURVE",
"211 407 CURVE SMOOTH",
"202 379 OFFCURVE",
"194 349 OFFCURVE",
"185 317 CURVE",
"185 254 LINE"
);
},
{
closed = 1;
nodes = (
"389 -10 OFFCURVE",
"414 -2 OFFCURVE",
"425 7 CURVE SMOOTH",
"457 34 OFFCURVE",
"479 78 OFFCURVE",
"479 119 CURVE SMOOTH",
"479 126 OFFCURVE",
"474 136 OFFCURVE",
"467 140 CURVE SMOOTH",
"394 180 OFFCURVE",
"361 226 OFFCURVE",
"300 370 CURVE",
"252 370 LINE SMOOTH",
"231 370 OFFCURVE",
"217 283 OFFCURVE",
"217 254 CURVE SMOOTH",
"217 189 OFFCURVE",
"312 -10 OFFCURVE",
"373 -10 CURVE SMOOTH"
);
}
);
width = 484;
}
);
leftKerningGroup = H;
leftMetricsKey = H;
rightKerningGroup = K;
unicode = 004B;
},
{
glyphname = L;
lastChange = "2020-07-21 06:35:37 +0000";
layers = (
{
anchors = (
{
name = bottom;
position = "{210, 0}";
},
{
name = center;
position = "{137, 350}";
},
{
name = top;
position = "{139, 720}";
},
{
name = topright;
position = "{301, 700}";
}
);
layerId = "6C5F8957-356A-4AA4-B78F-9BBB75A580E3";
paths = (
{
closed = 1;
nodes = (
"134 -4 OFFCURVE",
"189 7 OFFCURVE",
"197 39 CURVE SMOOTH",
"204 67 OFFCURVE",
"209 295 OFFCURVE",
"209 474 CURVE SMOOTH",
"209 526 OFFCURVE",
"206 698 OFFCURVE",
"200 704 CURVE SMOOTH",
"189 715 OFFCURVE",
"165 720 OFFCURVE",
"139 720 CURVE SMOOTH",
"110 720 OFFCURVE",
"78 713 OFFCURVE",
"59 699 CURVE SMOOTH",
"40 685 OFFCURVE",
"30 324 OFFCURVE",
"30 203 CURVE SMOOTH",
"30 128 OFFCURVE",
"31 59 OFFCURVE",
"38 29 CURVE SMOOTH",
"41 15 OFFCURVE",
"54 6 OFFCURVE",
"70 0 CURVE SMOOTH",
"80 -4 OFFCURVE",
"91 -4 OFFCURVE",
"102 -4 CURVE SMOOTH"
);
},
{
closed = 1;
nodes = (
"258 -20 OFFCURVE",
"302 -12 OFFCURVE",
"323 0 CURVE SMOOTH",
"342 11 OFFCURVE",
"345 57 OFFCURVE",
"345 79 CURVE SMOOTH",
"345 101 OFFCURVE",
"325 142 OFFCURVE",
"301 142 CURVE SMOOTH",
"248 142 OFFCURVE",
"186 131 OFFCURVE",
"145 114 CURVE SMOOTH",
"107 98 OFFCURVE",
"54 6 OFFCURVE",
"70 0 CURVE SMOOTH",
"100 -12 OFFCURVE",
"156 -20 OFFCURVE",
"211 -20 CURVE SMOOTH"
);
}
);
width = 355;
},
{
anchors = (
{
name = bottom;
position = "{221, 0}";
},
{
name = center;
position = "{137, 350}";
},
{
name = top;
position = "{137, 700}";
},
{
name = topright;
position = "{430, 700}";
}
);
associatedMasterId = "6C5F8957-356A-4AA4-B78F-9BBB75A580E3";
layerId = "12C0A68D-0DF1-4DD5-999F-51F24A67AC57";
name = "Mar 31 20, 20:47";
paths = (
{
closed = 1;
nodes = (
"149 4 OFFCURVE",
"194 15 OFFCURVE",
"202 47 CURVE SMOOTH",
"209 75 OFFCURVE",
"214 295 OFFCURVE",
"214 474 CURVE SMOOTH",
"214 526 OFFCURVE",
"211 694 OFFCURVE",
"205 700 CURVE SMOOTH",
"193 712 OFFCURVE",
"164 716 OFFCURVE",
"137 716 CURVE SMOOTH",
"114 716 OFFCURVE",
"88 709 OFFCURVE",
"69 695 CURVE SMOOTH",
"50 681 OFFCURVE",
"30 332 OFFCURVE",
"30 211 CURVE SMOOTH",
"30 136 OFFCURVE",
"31 67 OFFCURVE",
"38 37 CURVE SMOOTH",
"41 24 OFFCURVE",
"65 15 OFFCURVE",
"82 10 CURVE SMOOTH",
"95 6 OFFCURVE",
"109 4 OFFCURVE",
"122 4 CURVE SMOOTH"
);
},
{
closed = 1;
nodes = (
"284 -10 OFFCURVE",
"341 -3 OFFCURVE",
"353 4 CURVE SMOOTH",
"372 15 OFFCURVE",
"375 61 OFFCURVE",
"375 83 CURVE SMOOTH",
"375 105 OFFCURVE",
"355 146 OFFCURVE",
"331 146 CURVE SMOOTH",
"224 146 OFFCURVE",
"205 137 OFFCURVE",
"165 127 CURVE SMOOTH",
"125 117 OFFCURVE",
"65 15 OFFCURVE",
"82 10 CURVE SMOOTH",
"111 1 OFFCURVE",
"162 -10 OFFCURVE",
"241 -10 CURVE SMOOTH"
);
}
);
width = 385;
}
);
leftKerningGroup = H;
leftMetricsKey = H;
rightKerningGroup = L;
unicode = 004C;
},
{
glyphname = Lj;
lastChange = "2020-04-13 19:36:46 +0000";
layers = (
{
components = (
{
name = L;
},
{
name = j;
transform = "{1, 0, 0, 1, 385, 0}";
}
);
layerId = "6C5F8957-356A-4AA4-B78F-9BBB75A580E3";
paths = (
{
closed = 1;
nodes = (
"491 -220 OFFCURVE",
"549 -196 OFFCURVE",
"561 -147 CURVE SMOOTH",
"568 -119 OFFCURVE",
"555 -107 OFFCURVE",
"507 -107 CURVE SMOOTH",
"481 -107 OFFCURVE",
"434 -91 OFFCURVE",
"390 -72 CURVE SMOOTH",
"358 -58 OFFCURVE",
"325 -42 OFFCURVE",
"303 -42 CURVE SMOOTH",
"259 -42 OFFCURVE",
"211 -140 OFFCURVE",
"253 -171 CURVE SMOOTH",
"289 -197 OFFCURVE",
"386 -220 OFFCURVE",
"441 -220 CURVE SMOOTH"
);
}
);
width = 595;
}
);
leftKerningGroup = H;
rightKerningGroup = j;
unicode = 01C8;
},
{
glyphname = Lslash;
lastChange = "2020-07-20 13:56:18 +0000";
layers = (
{
components = (
{
name = L;
transform = "{1, 0, 0, 1, 20, 0}";
}
);
layerId = "6C5F8957-356A-4AA4-B78F-9BBB75A580E3";
paths = (
{
closed = 1;
nodes = (
"72 181 OFFCURVE",
"339 362 OFFCURVE",
"339 397 CURVE SMOOTH",
"339 413 OFFCURVE",
"304 466 OFFCURVE",
"281 466 CURVE SMOOTH",
"255 466 OFFCURVE",
"-15 268 OFFCURVE",
"-15 249 CURVE SMOOTH",
"-15 232 OFFCURVE",
"7 181 OFFCURVE",
"32 181 CURVE SMOOTH"
);
}
);
width = 375;
},
{
associatedMasterId = "6C5F8957-356A-4AA4-B78F-9BBB75A580E3";
components = (
{
name = L;
transform = "{1, 0, 0, 1, 20, 0}";
}
);
layerId = "13D0EA73-11C9-456F-B63E-8761F596A328";
name = "Apr 1 20, 20:52";
paths = (
{
closed = 1;
nodes = (
"62 228 OFFCURVE",
"369 429 OFFCURVE",
"369 464 CURVE SMOOTH",
"369 480 OFFCURVE",
"334 546 OFFCURVE",
"311 546 CURVE SMOOTH",
"258 546 OFFCURVE",
"-45 350 OFFCURVE",
"-45 319 CURVE SMOOTH",
"-45 297 OFFCURVE",
"3 228 OFFCURVE",
"22 228 CURVE SMOOTH"
);
}
);
width = 425;
}
);
leftKerningGroup = H;
rightKerningGroup = L;
rightMetricsKey = L;
unicode = 0141;
},
{
glyphname = M;
lastChange = "2020-07-21 14:20:11 +0000";
layers = (
{
anchors = (
{
name = bottom;
position = "{337, 0}";
},
{
name = top;
position = "{337, 700}";
}
);
annotations = (
{
position = "{-129.773, 285.156}";
text = "voir version variable";
type = Text;
}
);
associatedMasterId = "6C5F8957-356A-4AA4-B78F-9BBB75A580E3";
guideLines = (
{
position = "{152, 716}";
}
);
layerId = "10A18695-60CD-423F-A7ED-7E289776B514";
name = "Mar 30 20, 19:35";
paths = (
{
closed = 1;
nodes = (
"416 233 LINE",
"361 233 LINE",
"359 322 OFFCURVE",
"357 518 OFFCURVE",
"295 662 CURVE SMOOTH",
"280 697 OFFCURVE",
"222 716 OFFCURVE",
"197 716 CURVE",
"197 371 LINE",
"235 371 LINE",
"247 184 OFFCURVE",
"287 51 OFFCURVE",
"304 20 CURVE SMOOTH",
"315 0 OFFCURVE",
"327 -11 OFFCURVE",
"367 -11 CURVE"
);
},
{
closed = 1;
nodes = (
"149 -11 OFFCURVE",
"199 0 OFFCURVE",
"207 32 CURVE SMOOTH",
"214 60 OFFCURVE",
"219 295 OFFCURVE",
"219 474 CURVE SMOOTH",
"219 630 OFFCURVE",
"222 716 OFFCURVE",
"197 716 CURVE SMOOTH",
"176 716 OFFCURVE",
"130 706 OFFCURVE",
"102 693 CURVE SMOOTH",
"81 683 OFFCURVE",
"70 665 OFFCURVE",
"63 611 CURVE SMOOTH",
"49 502 OFFCURVE",
"45 314 OFFCURVE",
"45 196 CURVE SMOOTH",
"45 121 OFFCURVE",
"46 52 OFFCURVE",
"53 22 CURVE SMOOTH",
"58 0 OFFCURVE",
"91 -11 OFFCURVE",
"122 -11 CURVE SMOOTH"
);
},
{
closed = 1;
nodes = (
"407 -11 OFFCURVE",
"419 0 OFFCURVE",
"430 20 CURVE SMOOTH",
"447 51 OFFCURVE",
"487 184 OFFCURVE",
"499 371 CURVE",
"537 371 LINE",
"537 716 LINE",
"512 716 OFFCURVE",
"454 697 OFFCURVE",
"439 662 CURVE SMOOTH",
"377 518 OFFCURVE",
"375 322 OFFCURVE",
"373 233 CURVE",
"318 233 LINE",
"367 -11 LINE"
);
},
{
closed = 1;
nodes = (
"643 -11 OFFCURVE",
"676 0 OFFCURVE",
"681 22 CURVE SMOOTH",
"688 52 OFFCURVE",
"689 121 OFFCURVE",
"689 196 CURVE SMOOTH",
"689 314 OFFCURVE",
"685 502 OFFCURVE",
"671 611 CURVE SMOOTH",
"664 665 OFFCURVE",
"653 683 OFFCURVE",
"632 693 CURVE SMOOTH",
"604 706 OFFCURVE",
"558 716 OFFCURVE",
"537 716 CURVE SMOOTH",
"512 716 OFFCURVE",
"515 630 OFFCURVE",
"515 474 CURVE SMOOTH",
"515 295 OFFCURVE",
"520 60 OFFCURVE",
"527 32 CURVE SMOOTH",
"535 0 OFFCURVE",
"585 -11 OFFCURVE",
"612 -11 CURVE SMOOTH"
);
}
);
width = 734;
},
{
anchors = (
{
name = bottom;
position = "{341, 0}";
},
{
name = top;
position = "{341, 700}";
}
);
annotations = (
{
position = "{-129.773, 285.156}";
text = "voir version variable";
type = Text;
}
);
associatedMasterId = "6C5F8957-356A-4AA4-B78F-9BBB75A580E3";
guideLines = (
{
position = "{156, 716}";
}
);
layerId = "6C17FD84-B8EB-4882-9383-0A82E47F46D7";
name = "Mar 30 20, 19:41";
paths = (
{
closed = 1;
nodes = (
"149 -11 OFFCURVE",
"202 0 OFFCURVE",
"210 32 CURVE SMOOTH",
"217 60 OFFCURVE",
"219 154 OFFCURVE",
"219 283 CURVE SMOOTH",
"219 439 OFFCURVE",
"222 716 OFFCURVE",
"197 716 CURVE SMOOTH",
"186 716 OFFCURVE",
"130 706 OFFCURVE",
"102 693 CURVE SMOOTH",
"81 683 OFFCURVE",
"70 665 OFFCURVE",
"63 611 CURVE SMOOTH",
"49 502 OFFCURVE",
"45 314 OFFCURVE",
"45 196 CURVE SMOOTH",
"45 121 OFFCURVE",
"46 52 OFFCURVE",
"53 22 CURVE SMOOTH",
"58 0 OFFCURVE",
"91 -11 OFFCURVE",
"122 -11 CURVE SMOOTH"
);
},
{
closed = 1;
nodes = (
"386 170 OFFCURVE",
"415 217 OFFCURVE",
"415 245 CURVE",
"415 355 LINE",
"352 355 LINE",
"347 460 OFFCURVE",
"326 630 OFFCURVE",
"294 685 CURVE SMOOTH",
"281 707 OFFCURVE",
"242 716 OFFCURVE",
"197 716 CURVE",
"146 691 LINE",
"150 483 LINE",
"229 483 LINE",
"241 322 OFFCURVE",
"268 232 OFFCURVE",
"289 199 CURVE SMOOTH",
"302 178 OFFCURVE",
"325 170 OFFCURVE",
"356 170 CURVE SMOOTH"
);
},
{
closed = 1;
nodes = (
"621 -11 OFFCURVE",
"654 0 OFFCURVE",
"659 22 CURVE SMOOTH",
"666 52 OFFCURVE",
"667 121 OFFCURVE",
"667 196 CURVE SMOOTH",
"667 314 OFFCURVE",
"663 502 OFFCURVE",
"649 611 CURVE SMOOTH",
"642 665 OFFCURVE",
"631 683 OFFCURVE",
"610 693 CURVE SMOOTH",
"582 706 OFFCURVE",
"526 716 OFFCURVE",
"515 716 CURVE SMOOTH",
"490 716 OFFCURVE",
"493 439 OFFCURVE",
"493 283 CURVE SMOOTH",
"493 154 OFFCURVE",
"495 60 OFFCURVE",
"502 32 CURVE SMOOTH",
"510 0 OFFCURVE",
"563 -11 OFFCURVE",
"590 -11 CURVE SMOOTH"
);
},
{
closed = 1;
nodes = (
"387 170 OFFCURVE",
"410 178 OFFCURVE",
"423 199 CURVE SMOOTH",
"444 232 OFFCURVE",
"471 322 OFFCURVE",
"483 483 CURVE",
"566 483 LINE",
"566 691 LINE",
"515 716 LINE",
"470 716 OFFCURVE",
"431 707 OFFCURVE",
"418 685 CURVE SMOOTH",
"386 630 OFFCURVE",
"365 460 OFFCURVE",
"360 355 CURVE",
"297 355 LINE",
"297 245 LINE",
"297 217 OFFCURVE",
"326 170 OFFCURVE",
"356 170 CURVE SMOOTH"
);
}
);
width = 712;
},
{
anchors = (
{
name = bottom;
position = "{335, 0}";
},
{
name = top;
position = "{335, 700}";
}
);
annotations = (
{
position = "{-129.773, 285.156}";
text = "voir version variable";
type = Text;
}
);
associatedMasterId = "6C5F8957-356A-4AA4-B78F-9BBB75A580E3";
guideLines = (
{
position = "{115, 716}";
}
);
layerId = "0F001123-4B6C-4245-AB3F-FEE77A679AF6";
name = "Mar 30 20, 23:34";
paths = (
{
closed = 1;
nodes = (
"139 -11 OFFCURVE",
"192 0 OFFCURVE",
"200 32 CURVE SMOOTH",
"207 60 OFFCURVE",
"209 154 OFFCURVE",
"209 283 CURVE SMOOTH",
"209 439 OFFCURVE",
"212 716 OFFCURVE",
"187 716 CURVE SMOOTH",
"166 716 OFFCURVE",
"120 706 OFFCURVE",
"92 693 CURVE SMOOTH",
"71 683 OFFCURVE",
"60 665 OFFCURVE",
"53 611 CURVE SMOOTH",
"39 502 OFFCURVE",
"35 314 OFFCURVE",
"35 196 CURVE SMOOTH",
"35 121 OFFCURVE",
"36 52 OFFCURVE",
"43 22 CURVE SMOOTH",
"48 0 OFFCURVE",
"81 -11 OFFCURVE",
"112 -11 CURVE SMOOTH"
);
},
{
closed = 1;
nodes = (
"380 179 OFFCURVE",
"409 226 OFFCURVE",
"409 254 CURVE",
"409 354 LINE",
"344 354 LINE",
"339 459 OFFCURVE",
"340 630 OFFCURVE",
"308 685 CURVE SMOOTH",
"295 707 OFFCURVE",
"232 716 OFFCURVE",
"187 716 CURVE",
"140 691 LINE",
"144 525 LINE",
"223 525 LINE",
"235 364 OFFCURVE",
"252 241 OFFCURVE",
"273 208 CURVE SMOOTH",
"286 187 OFFCURVE",
"319 179 OFFCURVE",
"350 179 CURVE SMOOTH"
);
},
{
closed = 1;
nodes = (
"619 -11 OFFCURVE",
"652 0 OFFCURVE",
"657 22 CURVE SMOOTH",
"664 52 OFFCURVE",
"665 121 OFFCURVE",
"665 196 CURVE SMOOTH",
"665 314 OFFCURVE",
"661 502 OFFCURVE",
"647 611 CURVE SMOOTH",
"640 665 OFFCURVE",
"629 683 OFFCURVE",
"608 693 CURVE SMOOTH",
"580 706 OFFCURVE",
"534 716 OFFCURVE",
"513 716 CURVE SMOOTH",
"488 716 OFFCURVE",
"491 439 OFFCURVE",
"491 283 CURVE SMOOTH",
"491 154 OFFCURVE",
"493 60 OFFCURVE",
"500 32 CURVE SMOOTH",
"508 0 OFFCURVE",
"561 -11 OFFCURVE",
"588 -11 CURVE SMOOTH"
);
},
{
closed = 1;
nodes = (
"391 179 OFFCURVE",
"414 187 OFFCURVE",
"427 208 CURVE SMOOTH",
"448 241 OFFCURVE",
"465 364 OFFCURVE",
"477 525 CURVE",
"560 525 LINE",
"560 691 LINE",
"513 716 LINE",
"468 716 OFFCURVE",
"415 707 OFFCURVE",
"402 685 CURVE SMOOTH",
"370 630 OFFCURVE",
"361 459 OFFCURVE",
"356 354 CURVE",
"301 354 LINE",
"291 254 LINE",
"291 226 OFFCURVE",
"320 179 OFFCURVE",
"350 179 CURVE SMOOTH"
);
}
);
width = 700;
},
{
anchors = (
{
name = bottom;
position = "{335, 0}";
},
{
name = top;
position = "{335, 700}";
}
);
annotations = (
{
position = "{-129.773, 285.156}";
text = "voir version variable";
type = Text;
}
);
associatedMasterId = "6C5F8957-356A-4AA4-B78F-9BBB75A580E3";
guideLines = (
{
position = "{115, 716}";
}
);
layerId = "F55BFEEE-E824-4C76-8708-88055213B947";
name = "Mar 30 20, 23:34";
paths = (
{
closed = 1;
nodes = (
"139 -11 OFFCURVE",
"192 0 OFFCURVE",
"200 32 CURVE SMOOTH",
"207 60 OFFCURVE",
"209 154 OFFCURVE",
"209 283 CURVE SMOOTH",
"209 439 OFFCURVE",
"212 716 OFFCURVE",
"187 716 CURVE SMOOTH",
"166 716 OFFCURVE",
"120 706 OFFCURVE",
"92 693 CURVE SMOOTH",
"71 683 OFFCURVE",
"60 665 OFFCURVE",
"53 611 CURVE SMOOTH",
"39 502 OFFCURVE",
"35 314 OFFCURVE",
"35 196 CURVE SMOOTH",
"35 121 OFFCURVE",
"36 52 OFFCURVE",
"43 22 CURVE SMOOTH",
"48 0 OFFCURVE",
"81 -11 OFFCURVE",
"112 -11 CURVE SMOOTH"
);
},
{
closed = 1;
nodes = (
"380 179 OFFCURVE",
"409 226 OFFCURVE",
"409 254 CURVE",
"409 354 LINE",
"344 354 LINE",
"339 459 OFFCURVE",
"340 630 OFFCURVE",
"308 685 CURVE SMOOTH",
"295 707 OFFCURVE",
"232 716 OFFCURVE",
"187 716 CURVE",
"140 691 LINE",
"144 525 LINE",
"223 525 LINE",
"235 364 OFFCURVE",
"252 241 OFFCURVE",
"273 208 CURVE SMOOTH",
"286 187 OFFCURVE",
"319 179 OFFCURVE",
"350 179 CURVE SMOOTH"
);
},
{
closed = 1;
nodes = (
"619 -11 OFFCURVE",
"652 0 OFFCURVE",
"657 22 CURVE SMOOTH",
"664 52 OFFCURVE",
"665 121 OFFCURVE",
"665 196 CURVE SMOOTH",
"665 314 OFFCURVE",
"661 502 OFFCURVE",
"647 611 CURVE SMOOTH",
"640 665 OFFCURVE",
"629 683 OFFCURVE",
"608 693 CURVE SMOOTH",
"580 706 OFFCURVE",
"534 716 OFFCURVE",
"513 716 CURVE SMOOTH",
"488 716 OFFCURVE",
"491 439 OFFCURVE",
"491 283 CURVE SMOOTH",
"491 154 OFFCURVE",
"493 60 OFFCURVE",
"500 32 CURVE SMOOTH",
"508 0 OFFCURVE",
"561 -11 OFFCURVE",
"588 -11 CURVE SMOOTH"
);
},
{
closed = 1;
nodes = (
"391 179 OFFCURVE",
"414 187 OFFCURVE",
"427 208 CURVE SMOOTH",
"448 241 OFFCURVE",
"465 364 OFFCURVE",
"477 525 CURVE",
"560 525 LINE",
"560 691 LINE",
"513 716 LINE",
"468 716 OFFCURVE",
"415 707 OFFCURVE",
"402 685 CURVE SMOOTH",
"370 630 OFFCURVE",
"361 459 OFFCURVE",
"356 354 CURVE",
"301 354 LINE",
"291 254 LINE",
"291 226 OFFCURVE",
"320 179 OFFCURVE",
"350 179 CURVE SMOOTH"
);
}
);
width = 700;
},
{
anchors = (
{
name = bottom;
position = "{335, 0}";
},
{
name = top;
position = "{335, 700}";
}
);
associatedMasterId = "6C5F8957-356A-4AA4-B78F-9BBB75A580E3";
guideLines = (
{
position = "{115, 716}";
},
{
position = "{329, 317}";
}
);
layerId = "6738F597-1899-423B-B255-D51EE9F3F19E";
name = "Apr 6 20, 16:48";
paths = (
{
closed = 1;
nodes = (
"406 148 OFFCURVE",
"434 195 OFFCURVE",
"434 223 CURVE",
"419 305 LINE",
"352 305 LINE",
"347 410 OFFCURVE",
"340 508 OFFCURVE",
"298 662 CURVE SMOOTH",
"288 699 OFFCURVE",
"232 708 OFFCURVE",
"187 708 CURVE",
"130 691 LINE",
"130 552 LINE",
"209 552 LINE",
"221 391 OFFCURVE",
"247 210 OFFCURVE",
"268 177 CURVE SMOOTH",
"281 156 OFFCURVE",
"314 148 OFFCURVE",
"360 148 CURVE SMOOTH"
);
},
{
closed = 1;
nodes = (
"649 -11 OFFCURVE",
"682 0 OFFCURVE",
"687 22 CURVE SMOOTH",
"694 52 OFFCURVE",
"695 121 OFFCURVE",
"695 196 CURVE SMOOTH",
"695 314 OFFCURVE",
"691 497 OFFCURVE",
"677 606 CURVE SMOOTH",
"670 660 OFFCURVE",
"659 681 OFFCURVE",
"638 691 CURVE SMOOTH",
"610 704 OFFCURVE",
"564 716 OFFCURVE",
"543 716 CURVE SMOOTH",
"518 716 OFFCURVE",
"521 439 OFFCURVE",
"521 283 CURVE SMOOTH",
"521 154 OFFCURVE",
"523 60 OFFCURVE",
"530 32 CURVE SMOOTH",
"538 0 OFFCURVE",
"591 -11 OFFCURVE",
"618 -11 CURVE SMOOTH"
);
},
{
closed = 1;
nodes = (
"406 148 OFFCURVE",
"438 156 OFFCURVE",
"451 177 CURVE SMOOTH",
"472 210 OFFCURVE",
"490 390 OFFCURVE",
"502 551 CURVE",
"590 551 LINE",
"590 691 LINE",
"543 716 LINE",
"498 716 OFFCURVE",
"435 707 OFFCURVE",
"422 685 CURVE SMOOTH",
"390 630 OFFCURVE",
"373 410 OFFCURVE",
"368 305 CURVE",
"301 305 LINE",
"286 223 LINE",
"286 195 OFFCURVE",
"314 148 OFFCURVE",
"360 148 CURVE SMOOTH"
);
},
{
closed = 1;
nodes = (
"129 -11 OFFCURVE",
"179 0 OFFCURVE",
"187 32 CURVE SMOOTH",
"194 60 OFFCURVE",
"189 346 OFFCURVE",
"189 525 CURVE",
"187 708 LINE",
"166 708 OFFCURVE",
"110 706 OFFCURVE",
"82 693 CURVE SMOOTH",
"61 683 OFFCURVE",
"50 665 OFFCURVE",
"43 611 CURVE SMOOTH",
"29 502 OFFCURVE",
"25 314 OFFCURVE",
"25 196 CURVE SMOOTH",
"25 121 OFFCURVE",
"26 52 OFFCURVE",
"33 22 CURVE SMOOTH",
"38 0 OFFCURVE",
"71 -11 OFFCURVE",
"102 -11 CURVE SMOOTH"
);
},
{
closed = 1;
nodes = (
"129 -11 OFFCURVE",
"179 0 OFFCURVE",
"187 32 CURVE SMOOTH",
"194 60 OFFCURVE",
"189 373 OFFCURVE",
"189 552 CURVE",
"187 708 LINE",
"166 708 OFFCURVE",
"110 706 OFFCURVE",
"82 693 CURVE SMOOTH",
"61 683 OFFCURVE",
"50 665 OFFCURVE",
"43 611 CURVE SMOOTH",
"29 502 OFFCURVE",
"25 314 OFFCURVE",
"25 196 CURVE SMOOTH",
"25 121 OFFCURVE",
"26 52 OFFCURVE",
"33 22 CURVE SMOOTH",
"38 0 OFFCURVE",
"71 -11 OFFCURVE",
"102 -11 CURVE SMOOTH"
);
}
);
width = 720;
},
{
anchors = (
{
name = bottom;
position = "{335, 0}";
},
{
name = top;
position = "{335, 700}";
}
);
associatedMasterId = "6C5F8957-356A-4AA4-B78F-9BBB75A580E3";
guideLines = (
{
position = "{115, 716}";
},
{
position = "{329, 317}";
}
);
layerId = "F3161022-51D2-4006-B488-A8E3EB8DF1F1";
name = "Apr 6 20, 16:49";
paths = (
{
closed = 1;
nodes = (
"406 148 OFFCURVE",
"434 195 OFFCURVE",
"434 223 CURVE",
"419 305 LINE",
"352 305 LINE",
"347 410 OFFCURVE",
"340 508 OFFCURVE",
"298 662 CURVE SMOOTH",
"288 699 OFFCURVE",
"232 708 OFFCURVE",
"187 708 CURVE",
"130 691 LINE",
"130 552 LINE",
"209 552 LINE",
"221 391 OFFCURVE",
"247 210 OFFCURVE",
"268 177 CURVE SMOOTH",
"281 156 OFFCURVE",
"314 148 OFFCURVE",
"360 148 CURVE SMOOTH"
);
},
{
closed = 1;
nodes = (
"129 -11 OFFCURVE",
"179 0 OFFCURVE",
"187 32 CURVE SMOOTH",
"194 60 OFFCURVE",
"189 346 OFFCURVE",
"189 525 CURVE",
"187 708 LINE",
"166 708 OFFCURVE",
"110 706 OFFCURVE",
"82 693 CURVE SMOOTH",
"61 683 OFFCURVE",
"50 665 OFFCURVE",
"43 611 CURVE SMOOTH",
"29 502 OFFCURVE",
"25 314 OFFCURVE",
"25 196 CURVE SMOOTH",
"25 121 OFFCURVE",
"26 52 OFFCURVE",
"33 22 CURVE SMOOTH",
"38 0 OFFCURVE",
"71 -11 OFFCURVE",
"102 -11 CURVE SMOOTH"
);
},
{
closed = 1;
nodes = (
"129 -11 OFFCURVE",
"179 0 OFFCURVE",
"187 32 CURVE SMOOTH",
"194 60 OFFCURVE",
"189 373 OFFCURVE",
"189 552 CURVE",
"187 708 LINE",
"166 708 OFFCURVE",
"110 706 OFFCURVE",
"82 693 CURVE SMOOTH",
"61 683 OFFCURVE",
"50 665 OFFCURVE",
"43 611 CURVE SMOOTH",
"29 502 OFFCURVE",
"25 314 OFFCURVE",
"25 196 CURVE SMOOTH",
"25 121 OFFCURVE",
"26 52 OFFCURVE",
"33 22 CURVE SMOOTH",
"38 0 OFFCURVE",
"71 -11 OFFCURVE",
"102 -11 CURVE SMOOTH"
);
},
{
closed = 1;
nodes = (
"406 148 OFFCURVE",
"439 156 OFFCURVE",
"452 177 CURVE SMOOTH",
"473 210 OFFCURVE",
"499 391 OFFCURVE",
"511 552 CURVE",
"590 552 LINE",
"590 691 LINE",
"533 708 LINE",
"488 708 OFFCURVE",
"432 699 OFFCURVE",
"422 662 CURVE SMOOTH",
"380 508 OFFCURVE",
"373 410 OFFCURVE",
"368 305 CURVE",
"301 305 LINE",
"286 223 LINE",
"286 195 OFFCURVE",
"314 148 OFFCURVE",
"360 148 CURVE SMOOTH"
);
},
{
closed = 1;
nodes = (
"649 -11 OFFCURVE",
"682 0 OFFCURVE",
"687 22 CURVE SMOOTH",
"694 52 OFFCURVE",
"695 121 OFFCURVE",
"695 196 CURVE SMOOTH",
"695 314 OFFCURVE",
"691 502 OFFCURVE",
"677 611 CURVE SMOOTH",
"670 665 OFFCURVE",
"659 683 OFFCURVE",
"638 693 CURVE SMOOTH",
"610 706 OFFCURVE",
"554 708 OFFCURVE",
"533 708 CURVE",
"531 525 LINE",
"531 346 OFFCURVE",
"526 60 OFFCURVE",
"533 32 CURVE SMOOTH",
"541 0 OFFCURVE",
"591 -11 OFFCURVE",
"618 -11 CURVE SMOOTH"
);
},
{
closed = 1;
nodes = (
"649 -11 OFFCURVE",
"682 0 OFFCURVE",
"687 22 CURVE SMOOTH",
"694 52 OFFCURVE",
"695 121 OFFCURVE",
"695 196 CURVE SMOOTH",
"695 314 OFFCURVE",
"691 502 OFFCURVE",
"677 611 CURVE SMOOTH",
"670 665 OFFCURVE",
"659 683 OFFCURVE",
"638 693 CURVE SMOOTH",
"610 706 OFFCURVE",
"554 708 OFFCURVE",
"533 708 CURVE",
"531 552 LINE",
"531 373 OFFCURVE",
"526 60 OFFCURVE",
"533 32 CURVE SMOOTH",
"541 0 OFFCURVE",
"591 -11 OFFCURVE",
"618 -11 CURVE SMOOTH"
);
}
);
width = 720;
},
{
anchors = (
{
name = bottom;
position = "{356, 0}";
},
{
name = top;
position = "{356, 700}";
}
);
associatedMasterId = "6C5F8957-356A-4AA4-B78F-9BBB75A580E3";
guideLines = (
{
position = "{136, 716}";
},
{
position = "{350, 317}";
}
);
layerId = "AB300630-15E8-4D3A-B942-80875C90E9E8";
name = "Apr 6 20, 19:15";
paths = (
{
closed = 1;
nodes = (
"135 -11 OFFCURVE",
"189 0 OFFCURVE",
"197 32 CURVE SMOOTH",
"204 60 OFFCURVE",
"199 373 OFFCURVE",
"199 552 CURVE",
"197 708 LINE",
"176 708 OFFCURVE",
"121 702 OFFCURVE",
"92 693 CURVE SMOOTH",
"61 683 OFFCURVE",
"50 665 OFFCURVE",
"43 611 CURVE SMOOTH",
"29 502 OFFCURVE",
"25 314 OFFCURVE",
"25 196 CURVE SMOOTH",
"25 121 OFFCURVE",
"26 52 OFFCURVE",
"33 22 CURVE SMOOTH",
"38 0 OFFCURVE",
"77 -11 OFFCURVE",
"108 -11 CURVE SMOOTH"
);
},
{
closed = 1;
nodes = (
"151 662 LINE",
"151 552 LINE",
"221 552 LINE",
"224 472 OFFCURVE",
"237 331 OFFCURVE",
"250 281 CURVE SMOOTH",
"260 242 OFFCURVE",
"275 225 OFFCURVE",
"340 225 CURVE",
"340 385 LINE",
"330 385 LINE",
"325 488 OFFCURVE",
"318 574 OFFCURVE",
"313 624 CURVE SMOOTH",
"307 686 OFFCURVE",
"251 708 OFFCURVE",
"197 708 CURVE"
);
},
{
closed = 1;
nodes = (
"603 -11 OFFCURVE",
"642 0 OFFCURVE",
"647 22 CURVE SMOOTH",
"654 52 OFFCURVE",
"655 121 OFFCURVE",
"655 196 CURVE SMOOTH",
"655 314 OFFCURVE",
"651 502 OFFCURVE",
"637 611 CURVE SMOOTH",
"630 665 OFFCURVE",
"619 683 OFFCURVE",
"588 693 CURVE SMOOTH",
"559 702 OFFCURVE",
"504 708 OFFCURVE",
"483 708 CURVE",
"481 552 LINE",
"481 373 OFFCURVE",
"476 60 OFFCURVE",
"483 32 CURVE SMOOTH",
"491 0 OFFCURVE",
"545 -11 OFFCURVE",
"572 -11 CURVE SMOOTH"
);
},
{
closed = 1;
nodes = (
"429 708 OFFCURVE",
"373 686 OFFCURVE",
"367 624 CURVE SMOOTH",
"362 574 OFFCURVE",
"355 488 OFFCURVE",
"350 385 CURVE",
"340 385 LINE",
"340 225 LINE",
"405 225 OFFCURVE",
"420 242 OFFCURVE",
"430 281 CURVE SMOOTH",
"443 331 OFFCURVE",
"456 472 OFFCURVE",
"459 552 CURVE",
"529 552 LINE",
"529 662 LINE",
"483 708 LINE"
);
}
);
width = 680;
},
{
anchors = (
{
name = bottom;
position = "{356, 0}";
},
{
name = top;
position = "{356, 700}";
}
);
associatedMasterId = "6C5F8957-356A-4AA4-B78F-9BBB75A580E3";
guideLines = (
{
position = "{136, 716}";
},
{
position = "{350, 317}";
}
);
layerId = "CAB1BEA7-21B7-451B-AED5-7365F9E467CB";
name = "Apr 6 20, 19:20";
paths = (
{
closed = 1;
nodes = (
"135 -11 OFFCURVE",
"189 0 OFFCURVE",
"197 32 CURVE SMOOTH",
"204 60 OFFCURVE",
"199 373 OFFCURVE",
"199 552 CURVE",
"197 708 LINE",
"176 708 OFFCURVE",
"121 702 OFFCURVE",
"92 693 CURVE SMOOTH",
"61 683 OFFCURVE",
"50 665 OFFCURVE",
"43 611 CURVE SMOOTH",
"29 502 OFFCURVE",
"25 314 OFFCURVE",
"25 196 CURVE SMOOTH",
"25 121 OFFCURVE",
"26 52 OFFCURVE",
"33 22 CURVE SMOOTH",
"38 0 OFFCURVE",
"77 -11 OFFCURVE",
"108 -11 CURVE SMOOTH"
);
},
{
closed = 1;
nodes = (
"151 662 LINE",
"151 552 LINE",
"221 552 LINE",
"224 472 OFFCURVE",
"237 331 OFFCURVE",
"250 281 CURVE SMOOTH",
"260 242 OFFCURVE",
"275 225 OFFCURVE",
"340 225 CURVE",
"340 385 LINE",
"330 385 LINE",
"325 488 OFFCURVE",
"318 574 OFFCURVE",
"313 624 CURVE SMOOTH",
"307 686 OFFCURVE",
"251 708 OFFCURVE",
"197 708 CURVE"
);
},
{
closed = 1;
nodes = (
"603 -11 OFFCURVE",
"642 0 OFFCURVE",
"647 22 CURVE SMOOTH",
"654 52 OFFCURVE",
"655 121 OFFCURVE",
"655 196 CURVE SMOOTH",
"655 314 OFFCURVE",
"651 502 OFFCURVE",
"637 611 CURVE SMOOTH",
"630 665 OFFCURVE",
"619 683 OFFCURVE",
"588 693 CURVE SMOOTH",
"559 702 OFFCURVE",
"504 708 OFFCURVE",
"483 708 CURVE",
"481 552 LINE",
"481 373 OFFCURVE",
"476 60 OFFCURVE",
"483 32 CURVE SMOOTH",
"491 0 OFFCURVE",
"545 -11 OFFCURVE",
"572 -11 CURVE SMOOTH"
);
},
{
closed = 1;
nodes = (
"429 708 OFFCURVE",
"373 686 OFFCURVE",
"367 624 CURVE SMOOTH",
"362 574 OFFCURVE",
"355 488 OFFCURVE",
"350 385 CURVE",
"340 385 LINE",
"340 225 LINE",
"405 225 OFFCURVE",
"420 242 OFFCURVE",
"430 281 CURVE SMOOTH",
"443 331 OFFCURVE",
"456 472 OFFCURVE",
"459 552 CURVE",
"529 552 LINE",
"529 662 LINE",
"483 708 LINE"
);
}
);
width = 680;
},
{
anchors = (
{
name = bottom;
position = "{356, 0}";
},
{
name = top;
position = "{356, 700}";
}
);
associatedMasterId = "6C5F8957-356A-4AA4-B78F-9BBB75A580E3";
guideLines = (
{
position = "{136, 716}";
},
{
position = "{350, 317}";
}
);
layerId = "667A38A8-52B8-4A6B-9644-A8A4D39D1516";
name = "Apr 6 20, 19:25";
paths = (
{
closed = 1;
nodes = (
"603 -11 OFFCURVE",
"642 0 OFFCURVE",
"647 22 CURVE SMOOTH",
"654 52 OFFCURVE",
"655 121 OFFCURVE",
"655 196 CURVE SMOOTH",
"655 314 OFFCURVE",
"651 502 OFFCURVE",
"637 611 CURVE SMOOTH",
"630 665 OFFCURVE",
"619 683 OFFCURVE",
"588 693 CURVE SMOOTH",
"559 702 OFFCURVE",
"504 708 OFFCURVE",
"483 708 CURVE",
"481 552 LINE",
"481 373 OFFCURVE",
"476 60 OFFCURVE",
"483 32 CURVE SMOOTH",
"491 0 OFFCURVE",
"545 -11 OFFCURVE",
"572 -11 CURVE SMOOTH"
);
},
{
closed = 1;
nodes = (
"429 708 OFFCURVE",
"373 686 OFFCURVE",
"367 624 CURVE SMOOTH",
"362 574 OFFCURVE",
"355 488 OFFCURVE",
"350 385 CURVE",
"340 385 LINE",
"340 225 LINE",
"405 225 OFFCURVE",
"420 242 OFFCURVE",
"430 281 CURVE SMOOTH",
"443 331 OFFCURVE",
"454 472 OFFCURVE",
"457 552 CURVE",
"529 552 LINE",
"529 662 LINE",
"483 708 LINE"
);
},
{
closed = 1;
nodes = (
"135 -11 OFFCURVE",
"189 0 OFFCURVE",
"197 32 CURVE SMOOTH",
"204 60 OFFCURVE",
"199 373 OFFCURVE",
"199 552 CURVE",
"197 708 LINE",
"176 708 OFFCURVE",
"121 702 OFFCURVE",
"92 693 CURVE SMOOTH",
"61 683 OFFCURVE",
"50 665 OFFCURVE",
"43 611 CURVE SMOOTH",
"29 502 OFFCURVE",
"25 314 OFFCURVE",
"25 196 CURVE SMOOTH",
"25 121 OFFCURVE",
"26 52 OFFCURVE",
"33 22 CURVE SMOOTH",
"38 0 OFFCURVE",
"77 -11 OFFCURVE",
"108 -11 CURVE SMOOTH"
);
},
{
closed = 1;
nodes = (
"151 662 LINE",
"151 552 LINE",
"223 552 LINE",
"226 472 OFFCURVE",
"237 331 OFFCURVE",
"250 281 CURVE SMOOTH",
"260 242 OFFCURVE",
"275 225 OFFCURVE",
"340 225 CURVE",
"340 385 LINE",
"330 385 LINE",
"325 488 OFFCURVE",
"318 574 OFFCURVE",
"313 624 CURVE SMOOTH",
"307 686 OFFCURVE",
"251 708 OFFCURVE",
"197 708 CURVE"
);
}
);
width = 680;
},
{
anchors = (
{
name = bottom;
position = "{356, 0}";
},
{
name = top;
position = "{356, 700}";
}
);
associatedMasterId = "6C5F8957-356A-4AA4-B78F-9BBB75A580E3";
guideLines = (
{
position = "{136, 716}";
},
{
position = "{350, 317}";
}
);
layerId = "E1B299F5-1DD5-42A9-B7C0-2FDD41F269FE";
name = "Apr 6 20, 19:27";
paths = (
{
closed = 1;
nodes = (
"603 -11 OFFCURVE",
"642 0 OFFCURVE",
"647 22 CURVE SMOOTH",
"654 52 OFFCURVE",
"655 121 OFFCURVE",
"655 196 CURVE SMOOTH",
"655 314 OFFCURVE",
"651 502 OFFCURVE",
"637 611 CURVE SMOOTH",
"630 665 OFFCURVE",
"619 683 OFFCURVE",
"588 693 CURVE SMOOTH",
"559 702 OFFCURVE",
"504 708 OFFCURVE",
"483 708 CURVE",
"481 552 LINE",
"481 373 OFFCURVE",
"476 60 OFFCURVE",
"483 32 CURVE SMOOTH",
"491 0 OFFCURVE",
"545 -11 OFFCURVE",
"572 -11 CURVE SMOOTH"
);
},
{
closed = 1;
nodes = (
"429 708 OFFCURVE",
"373 686 OFFCURVE",
"367 624 CURVE SMOOTH",
"362 574 OFFCURVE",
"355 488 OFFCURVE",
"350 385 CURVE",
"340 385 LINE",
"340 255 LINE",
"405 255 OFFCURVE",
"420 272 OFFCURVE",
"430 311 CURVE SMOOTH",
"443 361 OFFCURVE",
"454 472 OFFCURVE",
"457 552 CURVE",
"529 552 LINE",
"529 662 LINE",
"483 708 LINE"
);
},
{
closed = 1;
nodes = (
"135 -11 OFFCURVE",
"189 0 OFFCURVE",
"197 32 CURVE SMOOTH",
"204 60 OFFCURVE",
"199 373 OFFCURVE",
"199 552 CURVE",
"197 708 LINE",
"176 708 OFFCURVE",
"121 702 OFFCURVE",
"92 693 CURVE SMOOTH",
"61 683 OFFCURVE",
"50 665 OFFCURVE",
"43 611 CURVE SMOOTH",
"29 502 OFFCURVE",
"25 314 OFFCURVE",
"25 196 CURVE SMOOTH",
"25 121 OFFCURVE",
"26 52 OFFCURVE",
"33 22 CURVE SMOOTH",
"38 0 OFFCURVE",
"77 -11 OFFCURVE",
"108 -11 CURVE SMOOTH"
);
},
{
closed = 1;
nodes = (
"151 662 LINE",
"151 552 LINE",
"223 552 LINE",
"226 472 OFFCURVE",
"237 361 OFFCURVE",
"250 311 CURVE SMOOTH",
"260 272 OFFCURVE",
"275 255 OFFCURVE",
"340 255 CURVE",
"340 385 LINE",
"330 385 LINE",
"325 488 OFFCURVE",
"318 574 OFFCURVE",
"313 624 CURVE SMOOTH",
"307 686 OFFCURVE",
"251 708 OFFCURVE",
"197 708 CURVE"
);
}
);
width = 680;
},
{
anchors = (
{
name = bottom;
position = "{356, 0}";
},
{
name = top;
position = "{356, 700}";
}
);
associatedMasterId = "6C5F8957-356A-4AA4-B78F-9BBB75A580E3";
guideLines = (
{
position = "{136, 716}";
},
{
position = "{350, 317}";
}
);
layerId = "6B4C5E0B-BD17-49FF-AA63-F8DAA1B4EAC8";
name = "Apr 6 20, 19:27";
paths = (
{
closed = 1;
nodes = (
"603 -11 OFFCURVE",
"642 0 OFFCURVE",
"647 22 CURVE SMOOTH",
"654 52 OFFCURVE",
"655 121 OFFCURVE",
"655 196 CURVE SMOOTH",
"655 314 OFFCURVE",
"651 502 OFFCURVE",
"637 611 CURVE SMOOTH",
"630 665 OFFCURVE",
"619 683 OFFCURVE",
"588 693 CURVE SMOOTH",
"559 702 OFFCURVE",
"504 708 OFFCURVE",
"483 708 CURVE",
"481 552 LINE",
"481 373 OFFCURVE",
"476 60 OFFCURVE",
"483 32 CURVE SMOOTH",
"491 0 OFFCURVE",
"545 -11 OFFCURVE",
"572 -11 CURVE SMOOTH"
);
},
{
closed = 1;
nodes = (
"429 708 OFFCURVE",
"373 686 OFFCURVE",
"367 624 CURVE SMOOTH",
"362 574 OFFCURVE",
"355 488 OFFCURVE",
"350 385 CURVE",
"340 385 LINE",
"340 255 LINE",
"405 255 OFFCURVE",
"420 272 OFFCURVE",
"430 311 CURVE SMOOTH",
"443 361 OFFCURVE",
"454 472 OFFCURVE",
"457 552 CURVE",
"529 552 LINE",
"529 662 LINE",
"483 708 LINE"
);
},
{
closed = 1;
nodes = (
"135 -11 OFFCURVE",
"189 0 OFFCURVE",
"197 32 CURVE SMOOTH",
"204 60 OFFCURVE",
"199 373 OFFCURVE",
"199 552 CURVE",
"197 708 LINE",
"176 708 OFFCURVE",
"121 702 OFFCURVE",
"92 693 CURVE SMOOTH",
"61 683 OFFCURVE",
"50 665 OFFCURVE",
"43 611 CURVE SMOOTH",
"29 502 OFFCURVE",
"25 314 OFFCURVE",
"25 196 CURVE SMOOTH",
"25 121 OFFCURVE",
"26 52 OFFCURVE",
"33 22 CURVE SMOOTH",
"38 0 OFFCURVE",
"77 -11 OFFCURVE",
"108 -11 CURVE SMOOTH"
);
},
{
closed = 1;
nodes = (
"151 662 LINE",
"151 552 LINE",
"223 552 LINE",
"226 472 OFFCURVE",
"237 361 OFFCURVE",
"250 311 CURVE SMOOTH",
"260 272 OFFCURVE",
"275 255 OFFCURVE",
"340 255 CURVE",
"340 385 LINE",
"330 385 LINE",
"325 488 OFFCURVE",
"318 574 OFFCURVE",
"313 624 CURVE SMOOTH",
"307 686 OFFCURVE",
"251 708 OFFCURVE",
"197 708 CURVE"
);
}
);
width = 680;
},
{
anchors = (
{
name = bottom;
position = "{392, 0}";
},
{
name = top;
position = "{392, 700}";
}
);
guideLines = (
{
position = "{157, 716}";
},
{
position = "{371, 317}";
}
);
layerId = "6C5F8957-356A-4AA4-B78F-9BBB75A580E3";
paths = (
{
closed = 1;
nodes = (
"135 -11 OFFCURVE",
"189 0 OFFCURVE",
"197 32 CURVE SMOOTH",
"204 60 OFFCURVE",
"199 383 OFFCURVE",
"199 562 CURVE",
"197 708 LINE",
"176 708 OFFCURVE",
"131 702 OFFCURVE",
"102 693 CURVE SMOOTH",
"75 684 OFFCURVE",
"59 658 OFFCURVE",
"53 611 CURVE SMOOTH",
"36 480 OFFCURVE",
"25 314 OFFCURVE",
"25 196 CURVE SMOOTH",
"25 121 OFFCURVE",
"26 52 OFFCURVE",
"33 22 CURVE SMOOTH",
"38 0 OFFCURVE",
"77 -11 OFFCURVE",
"108 -11 CURVE SMOOTH"
);
},
{
closed = 1;
nodes = (
"446 39 OFFCURVE",
"479 86 OFFCURVE",
"479 114 CURVE",
"464 184 LINE",
"377 184 LINE",
"377 327 OFFCURVE",
"366 498 OFFCURVE",
"350 612 CURVE SMOOTH",
"338 696 OFFCURVE",
"285 708 OFFCURVE",
"197 708 CURVE",
"140 691 LINE",
"140 562 LINE",
"244 562 LINE",
"238 484 OFFCURVE",
"241 268 OFFCURVE",
"250 196 CURVE SMOOTH",
"265 81 OFFCURVE",
"273 39 OFFCURVE",
"392 39 CURVE SMOOTH"
);
},
{
closed = 1;
nodes = (
"707 -11 OFFCURVE",
"746 0 OFFCURVE",
"751 22 CURVE SMOOTH",
"758 52 OFFCURVE",
"759 121 OFFCURVE",
"759 196 CURVE SMOOTH",
"759 314 OFFCURVE",
"748 480 OFFCURVE",
"731 611 CURVE SMOOTH",
"725 658 OFFCURVE",
"709 684 OFFCURVE",
"682 693 CURVE SMOOTH",
"653 702 OFFCURVE",
"608 708 OFFCURVE",
"587 708 CURVE",
"585 562 LINE",
"585 383 OFFCURVE",
"580 60 OFFCURVE",
"587 32 CURVE SMOOTH",
"595 0 OFFCURVE",
"649 -11 OFFCURVE",
"676 -11 CURVE SMOOTH"
);
},
{
closed = 1;
nodes = (
"511 39 OFFCURVE",
"519 81 OFFCURVE",
"534 196 CURVE SMOOTH",
"543 268 OFFCURVE",
"546 484 OFFCURVE",
"540 562 CURVE",
"644 562 LINE",
"644 691 LINE",
"587 708 LINE",
"499 708 OFFCURVE",
"446 696 OFFCURVE",
"434 612 CURVE SMOOTH",
"418 498 OFFCURVE",
"407 327 OFFCURVE",
"407 184 CURVE",
"320 184 LINE",
"305 114 LINE",
"305 86 OFFCURVE",
"338 39 OFFCURVE",
"392 39 CURVE SMOOTH"
);
}
);
width = 784;
},
{
anchors = (
{
name = bottom;
position = "{397, 0}";
},
{
name = top;
position = "{397, 700}";
}
);
associatedMasterId = "6C5F8957-356A-4AA4-B78F-9BBB75A580E3";
guideLines = (
{
position = "{162, 716}";
},
{
position = "{376, 317}";
}
);
layerId = "5CCF5B4A-683A-4B45-9FB6-E035A6C1FEC6";
name = "Jul 21 20, 16:18";
paths = (
{
closed = 1;
nodes = (
"516 39 OFFCURVE",
"529 81 OFFCURVE",
"544 196 CURVE SMOOTH",
"553 268 OFFCURVE",
"556 484 OFFCURVE",
"550 562 CURVE",
"654 562 LINE",
"654 691 LINE",
"597 708 LINE",
"499 708 OFFCURVE",
"462 696 OFFCURVE",
"444 612 CURVE SMOOTH",
"430 549 OFFCURVE",
"414 489 OFFCURVE",
"414 361 CURVE SMOOTH",
"414 311 OFFCURVE",
"415 216 OFFCURVE",
"417 184 CURVE",
"330 184 LINE",
"315 114 LINE",
"315 86 OFFCURVE",
"343 39 OFFCURVE",
"397 39 CURVE SMOOTH"
);
},
{
closed = 1;
nodes = (
"135 -11 OFFCURVE",
"189 0 OFFCURVE",
"197 32 CURVE SMOOTH",
"204 60 OFFCURVE",
"199 383 OFFCURVE",
"199 562 CURVE",
"197 708 LINE",
"176 708 OFFCURVE",
"131 702 OFFCURVE",
"102 693 CURVE SMOOTH",
"75 684 OFFCURVE",
"59 658 OFFCURVE",
"53 611 CURVE SMOOTH",
"36 480 OFFCURVE",
"25 314 OFFCURVE",
"25 196 CURVE SMOOTH",
"25 121 OFFCURVE",
"26 52 OFFCURVE",
"33 22 CURVE SMOOTH",
"38 0 OFFCURVE",
"77 -11 OFFCURVE",
"108 -11 CURVE SMOOTH"
);
},
{
closed = 1;
nodes = (
"451 39 OFFCURVE",
"479 86 OFFCURVE",
"479 114 CURVE",
"464 184 LINE",
"377 184 LINE",
"379 216 OFFCURVE",
"380 311 OFFCURVE",
"380 361 CURVE SMOOTH",
"380 489 OFFCURVE",
"364 549 OFFCURVE",
"350 612 CURVE SMOOTH",
"332 696 OFFCURVE",
"285 708 OFFCURVE",
"197 708 CURVE",
"140 691 LINE",
"140 562 LINE",
"244 562 LINE",
"238 484 OFFCURVE",
"241 268 OFFCURVE",
"250 196 CURVE SMOOTH",
"265 81 OFFCURVE",
"278 39 OFFCURVE",
"397 39 CURVE SMOOTH"
);
},
{
closed = 1;
nodes = (
"717 -11 OFFCURVE",
"756 0 OFFCURVE",
"761 22 CURVE SMOOTH",
"768 52 OFFCURVE",
"769 121 OFFCURVE",
"769 196 CURVE SMOOTH",
"769 314 OFFCURVE",
"758 480 OFFCURVE",
"741 611 CURVE SMOOTH",
"735 658 OFFCURVE",
"719 684 OFFCURVE",
"692 693 CURVE SMOOTH",
"663 702 OFFCURVE",
"618 708 OFFCURVE",
"597 708 CURVE",
"595 562 LINE",
"595 383 OFFCURVE",
"590 60 OFFCURVE",
"597 32 CURVE SMOOTH",
"605 0 OFFCURVE",
"659 -11 OFFCURVE",
"686 -11 CURVE SMOOTH"
);
}
);
width = 794;
}
);
leftKerningGroup = M;
rightKerningGroup = M;
unicode = 004D;
},
{
glyphname = N;
lastChange = "2020-07-21 09:24:30 +0000";
layers = (
{
anchors = (
{
name = bottom;
position = "{294, 0}";
},
{
name = top;
position = "{314, 700}";
}
);
associatedMasterId = "6C5F8957-356A-4AA4-B78F-9BBB75A580E3";
backgroundImage = {
crop = "{{0, 0}, {84.72, 147.12}}";
imagePath = "../../Desktop/PERSONAL TYPEFACES/MANOSQUE/2020-corrections/N.jpg";
locked = "1";
transform = "{6.71948, 0, 0, 6.71948, 4, -190}";
};
layerId = "8B8578CF-14CA-4C36-9FB0-1A9B6FC2319C";
name = "Mar 30 20, 18:22";
paths = (
{
closed = 1;
nodes = (
"446 305 LINE",
"355 305 LINE",
"353 423 OFFCURVE",
"298 641 OFFCURVE",
"275 668 CURVE SMOOTH",
"241 708 OFFCURVE",
"178 716 OFFCURVE",
"147 716 CURVE",
"123 696 LINE",
"153 349 LINE",
"235 349 LINE",
"247 162 OFFCURVE",
"298 61 OFFCURVE",
"314 30 CURVE SMOOTH",
"335 -10 OFFCURVE",
"415 -11 OFFCURVE",
"446 -11 CURVE"
);
},
{
closed = 1;
nodes = (
"149 -11 OFFCURVE",
"199 0 OFFCURVE",
"207 32 CURVE SMOOTH",
"214 60 OFFCURVE",
"219 295 OFFCURVE",
"219 474 CURVE SMOOTH",
"219 630 OFFCURVE",
"182 716 OFFCURVE",
"147 716 CURVE SMOOTH",
"124 716 OFFCURVE",
"93 709 OFFCURVE",
"74 695 CURVE SMOOTH",
"56 682 OFFCURVE",
"45 260 OFFCURVE",
"45 196 CURVE SMOOTH",
"45 121 OFFCURVE",
"46 52 OFFCURVE",
"53 22 CURVE SMOOTH",
"58 0 OFFCURVE",
"91 -11 OFFCURVE",
"122 -11 CURVE SMOOTH"
);
},
{
closed = 1;
nodes = (
"473 -11 OFFCURVE",
"523 0 OFFCURVE",
"531 32 CURVE SMOOTH",
"538 60 OFFCURVE",
"543 295 OFFCURVE",
"543 474 CURVE SMOOTH",
"543 616 OFFCURVE",
"540 694 OFFCURVE",
"534 700 CURVE SMOOTH",
"522 712 OFFCURVE",
"498 716 OFFCURVE",
"471 716 CURVE SMOOTH",
"448 716 OFFCURVE",
"417 709 OFFCURVE",
"398 695 CURVE SMOOTH",
"380 682 OFFCURVE",
"369 260 OFFCURVE",
"367 196 CURVE SMOOTH",
"365 121 OFFCURVE",
"370 52 OFFCURVE",
"377 22 CURVE SMOOTH",
"382 0 OFFCURVE",
"415 -11 OFFCURVE",
"446 -11 CURVE SMOOTH"
);
}
);
width = 588;
},
{
anchors = (
{
name = bottom;
position = "{294, 0}";
},
{
name = top;
position = "{314, 700}";
}
);
associatedMasterId = "6C5F8957-356A-4AA4-B78F-9BBB75A580E3";
backgroundImage = {
crop = "{{0, 0}, {84.72, 147.12}}";
imagePath = "../../Desktop/PERSONAL TYPEFACES/MANOSQUE/2020-corrections/N.jpg";
locked = "1";
transform = "{6.71948, 0, 0, 6.71948, 4, -190}";
};
layerId = "A5AD543F-FFC5-4BD4-8F3F-23CD5ED086AD";
name = "Mar 30 20, 18:27";
paths = (
{
closed = 1;
nodes = (
"426 245 LINE",
"365 245 LINE",
"363 334 OFFCURVE",
"336 518 OFFCURVE",
"274 662 CURVE SMOOTH",
"259 697 OFFCURVE",
"232 716 OFFCURVE",
"197 716 CURVE",
"197 371 LINE",
"235 371 LINE",
"247 184 OFFCURVE",
"287 51 OFFCURVE",
"304 20 CURVE SMOOTH",
"315 0 OFFCURVE",
"325 -11 OFFCURVE",
"426 -11 CURVE"
);
},
{
closed = 1;
nodes = (
"149 -11 OFFCURVE",
"199 0 OFFCURVE",
"207 32 CURVE SMOOTH",
"214 60 OFFCURVE",
"219 295 OFFCURVE",
"219 474 CURVE SMOOTH",
"219 630 OFFCURVE",
"232 716 OFFCURVE",
"197 716 CURVE SMOOTH",
"135 716 OFFCURVE",
"93 701 OFFCURVE",
"74 673 CURVE SMOOTH",
"62 655 OFFCURVE",
"45 260 OFFCURVE",
"45 196 CURVE SMOOTH",
"45 121 OFFCURVE",
"46 52 OFFCURVE",
"53 22 CURVE SMOOTH",
"58 0 OFFCURVE",
"91 -11 OFFCURVE",
"122 -11 CURVE SMOOTH"
);
},
{
closed = 1;
nodes = (
"453 -11 OFFCURVE",
"532 -2 OFFCURVE",
"541 27 CURVE SMOOTH",
"550 55 OFFCURVE",
"553 295 OFFCURVE",
"553 474 CURVE SMOOTH",
"553 616 OFFCURVE",
"550 694 OFFCURVE",
"544 700 CURVE SMOOTH",
"532 712 OFFCURVE",
"508 716 OFFCURVE",
"481 716 CURVE SMOOTH",
"458 716 OFFCURVE",
"427 709 OFFCURVE",
"408 695 CURVE SMOOTH",
"390 682 OFFCURVE",
"379 260 OFFCURVE",
"377 196 CURVE SMOOTH",
"375 121 OFFCURVE",
"380 72 OFFCURVE",
"387 42 CURVE SMOOTH",
"392 20 OFFCURVE",
"395 -11 OFFCURVE",
"426 -11 CURVE SMOOTH"
);
}
);
width = 588;
},
{
anchors = (
{
name = bottom;
position = "{294, 0}";
},
{
name = top;
position = "{314, 700}";
}
);
associatedMasterId = "6C5F8957-356A-4AA4-B78F-9BBB75A580E3";
backgroundImage = {
crop = "{{0, 0}, {84.72, 147.12}}";
imagePath = "../../Desktop/PERSONAL TYPEFACES/MANOSQUE/2020-corrections/N.jpg";
locked = "1";
transform = "{6.71948, 0, 0, 6.71948, 4, -190}";
};
layerId = "F484A567-4D50-4981-BC7E-9BB0EE0FD377";
name = "Mar 30 20, 18:30";
paths = (
{
closed = 1;
nodes = (
"426 233 LINE",
"370 233 LINE",
"368 322 OFFCURVE",
"341 518 OFFCURVE",
"279 662 CURVE SMOOTH",
"264 697 OFFCURVE",
"232 716 OFFCURVE",
"197 716 CURVE",
"197 371 LINE",
"235 371 LINE",
"247 184 OFFCURVE",
"287 51 OFFCURVE",
"304 20 CURVE SMOOTH",
"315 0 OFFCURVE",
"330 -11 OFFCURVE",
"431 -11 CURVE"
);
},
{
closed = 1;
nodes = (
"149 -11 OFFCURVE",
"199 0 OFFCURVE",
"207 32 CURVE SMOOTH",
"214 60 OFFCURVE",
"219 295 OFFCURVE",
"219 474 CURVE SMOOTH",
"219 630 OFFCURVE",
"232 716 OFFCURVE",
"197 716 CURVE SMOOTH",
"135 716 OFFCURVE",
"93 691 OFFCURVE",
"74 673 CURVE SMOOTH",
"58 658 OFFCURVE",
"45 260 OFFCURVE",
"45 196 CURVE SMOOTH",
"45 121 OFFCURVE",
"46 52 OFFCURVE",
"53 22 CURVE SMOOTH",
"58 0 OFFCURVE",
"91 -11 OFFCURVE",
"122 -11 CURVE SMOOTH"
);
},
{
closed = 1;
nodes = (
"458 -11 OFFCURVE",
"537 8 OFFCURVE",
"545 67 CURVE SMOOTH",
"549 96 OFFCURVE",
"557 295 OFFCURVE",
"557 474 CURVE SMOOTH",
"557 616 OFFCURVE",
"544 694 OFFCURVE",
"538 700 CURVE SMOOTH",
"526 712 OFFCURVE",
"498 716 OFFCURVE",
"471 716 CURVE SMOOTH",
"448 716 OFFCURVE",
"415 712 OFFCURVE",
"398 695 CURVE SMOOTH",
"388 685 OFFCURVE",
"383 498 OFFCURVE",
"383 326 CURVE SMOOTH",
"383 192 OFFCURVE",
"386 67 OFFCURVE",
"392 42 CURVE SMOOTH",
"397 20 OFFCURVE",
"400 -11 OFFCURVE",
"431 -11 CURVE SMOOTH"
);
}
);
width = 588;
},
{
anchors = (
{
name = bottom;
position = "{294, 0}";
},
{
name = top;
position = "{314, 700}";
}
);
associatedMasterId = "6C5F8957-356A-4AA4-B78F-9BBB75A580E3";
layerId = "B90E14E7-C8A3-4E4F-9338-7E1B6159B84E";
name = "Mar 30 20, 18:35";
paths = (
{
closed = 1;
nodes = (
"431 233 LINE",
"370 233 LINE",
"368 322 OFFCURVE",
"341 518 OFFCURVE",
"279 662 CURVE SMOOTH",
"264 697 OFFCURVE",
"212 716 OFFCURVE",
"177 716 CURVE",
"177 421 LINE",
"215 421 LINE",
"215 327 OFFCURVE",
"224 209 OFFCURVE",
"251 122 CURVE SMOOTH",
"286 10 OFFCURVE",
"322 -11 OFFCURVE",
"436 -11 CURVE"
);
},
{
closed = 1;
nodes = (
"129 -11 OFFCURVE",
"179 0 OFFCURVE",
"187 32 CURVE SMOOTH",
"194 60 OFFCURVE",
"199 295 OFFCURVE",
"199 474 CURVE SMOOTH",
"199 630 OFFCURVE",
"212 716 OFFCURVE",
"177 716 CURVE SMOOTH",
"146 716 OFFCURVE",
"115 706 OFFCURVE",
"87 693 CURVE SMOOTH",
"66 683 OFFCURVE",
"55 665 OFFCURVE",
"48 611 CURVE SMOOTH",
"34 502 OFFCURVE",
"30 314 OFFCURVE",
"30 196 CURVE SMOOTH",
"30 121 OFFCURVE",
"31 52 OFFCURVE",
"38 22 CURVE SMOOTH",
"43 0 OFFCURVE",
"76 -11 OFFCURVE",
"102 -11 CURVE SMOOTH"
);
},
{
closed = 1;
nodes = (
"463 -11 OFFCURVE",
"534 7 OFFCURVE",
"542 66 CURVE SMOOTH",
"546 95 OFFCURVE",
"554 295 OFFCURVE",
"554 474 CURVE SMOOTH",
"554 616 OFFCURVE",
"541 694 OFFCURVE",
"535 700 CURVE SMOOTH",
"523 712 OFFCURVE",
"499 716 OFFCURVE",
"476 716 CURVE SMOOTH",
"453 716 OFFCURVE",
"422 712 OFFCURVE",
"405 695 CURVE SMOOTH",
"395 685 OFFCURVE",
"388 525 OFFCURVE",
"388 326 CURVE SMOOTH",
"388 161 OFFCURVE",
"380 -11 OFFCURVE",
"436 -11 CURVE SMOOTH"
);
}
);
width = 588;
},
{
anchors = (
{
name = bottom;
position = "{294, 0}";
},
{
name = top;
position = "{314, 700}";
}
);
associatedMasterId = "6C5F8957-356A-4AA4-B78F-9BBB75A580E3";
layerId = "435559F7-8644-4C04-83E8-DEB722137DF8";
name = "Mar 30 20, 18:36";
paths = (
{
closed = 1;
nodes = (
"431 233 LINE",
"370 233 LINE",
"368 322 OFFCURVE",
"341 518 OFFCURVE",
"279 662 CURVE SMOOTH",
"264 697 OFFCURVE",
"212 716 OFFCURVE",
"177 716 CURVE",
"177 421 LINE",
"215 421 LINE",
"215 327 OFFCURVE",
"224 209 OFFCURVE",
"251 122 CURVE SMOOTH",
"286 10 OFFCURVE",
"322 -11 OFFCURVE",
"436 -11 CURVE"
);
},
{
closed = 1;
nodes = (
"129 -11 OFFCURVE",
"179 0 OFFCURVE",
"187 32 CURVE SMOOTH",
"194 60 OFFCURVE",
"199 295 OFFCURVE",
"199 474 CURVE SMOOTH",
"199 630 OFFCURVE",
"212 716 OFFCURVE",
"177 716 CURVE SMOOTH",
"146 716 OFFCURVE",
"115 706 OFFCURVE",
"87 693 CURVE SMOOTH",
"66 683 OFFCURVE",
"55 665 OFFCURVE",
"48 611 CURVE SMOOTH",
"34 502 OFFCURVE",
"30 314 OFFCURVE",
"30 196 CURVE SMOOTH",
"30 121 OFFCURVE",
"31 52 OFFCURVE",
"38 22 CURVE SMOOTH",
"43 0 OFFCURVE",
"76 -11 OFFCURVE",
"102 -11 CURVE SMOOTH"
);
},
{
closed = 1;
nodes = (
"463 -11 OFFCURVE",
"534 7 OFFCURVE",
"542 66 CURVE SMOOTH",
"546 95 OFFCURVE",
"554 295 OFFCURVE",
"554 474 CURVE SMOOTH",
"554 616 OFFCURVE",
"541 694 OFFCURVE",
"535 700 CURVE SMOOTH",
"523 712 OFFCURVE",
"499 716 OFFCURVE",
"476 716 CURVE SMOOTH",
"453 716 OFFCURVE",
"422 712 OFFCURVE",
"405 695 CURVE SMOOTH",
"395 685 OFFCURVE",
"388 525 OFFCURVE",
"388 326 CURVE SMOOTH",
"388 161 OFFCURVE",
"380 -11 OFFCURVE",
"436 -11 CURVE SMOOTH"
);
}
);
width = 588;
},
{
anchors = (
{
name = bottom;
position = "{294, 0}";
},
{
name = top;
position = "{314, 700}";
}
);
associatedMasterId = "6C5F8957-356A-4AA4-B78F-9BBB75A580E3";
layerId = "F4E4F6F7-5BDD-4F23-A79E-AD0DB6B507B2";
name = "Mar 30 20, 19:33";
paths = (
{
closed = 1;
nodes = (
"421 233 LINE",
"381 233 LINE",
"379 322 OFFCURVE",
"347 518 OFFCURVE",
"285 662 CURVE SMOOTH",
"270 697 OFFCURVE",
"222 716 OFFCURVE",
"197 716 CURVE",
"197 371 LINE",
"235 371 LINE",
"247 184 OFFCURVE",
"287 51 OFFCURVE",
"304 20 CURVE SMOOTH",
"315 0 OFFCURVE",
"341 -11 OFFCURVE",
"421 -11 CURVE"
);
},
{
closed = 1;
nodes = (
"149 -11 OFFCURVE",
"199 0 OFFCURVE",
"207 32 CURVE SMOOTH",
"214 60 OFFCURVE",
"219 295 OFFCURVE",
"219 474 CURVE SMOOTH",
"219 630 OFFCURVE",
"222 716 OFFCURVE",
"197 716 CURVE SMOOTH",
"176 716 OFFCURVE",
"130 706 OFFCURVE",
"102 693 CURVE SMOOTH",
"81 683 OFFCURVE",
"70 665 OFFCURVE",
"63 611 CURVE SMOOTH",
"49 502 OFFCURVE",
"45 314 OFFCURVE",
"45 196 CURVE SMOOTH",
"45 121 OFFCURVE",
"46 52 OFFCURVE",
"53 22 CURVE SMOOTH",
"58 0 OFFCURVE",
"91 -11 OFFCURVE",
"122 -11 CURVE SMOOTH"
);
},
{
closed = 1;
nodes = (
"449 -11 OFFCURVE",
"531 8 OFFCURVE",
"545 67 CURVE SMOOTH",
"559 126 OFFCURVE",
"572 295 OFFCURVE",
"572 474 CURVE SMOOTH",
"572 616 OFFCURVE",
"559 694 OFFCURVE",
"553 700 CURVE SMOOTH",
"541 712 OFFCURVE",
"517 716 OFFCURVE",
"492 716 CURVE SMOOTH",
"469 716 OFFCURVE",
"443 712 OFFCURVE",
"426 695 CURVE SMOOTH",
"416 685 OFFCURVE",
"399 525 OFFCURVE",
"399 326 CURVE SMOOTH",
"399 192 OFFCURVE",
"387 67 OFFCURVE",
"393 42 CURVE SMOOTH",
"398 20 OFFCURVE",
"391 -11 OFFCURVE",
"421 -11 CURVE SMOOTH"
);
}
);
width = 617;
},
{
anchors = (
{
name = bottom;
position = "{294, 0}";
},
{
name = top;
position = "{314, 700}";
}
);
associatedMasterId = "6C5F8957-356A-4AA4-B78F-9BBB75A580E3";
layerId = "2A6BF8C6-62EF-4DCB-882E-76A64D7FF1F2";
name = "Mar 30 20, 19:33";
paths = (
{
closed = 1;
nodes = (
"421 233 LINE",
"381 233 LINE",
"379 322 OFFCURVE",
"347 518 OFFCURVE",
"285 662 CURVE SMOOTH",
"270 697 OFFCURVE",
"222 716 OFFCURVE",
"197 716 CURVE",
"197 371 LINE",
"235 371 LINE",
"247 184 OFFCURVE",
"287 51 OFFCURVE",
"304 20 CURVE SMOOTH",
"315 0 OFFCURVE",
"341 -11 OFFCURVE",
"421 -11 CURVE"
);
},
{
closed = 1;
nodes = (
"149 -11 OFFCURVE",
"199 0 OFFCURVE",
"207 32 CURVE SMOOTH",
"214 60 OFFCURVE",
"219 295 OFFCURVE",
"219 474 CURVE SMOOTH",
"219 630 OFFCURVE",
"222 716 OFFCURVE",
"197 716 CURVE SMOOTH",
"176 716 OFFCURVE",
"130 706 OFFCURVE",
"102 693 CURVE SMOOTH",
"81 683 OFFCURVE",
"70 665 OFFCURVE",
"63 611 CURVE SMOOTH",
"49 502 OFFCURVE",
"45 314 OFFCURVE",
"45 196 CURVE SMOOTH",
"45 121 OFFCURVE",
"46 52 OFFCURVE",
"53 22 CURVE SMOOTH",
"58 0 OFFCURVE",
"91 -11 OFFCURVE",
"122 -11 CURVE SMOOTH"
);
},
{
closed = 1;
nodes = (
"449 -11 OFFCURVE",
"531 8 OFFCURVE",
"545 67 CURVE SMOOTH",
"559 126 OFFCURVE",
"572 295 OFFCURVE",
"572 474 CURVE SMOOTH",
"572 616 OFFCURVE",
"559 694 OFFCURVE",
"553 700 CURVE SMOOTH",
"541 712 OFFCURVE",
"517 716 OFFCURVE",
"492 716 CURVE SMOOTH",
"469 716 OFFCURVE",
"443 712 OFFCURVE",
"426 695 CURVE SMOOTH",
"416 685 OFFCURVE",
"399 525 OFFCURVE",
"399 326 CURVE SMOOTH",
"399 192 OFFCURVE",
"387 67 OFFCURVE",
"393 42 CURVE SMOOTH",
"398 20 OFFCURVE",
"391 -11 OFFCURVE",
"421 -11 CURVE SMOOTH"
);
}
);
width = 617;
},
{
anchors = (
{
name = bottom;
position = "{298, 0}";
},
{
name = top;
position = "{327, 700}";
}
);
guideLines = (
{
position = "{422, 103}";
}
);
layerId = "6C5F8957-356A-4AA4-B78F-9BBB75A580E3";
paths = (
{
closed = 1;
nodes = (
"427 137 LINE",
"383 137 LINE",
"381 330 OFFCURVE",
"362 546 OFFCURVE",
"337 662 CURVE SMOOTH",
"329 699 OFFCURVE",
"231 710 OFFCURVE",
"202 710 CURVE",
"194 562 LINE",
"237 562 LINE",
"237 303 OFFCURVE",
"259 80 OFFCURVE",
"292 20 CURVE SMOOTH",
"303 0 OFFCURVE",
"358 -8 OFFCURVE",
"419 -8 CURVE"
);
},
{
closed = 1;
nodes = (
"138 -11 OFFCURVE",
"194 0 OFFCURVE",
"202 32 CURVE SMOOTH",
"209 60 OFFCURVE",
"204 383 OFFCURVE",
"204 562 CURVE",
"202 710 LINE",
"168 710 OFFCURVE",
"126 704 OFFCURVE",
"97 693 CURVE SMOOTH",
"66 681 OFFCURVE",
"55 665 OFFCURVE",
"48 611 CURVE SMOOTH",
"34 502 OFFCURVE",
"30 314 OFFCURVE",
"30 196 CURVE SMOOTH",
"30 121 OFFCURVE",
"31 52 OFFCURVE",
"38 22 CURVE SMOOTH",
"43 0 OFFCURVE",
"80 -11 OFFCURVE",
"111 -11 CURVE SMOOTH"
);
},
{
closed = 1;
nodes = (
"440 -8 OFFCURVE",
"495 -2 OFFCURVE",
"524 7 CURVE SMOOTH",
"555 17 OFFCURVE",
"566 35 OFFCURVE",
"573 89 CURVE SMOOTH",
"587 198 OFFCURVE",
"591 386 OFFCURVE",
"591 504 CURVE SMOOTH",
"591 579 OFFCURVE",
"590 648 OFFCURVE",
"583 678 CURVE SMOOTH",
"579 697 OFFCURVE",
"549 710 OFFCURVE",
"510 710 CURVE SMOOTH",
"483 710 OFFCURVE",
"427 700 OFFCURVE",
"419 668 CURVE SMOOTH",
"412 640 OFFCURVE",
"417 316 OFFCURVE",
"417 137 CURVE",
"419 -8 LINE"
);
}
);
width = 621;
},
{
anchors = (
{
name = bottom;
position = "{284, 0}";
},
{
name = top;
position = "{304, 700}";
}
);
associatedMasterId = "6C5F8957-356A-4AA4-B78F-9BBB75A580E3";
layerId = "72A7500A-2FE8-4CCA-A150-980B6F646822";
name = "Mar 30 20, 23:16";
paths = (
{
closed = 1;
nodes = (
"421 193 LINE",
"370 193 LINE",
"368 282 OFFCURVE",
"351 518 OFFCURVE",
"299 662 CURVE SMOOTH",
"286 698 OFFCURVE",
"212 716 OFFCURVE",
"187 716 CURVE",
"187 391 LINE",
"225 391 LINE",
"237 204 OFFCURVE",
"277 51 OFFCURVE",
"294 20 CURVE SMOOTH",
"305 0 OFFCURVE",
"375 -11 OFFCURVE",
"426 -11 CURVE"
);
},
{
closed = 1;
nodes = (
"139 -11 OFFCURVE",
"189 0 OFFCURVE",
"197 32 CURVE SMOOTH",
"204 60 OFFCURVE",
"209 295 OFFCURVE",
"209 474 CURVE SMOOTH",
"209 630 OFFCURVE",
"212 716 OFFCURVE",
"187 716 CURVE SMOOTH",
"166 716 OFFCURVE",
"120 706 OFFCURVE",
"92 693 CURVE SMOOTH",
"71 683 OFFCURVE",
"60 665 OFFCURVE",
"53 611 CURVE SMOOTH",
"39 502 OFFCURVE",
"35 314 OFFCURVE",
"35 196 CURVE SMOOTH",
"35 121 OFFCURVE",
"36 52 OFFCURVE",
"43 22 CURVE SMOOTH",
"48 0 OFFCURVE",
"81 -11 OFFCURVE",
"112 -11 CURVE SMOOTH"
);
},
{
closed = 1;
nodes = (
"453 -11 OFFCURVE",
"542 8 OFFCURVE",
"550 67 CURVE SMOOTH",
"554 96 OFFCURVE",
"562 295 OFFCURVE",
"562 474 CURVE SMOOTH",
"562 616 OFFCURVE",
"549 694 OFFCURVE",
"543 700 CURVE SMOOTH",
"531 712 OFFCURVE",
"503 716 OFFCURVE",
"476 716 CURVE SMOOTH",
"453 716 OFFCURVE",
"422 712 OFFCURVE",
"405 695 CURVE SMOOTH",
"395 685 OFFCURVE",
"388 525 OFFCURVE",
"388 326 CURVE SMOOTH",
"388 192 OFFCURVE",
"391 67 OFFCURVE",
"397 42 CURVE SMOOTH",
"402 20 OFFCURVE",
"395 -11 OFFCURVE",
"426 -11 CURVE SMOOTH"
);
}
);
width = 597;
},
{
anchors = (
{
name = bottom;
position = "{284, 0}";
},
{
name = top;
position = "{304, 700}";
}
);
associatedMasterId = "6C5F8957-356A-4AA4-B78F-9BBB75A580E3";
layerId = "2A576F55-04AC-4120-8023-0392E0A67FF9";
name = "Mar 30 20, 23:20";
paths = (
{
closed = 1;
nodes = (
"426 193 LINE",
"375 193 LINE",
"373 282 OFFCURVE",
"356 518 OFFCURVE",
"304 662 CURVE SMOOTH",
"291 698 OFFCURVE",
"222 716 OFFCURVE",
"197 716 CURVE",
"177 451 LINE",
"215 451 LINE",
"227 264 OFFCURVE",
"267 51 OFFCURVE",
"284 20 CURVE SMOOTH",
"295 0 OFFCURVE",
"370 -11 OFFCURVE",
"421 -11 CURVE"
);
},
{
closed = 1;
nodes = (
"139 -11 OFFCURVE",
"189 0 OFFCURVE",
"197 32 CURVE SMOOTH",
"204 60 OFFCURVE",
"199 346 OFFCURVE",
"199 525 CURVE",
"197 716 LINE",
"176 716 OFFCURVE",
"120 706 OFFCURVE",
"92 693 CURVE SMOOTH",
"71 683 OFFCURVE",
"60 665 OFFCURVE",
"53 611 CURVE SMOOTH",
"39 502 OFFCURVE",
"35 314 OFFCURVE",
"35 196 CURVE SMOOTH",
"35 121 OFFCURVE",
"36 52 OFFCURVE",
"43 22 CURVE SMOOTH",
"48 0 OFFCURVE",
"81 -11 OFFCURVE",
"112 -11 CURVE SMOOTH"
);
},
{
closed = 1;
nodes = (
"448 -11 OFFCURVE",
"547 8 OFFCURVE",
"555 67 CURVE SMOOTH",
"559 96 OFFCURVE",
"567 295 OFFCURVE",
"567 474 CURVE SMOOTH",
"567 616 OFFCURVE",
"554 694 OFFCURVE",
"548 700 CURVE SMOOTH",
"536 712 OFFCURVE",
"508 716 OFFCURVE",
"481 716 CURVE SMOOTH",
"458 716 OFFCURVE",
"427 712 OFFCURVE",
"410 695 CURVE SMOOTH",
"400 685 OFFCURVE",
"393 525 OFFCURVE",
"393 326 CURVE SMOOTH",
"393 57 OFFCURVE",
"396 -11 OFFCURVE",
"421 -11 CURVE SMOOTH"
);
}
);
width = 602;
},
{
anchors = (
{
name = bottom;
position = "{274, 0}";
},
{
name = top;
position = "{294, 700}";
}
);
associatedMasterId = "6C5F8957-356A-4AA4-B78F-9BBB75A580E3";
guideLines = (
{
position = "{196, 552}";
},
{
position = "{398, 148}";
}
);
layerId = "82B447D1-CAF8-4129-BFD5-94E13EDE295C";
name = "Apr 6 20, 16:28";
paths = (
{
closed = 1;
nodes = (
"416 148 LINE",
"365 148 LINE",
"363 237 OFFCURVE",
"331 508 OFFCURVE",
"289 662 CURVE SMOOTH",
"279 699 OFFCURVE",
"212 708 OFFCURVE",
"187 708 CURVE",
"167 525 LINE",
"205 525 LINE",
"217 338 OFFCURVE",
"257 51 OFFCURVE",
"274 20 CURVE SMOOTH",
"285 0 OFFCURVE",
"360 -8 OFFCURVE",
"411 -8 CURVE"
);
},
{
closed = 1;
nodes = (
"129 -11 OFFCURVE",
"179 0 OFFCURVE",
"187 32 CURVE SMOOTH",
"194 60 OFFCURVE",
"189 346 OFFCURVE",
"189 525 CURVE",
"187 708 LINE",
"166 708 OFFCURVE",
"110 706 OFFCURVE",
"82 693 CURVE SMOOTH",
"61 683 OFFCURVE",
"50 665 OFFCURVE",
"43 611 CURVE SMOOTH",
"29 502 OFFCURVE",
"25 314 OFFCURVE",
"25 196 CURVE SMOOTH",
"25 121 OFFCURVE",
"26 52 OFFCURVE",
"33 22 CURVE SMOOTH",
"38 0 OFFCURVE",
"71 -11 OFFCURVE",
"102 -11 CURVE SMOOTH"
);
},
{
closed = 1;
nodes = (
"445 711 OFFCURVE",
"395 700 OFFCURVE",
"387 668 CURVE SMOOTH",
"380 640 OFFCURVE",
"385 354 OFFCURVE",
"385 175 CURVE",
"387 -8 LINE",
"408 -8 OFFCURVE",
"464 -6 OFFCURVE",
"492 7 CURVE SMOOTH",
"513 17 OFFCURVE",
"524 35 OFFCURVE",
"531 89 CURVE SMOOTH",
"545 198 OFFCURVE",
"549 386 OFFCURVE",
"549 504 CURVE SMOOTH",
"549 579 OFFCURVE",
"548 648 OFFCURVE",
"541 678 CURVE SMOOTH",
"536 700 OFFCURVE",
"503 711 OFFCURVE",
"472 711 CURVE SMOOTH"
);
}
);
width = 574;
},
{
anchors = (
{
name = bottom;
position = "{288, 0}";
},
{
name = top;
position = "{308, 700}";
}
);
associatedMasterId = "6C5F8957-356A-4AA4-B78F-9BBB75A580E3";
guideLines = (
{
position = "{271, 552}";
},
{
position = "{412, 148}";
}
);
layerId = "931FC17F-143A-42B5-80F7-66BCA10CB063";
name = "Apr 6 20, 19:44";
paths = (
{
closed = 1;
nodes = (
"448 148 LINE",
"393 148 LINE",
"391 237 OFFCURVE",
"359 508 OFFCURVE",
"317 662 CURVE SMOOTH",
"307 699 OFFCURVE",
"226 708 OFFCURVE",
"197 708 CURVE",
"177 552 LINE",
"223 552 LINE",
"235 365 OFFCURVE",
"275 51 OFFCURVE",
"292 20 CURVE SMOOTH",
"303 0 OFFCURVE",
"382 -8 OFFCURVE",
"443 -8 CURVE"
);
},
{
closed = 1;
nodes = (
"133 -11 OFFCURVE",
"189 0 OFFCURVE",
"197 32 CURVE SMOOTH",
"204 60 OFFCURVE",
"199 373 OFFCURVE",
"199 552 CURVE",
"197 708 LINE",
"176 708 OFFCURVE",
"121 702 OFFCURVE",
"92 693 CURVE SMOOTH",
"61 683 OFFCURVE",
"50 665 OFFCURVE",
"43 611 CURVE SMOOTH",
"29 502 OFFCURVE",
"25 314 OFFCURVE",
"25 196 CURVE SMOOTH",
"25 121 OFFCURVE",
"26 52 OFFCURVE",
"33 22 CURVE SMOOTH",
"38 0 OFFCURVE",
"75 -11 OFFCURVE",
"106 -11 CURVE SMOOTH"
);
},
{
closed = 1;
nodes = (
"483 711 OFFCURVE",
"427 700 OFFCURVE",
"419 668 CURVE SMOOTH",
"412 640 OFFCURVE",
"417 327 OFFCURVE",
"417 148 CURVE",
"419 -8 LINE",
"440 -8 OFFCURVE",
"495 -2 OFFCURVE",
"524 7 CURVE SMOOTH",
"555 17 OFFCURVE",
"566 35 OFFCURVE",
"573 89 CURVE SMOOTH",
"587 198 OFFCURVE",
"591 386 OFFCURVE",
"591 504 CURVE SMOOTH",
"591 579 OFFCURVE",
"590 648 OFFCURVE",
"583 678 CURVE SMOOTH",
"578 700 OFFCURVE",
"541 711 OFFCURVE",
"510 711 CURVE SMOOTH"
);
}
);
width = 616;
},
{
anchors = (
{
name = bottom;
position = "{293, 0}";
},
{
name = top;
position = "{313, 700}";
}
);
associatedMasterId = "6C5F8957-356A-4AA4-B78F-9BBB75A580E3";
guideLines = (
{
position = "{417, 148}";
}
);
layerId = "C5BAD2A4-9395-4C4B-81F3-84DFF331F7E3";
name = "Apr 8 20, 13:45";
paths = (
{
closed = 1;
nodes = (
"438 148 LINE",
"383 148 LINE",
"381 237 OFFCURVE",
"354 468 OFFCURVE",
"312 662 CURVE SMOOTH",
"304 699 OFFCURVE",
"231 708 OFFCURVE",
"202 708 CURVE",
"182 552 LINE",
"228 552 LINE",
"240 365 OFFCURVE",
"280 51 OFFCURVE",
"297 20 CURVE SMOOTH",
"308 0 OFFCURVE",
"372 -8 OFFCURVE",
"433 -8 CURVE"
);
},
{
closed = 1;
nodes = (
"138 -11 OFFCURVE",
"194 0 OFFCURVE",
"202 32 CURVE SMOOTH",
"209 60 OFFCURVE",
"204 373 OFFCURVE",
"204 552 CURVE",
"202 708 LINE",
"181 708 OFFCURVE",
"126 702 OFFCURVE",
"97 693 CURVE SMOOTH",
"66 683 OFFCURVE",
"55 665 OFFCURVE",
"48 611 CURVE SMOOTH",
"34 502 OFFCURVE",
"30 314 OFFCURVE",
"30 196 CURVE SMOOTH",
"30 121 OFFCURVE",
"31 52 OFFCURVE",
"38 22 CURVE SMOOTH",
"43 0 OFFCURVE",
"80 -11 OFFCURVE",
"111 -11 CURVE SMOOTH"
);
},
{
closed = 1;
nodes = (
"473 711 OFFCURVE",
"417 700 OFFCURVE",
"409 668 CURVE SMOOTH",
"402 640 OFFCURVE",
"407 327 OFFCURVE",
"407 148 CURVE",
"409 -8 LINE",
"430 -8 OFFCURVE",
"485 -2 OFFCURVE",
"514 7 CURVE SMOOTH",
"545 17 OFFCURVE",
"556 35 OFFCURVE",
"563 89 CURVE SMOOTH",
"577 198 OFFCURVE",
"581 386 OFFCURVE",
"581 504 CURVE SMOOTH",
"581 579 OFFCURVE",
"580 648 OFFCURVE",
"573 678 CURVE SMOOTH",
"568 700 OFFCURVE",
"531 711 OFFCURVE",
"500 711 CURVE SMOOTH"
);
}
);
width = 611;
}
);
leftKerningGroup = H;
leftMetricsKey = H;
rightKerningGroup = H;
rightMetricsKey = H;
unicode = 004E;
},
{
glyphname = Eng;
lastChange = "2020-07-21 09:24:30 +0000";
layers = (
{
layerId = "6C5F8957-356A-4AA4-B78F-9BBB75A580E3";
paths = (
{
closed = 1;
nodes = (
"448 148 LINE",
"388 148 LINE",
"386 327 OFFCURVE",
"374 468 OFFCURVE",
"332 662 CURVE SMOOTH",
"324 699 OFFCURVE",
"241 708 OFFCURVE",
"212 708 CURVE",
"192 552 LINE",
"248 552 LINE",
"240 365 OFFCURVE",
"280 51 OFFCURVE",
"297 20 CURVE SMOOTH",
"308 0 OFFCURVE",
"382 -8 OFFCURVE",
"443 -8 CURVE"
);
},
{
closed = 1;
nodes = (
"444 -200 OFFCURVE",
"491 -166 OFFCURVE",
"519 -142 CURVE SMOOTH",
"536 -127 OFFCURVE",
"542 -110 OFFCURVE",
"547 -73 CURVE SMOOTH",
"551 -44 OFFCURVE",
"539 -65 OFFCURVE",
"515 -61 CURVE SMOOTH",
"496 -58 OFFCURVE",
"406 -55 OFFCURVE",
"368 -55 CURVE SMOOTH",
"339 -55 OFFCURVE",
"305 -57 OFFCURVE",
"298 -67 CURVE SMOOTH",
"289 -80 OFFCURVE",
"286 -100 OFFCURVE",
"286 -120 CURVE SMOOTH",
"286 -139 OFFCURVE",
"290 -162 OFFCURVE",
"298 -174 CURVE SMOOTH",
"309 -191 OFFCURVE",
"338 -200 OFFCURVE",
"368 -200 CURVE SMOOTH"
);
},
{
closed = 1;
nodes = (
"148 -11 OFFCURVE",
"204 0 OFFCURVE",
"212 32 CURVE SMOOTH",
"219 60 OFFCURVE",
"214 373 OFFCURVE",
"214 552 CURVE",
"212 708 LINE",
"191 708 OFFCURVE",
"136 702 OFFCURVE",
"107 693 CURVE SMOOTH",
"76 683 OFFCURVE",
"65 665 OFFCURVE",
"58 611 CURVE SMOOTH",
"44 502 OFFCURVE",
"40 314 OFFCURVE",
"40 196 CURVE SMOOTH",
"40 121 OFFCURVE",
"41 52 OFFCURVE",
"48 22 CURVE SMOOTH",
"53 0 OFFCURVE",
"90 -11 OFFCURVE",
"121 -11 CURVE SMOOTH"
);
},
{
closed = 1;
nodes = (
"440 -168 OFFCURVE",
"491 -166 OFFCURVE",
"519 -142 CURVE SMOOTH",
"536 -127 OFFCURVE",
"566 -95 OFFCURVE",
"573 -41 CURVE SMOOTH",
"587 68 OFFCURVE",
"591 386 OFFCURVE",
"591 504 CURVE SMOOTH",
"591 579 OFFCURVE",
"590 648 OFFCURVE",
"583 678 CURVE SMOOTH",
"578 700 OFFCURVE",
"541 711 OFFCURVE",
"510 711 CURVE SMOOTH",
"483 711 OFFCURVE",
"427 700 OFFCURVE",
"419 668 CURVE SMOOTH",
"412 640 OFFCURVE",
"417 327 OFFCURVE",
"417 148 CURVE",
"419 -168 LINE"
);
}
);
width = 616;
},
{
associatedMasterId = "6C5F8957-356A-4AA4-B78F-9BBB75A580E3";
layerId = "E2318CDB-F14E-4EA6-999A-8A41A9B536D5";
name = "Mar 30 20, 23:40";
paths = (
{
closed = 1;
nodes = (
"421 193 LINE",
"370 193 LINE",
"368 282 OFFCURVE",
"341 518 OFFCURVE",
"279 662 CURVE SMOOTH",
"264 697 OFFCURVE",
"212 716 OFFCURVE",
"187 716 CURVE",
"187 371 LINE",
"225 371 LINE",
"237 184 OFFCURVE",
"277 51 OFFCURVE",
"294 20 CURVE SMOOTH",
"305 0 OFFCURVE",
"375 -11 OFFCURVE",
"426 -11 CURVE"
);
},
{
closed = 1;
nodes = (
"139 -11 OFFCURVE",
"189 0 OFFCURVE",
"197 32 CURVE SMOOTH",
"204 60 OFFCURVE",
"209 295 OFFCURVE",
"209 474 CURVE SMOOTH",
"209 630 OFFCURVE",
"212 716 OFFCURVE",
"187 716 CURVE SMOOTH",
"166 716 OFFCURVE",
"120 706 OFFCURVE",
"92 693 CURVE SMOOTH",
"71 683 OFFCURVE",
"60 665 OFFCURVE",
"53 611 CURVE SMOOTH",
"39 502 OFFCURVE",
"35 314 OFFCURVE",
"35 196 CURVE SMOOTH",
"35 121 OFFCURVE",
"36 52 OFFCURVE",
"43 22 CURVE SMOOTH",
"48 0 OFFCURVE",
"81 -11 OFFCURVE",
"112 -11 CURVE SMOOTH"
);
},
{
closed = 1;
nodes = (
"453 -181 OFFCURVE",
"546 -140 OFFCURVE",
"550 -103 CURVE SMOOTH",
"553 -74 OFFCURVE",
"562 295 OFFCURVE",
"562 474 CURVE SMOOTH",
"562 616 OFFCURVE",
"549 694 OFFCURVE",
"543 700 CURVE SMOOTH",
"531 712 OFFCURVE",
"503 716 OFFCURVE",
"476 716 CURVE SMOOTH",
"453 716 OFFCURVE",
"422 712 OFFCURVE",
"405 695 CURVE SMOOTH",
"395 685 OFFCURVE",
"388 525 OFFCURVE",
"388 326 CURVE SMOOTH",
"388 192 OFFCURVE",
"391 -103 OFFCURVE",
"397 -128 CURVE SMOOTH",
"402 -150 OFFCURVE",
"395 -181 OFFCURVE",
"426 -181 CURVE SMOOTH"
);
},
{
closed = 1;
nodes = (
"444 -200 OFFCURVE",
"494 -196 OFFCURVE",
"522 -172 CURVE SMOOTH",
"539 -157 OFFCURVE",
"546 -140 OFFCURVE",
"550 -103 CURVE SMOOTH",
"553 -74 OFFCURVE",
"539 -65 OFFCURVE",
"515 -61 CURVE SMOOTH",
"496 -58 OFFCURVE",
"406 -55 OFFCURVE",
"368 -55 CURVE SMOOTH",
"339 -55 OFFCURVE",
"305 -57 OFFCURVE",
"298 -67 CURVE SMOOTH",
"289 -80 OFFCURVE",
"286 -100 OFFCURVE",
"286 -120 CURVE SMOOTH",
"286 -139 OFFCURVE",
"290 -162 OFFCURVE",
"298 -174 CURVE SMOOTH",
"309 -191 OFFCURVE",
"338 -200 OFFCURVE",
"368 -200 CURVE SMOOTH"
);
}
);
width = 597;
}
);
leftKerningGroup = H;
rightKerningGroup = Eng;
unicode = 014A;
},
{
glyphname = Nj;
lastChange = "2020-04-13 20:24:48 +0000";
layers = (
{
components = (
{
name = N;
},
{
name = j;
transform = "{1, 0, 0, 1, 611, 0}";
}
);
layerId = "6C5F8957-356A-4AA4-B78F-9BBB75A580E3";
paths = (
{
closed = 1;
nodes = (
"717 -220 OFFCURVE",
"775 -196 OFFCURVE",
"787 -147 CURVE SMOOTH",
"794 -119 OFFCURVE",
"781 -107 OFFCURVE",
"733 -107 CURVE SMOOTH",
"707 -107 OFFCURVE",
"660 -91 OFFCURVE",
"616 -72 CURVE SMOOTH",
"584 -58 OFFCURVE",
"551 -42 OFFCURVE",
"529 -42 CURVE SMOOTH",
"485 -42 OFFCURVE",
"437 -140 OFFCURVE",
"479 -171 CURVE SMOOTH",
"515 -197 OFFCURVE",
"612 -220 OFFCURVE",
"667 -220 CURVE SMOOTH"
);
}
);
width = 821;
}
);
leftKerningGroup = N;
rightKerningGroup = j;
unicode = 01CB;
},
{
glyphname = O;
lastChange = "2020-07-21 09:23:29 +0000";
layers = (
{
anchors = (
{
name = bottom;
position = "{247, 0}";
},
{
name = center;
position = "{247, 350}";
},
{
name = ogonek;
position = "{343, 10}";
},
{
name = top;
position = "{247, 700}";
},
{
name = topleft;
position = "{-3, 700}";
},
{
name = topright;
position = "{497, 700}";
}
);
layerId = "6C5F8957-356A-4AA4-B78F-9BBB75A580E3";
paths = (
{
closed = 1;
nodes = (
"425 69 OFFCURVE",
"450 199 OFFCURVE",
"450 364 CURVE SMOOTH",
"450 513 OFFCURVE",
"427 647 OFFCURVE",
"420 662 CURVE SMOOTH",
"410 684 OFFCURVE",
"367 667 OFFCURVE",
"337 667 CURVE",
"285 620 LINE",
"285 620 OFFCURVE",
"285 518 OFFCURVE",
"285 364 CURVE SMOOTH",
"285 315 OFFCURVE",
"281 200 OFFCURVE",
"274 77 CURVE SMOOTH",
"270 0 OFFCURVE",
"385 17 OFFCURVE",
"406 44 CURVE SMOOTH"
);
},
{
closed = 1;
nodes = (
"298 -16 OFFCURVE",
"385 17 OFFCURVE",
"406 44 CURVE SMOOTH",
"425 69 OFFCURVE",
"391 143 OFFCURVE",
"389 157 CURVE",
"359 148 OFFCURVE",
"291 132 OFFCURVE",
"243 132 CURVE SMOOTH",
"207 132 OFFCURVE",
"178 138 OFFCURVE",
"143 159 CURVE",
"59 47 LINE",
"84 24 OFFCURVE",
"151 -16 OFFCURVE",
"243 -16 CURVE SMOOTH"
);
},
{
closed = 1;
nodes = (
"84 24 OFFCURVE",
"200 0 OFFCURVE",
"196 77 CURVE SMOOTH",
"193 133 OFFCURVE",
"190 234 OFFCURVE",
"190 364 CURVE SMOOTH",
"190 474 OFFCURVE",
"190 548 OFFCURVE",
"192 586 CURVE",
"143 677 LINE",
"113 677 OFFCURVE",
"81 667 OFFCURVE",
"69 656 CURVE SMOOTH",
"50 639 OFFCURVE",
"25 513 OFFCURVE",
"25 364 CURVE SMOOTH",
"25 199 OFFCURVE",
"34 70 OFFCURVE",
"59 47 CURVE SMOOTH"
);
},
{
closed = 1;
nodes = (
"164 550 OFFCURVE",
"229 568 OFFCURVE",
"274 568 CURVE SMOOTH",
"288 568 OFFCURVE",
"322 566 OFFCURVE",
"334 564 CURVE SMOOTH",
"397 553 OFFCURVE",
"427 647 OFFCURVE",
"420 662 CURVE SMOOTH",
"410 684 OFFCURVE",
"380 720 OFFCURVE",
"330 720 CURVE SMOOTH",
"223 720 OFFCURVE",
"90 677 OFFCURVE",
"69 656 CURVE SMOOTH",
"51 638 OFFCURVE",
"74 507 OFFCURVE",
"143 540 CURVE"
);
}
);
width = 475;
},
{
associatedMasterId = "6C5F8957-356A-4AA4-B78F-9BBB75A580E3";
backgroundImage = {
crop = "{{0, 0}, {90.72, 129.12}}";
imagePath = "../../Desktop/PERSONAL TYPEFACES/MANOSQUE/letterscans/OCAP.jpg";
locked = "1";
transform = "{6.16504, 0, 0, 6.16504, -19, -40}";
};
layerId = "4922CAD6-B5B4-4BD0-9B4E-FE2F207253EE";
name = "Jul 27 19, 17:35";
paths = (
{
closed = 1;
nodes = (
"65 639 OFFCURVE",
"45 513 OFFCURVE",
"45 364 CURVE SMOOTH",
"45 195 OFFCURVE",
"49 70 OFFCURVE",
"74 47 CURVE SMOOTH",
"99 24 OFFCURVE",
"221 60 OFFCURVE",
"217 137 CURVE SMOOTH",
"214 193 OFFCURVE",
"204 284 OFFCURVE",
"204 364 CURVE SMOOTH",
"204 424 OFFCURVE",
"211 518 OFFCURVE",
"213 561 CURVE SMOOTH",
"214 582 OFFCURVE",
"222 604 OFFCURVE",
"222 625 CURVE SMOOTH",
"222 653 OFFCURVE",
"205 677 OFFCURVE",
"164 677 CURVE SMOOTH",
"134 677 OFFCURVE",
"96 667 OFFCURVE",
"84 656 CURVE SMOOTH"
);
},
{
closed = 1;
nodes = (
"342 -16 OFFCURVE",
"433 21 OFFCURVE",
"450 44 CURVE SMOOTH",
"467 67 OFFCURVE",
"485 141 OFFCURVE",
"485 194 CURVE",
"423 157 LINE",
"393 148 OFFCURVE",
"335 137 OFFCURVE",
"298 137 CURVE SMOOTH",
"249 137 OFFCURVE",
"209 148 OFFCURVE",
"174 169 CURVE",
"74 47 LINE",
"99 24 OFFCURVE",
"182 -16 OFFCURVE",
"264 -16 CURVE SMOOTH"
);
},
{
closed = 1;
nodes = (
"215 556 OFFCURVE",
"263 568 OFFCURVE",
"308 568 CURVE SMOOTH",
"322 568 OFFCURVE",
"356 566 OFFCURVE",
"368 564 CURVE SMOOTH",
"414 556 OFFCURVE",
"470 585 OFFCURVE",
"469 599 CURVE SMOOTH",
"467 622 OFFCURVE",
"461 647 OFFCURVE",
"454 662 CURVE SMOOTH",
"444 684 OFFCURVE",
"404 720 OFFCURVE",
"354 720 CURVE SMOOTH",
"245 720 OFFCURVE",
"105 677 OFFCURVE",
"84 656 CURVE SMOOTH",
"66 638 OFFCURVE",
"115 513 OFFCURVE",
"194 546 CURVE"
);
},
{
closed = 1;
nodes = (
"467 622 OFFCURVE",
"401 667 OFFCURVE",
"371 667 CURVE SMOOTH",
"330 667 OFFCURVE",
"321 643 OFFCURVE",
"321 615 CURVE SMOOTH",
"321 594 OFFCURVE",
"321 572 OFFCURVE",
"322 551 CURVE SMOOTH",
"324 508 OFFCURVE",
"321 424 OFFCURVE",
"321 364 CURVE SMOOTH",
"321 284 OFFCURVE",
"311 193 OFFCURVE",
"308 137 CURVE SMOOTH",
"304 60 OFFCURVE",
"426 24 OFFCURVE",
"451 47 CURVE SMOOTH",
"476 70 OFFCURVE",
"485 141 OFFCURVE",
"485 194 CURVE SMOOTH",
"485 343 OFFCURVE",
"470 585 OFFCURVE",
"469 599 CURVE SMOOTH"
);
}
);
width = 530;
},
{
anchors = (
{
name = bottom;
position = "{264, 0}";
},
{
name = center;
position = "{264, 350}";
},
{
name = ogonek;
position = "{480, 10}";
},
{
name = top;
position = "{264, 700}";
},
{
name = topleft;
position = "{14, 700}";
},
{
name = topright;
position = "{514, 700}";
}
);
associatedMasterId = "6C5F8957-356A-4AA4-B78F-9BBB75A580E3";
backgroundImage = {
crop = "{{0, 0}, {73.68, 111.84}}";
imagePath = "../../Desktop/PERSONAL TYPEFACES/MANOSQUE/2020-corrections/O.jpg";
locked = "1";
transform = "{6.79481, 0, 0, 6.79481, 23, -30}";
};
layerId = "C4A86496-E50E-4E69-A406-73F999EDD1D5";
name = "Mar 30 20, 22:53";
paths = (
{
closed = 1;
nodes = (
"463 69 OFFCURVE",
"489 199 OFFCURVE",
"489 364 CURVE SMOOTH",
"489 513 OFFCURVE",
"465 647 OFFCURVE",
"458 662 CURVE SMOOTH",
"448 684 OFFCURVE",
"395 667 OFFCURVE",
"365 667 CURVE SMOOTH",
"324 667 OFFCURVE",
"315 663 OFFCURVE",
"315 640 CURVE SMOOTH",
"315 614 OFFCURVE",
"315 602 OFFCURVE",
"316 586 CURVE SMOOTH",
"318 538 OFFCURVE",
"318 474 OFFCURVE",
"318 364 CURVE SMOOTH",
"318 234 OFFCURVE",
"305 133 OFFCURVE",
"302 77 CURVE SMOOTH",
"298 0 OFFCURVE",
"423 17 OFFCURVE",
"444 44 CURVE SMOOTH"
);
},
{
closed = 1;
nodes = (
"336 -16 OFFCURVE",
"427 21 OFFCURVE",
"444 44 CURVE SMOOTH",
"463 69 OFFCURVE",
"419 143 OFFCURVE",
"417 157 CURVE",
"387 148 OFFCURVE",
"329 137 OFFCURVE",
"292 137 CURVE SMOOTH",
"243 137 OFFCURVE",
"193 138 OFFCURVE",
"158 159 CURVE",
"64 47 LINE",
"89 24 OFFCURVE",
"176 -16 OFFCURVE",
"258 -16 CURVE SMOOTH"
);
},
{
closed = 1;
nodes = (
"89 24 OFFCURVE",
"215 0 OFFCURVE",
"211 77 CURVE SMOOTH",
"208 133 OFFCURVE",
"205 234 OFFCURVE",
"205 364 CURVE SMOOTH",
"205 474 OFFCURVE",
"205 548 OFFCURVE",
"207 586 CURVE SMOOTH",
"208 612 OFFCURVE",
"216 624 OFFCURVE",
"216 640 CURVE SMOOTH",
"216 673 OFFCURVE",
"199 677 OFFCURVE",
"158 677 CURVE SMOOTH",
"128 677 OFFCURVE",
"86 667 OFFCURVE",
"74 656 CURVE SMOOTH",
"55 639 OFFCURVE",
"35 513 OFFCURVE",
"35 364 CURVE SMOOTH",
"35 199 OFFCURVE",
"39 70 OFFCURVE",
"64 47 CURVE SMOOTH"
);
},
{
closed = 1;
nodes = (
"179 550 OFFCURVE",
"257 568 OFFCURVE",
"302 568 CURVE SMOOTH",
"316 568 OFFCURVE",
"350 566 OFFCURVE",
"362 564 CURVE SMOOTH",
"425 553 OFFCURVE",
"465 647 OFFCURVE",
"458 662 CURVE SMOOTH",
"448 684 OFFCURVE",
"408 720 OFFCURVE",
"358 720 CURVE SMOOTH",
"249 720 OFFCURVE",
"95 677 OFFCURVE",
"74 656 CURVE SMOOTH",
"56 638 OFFCURVE",
"79 507 OFFCURVE",
"158 540 CURVE"
);
}
);
width = 524;
}
);
leftKerningGroup = O;
rightKerningGroup = O;
unicode = 004F;
},
{
glyphname = Oslash;
lastChange = "2020-07-21 09:24:30 +0000";
layers = (
{
anchors = (
{
name = bottom;
position = "{257, 0}";
},
{
name = top;
position = "{257, 700}";
}
);
layerId = "6C5F8957-356A-4AA4-B78F-9BBB75A580E3";
paths = (
{
closed = 1;
nodes = (
"215 63 OFFCURVE",
"373 540 OFFCURVE",
"373 654 CURVE",
"308 650 LINE",
"292 615 OFFCURVE",
"160 164 OFFCURVE",
"160 78 CURVE",
"196 34 LINE"
);
},
{
closed = 1;
nodes = (
"175 -44 OFFCURVE",
"196 7 OFFCURVE",
"196 34 CURVE",
"129 34 LINE",
"115 18 OFFCURVE",
"107 -2 OFFCURVE",
"107 -22 CURVE SMOOTH",
"107 -37 OFFCURVE",
"139 -44 OFFCURVE",
"157 -44 CURVE SMOOTH"
);
},
{
closed = 1;
nodes = (
"293 -16 OFFCURVE",
"428 17 OFFCURVE",
"449 44 CURVE SMOOTH",
"468 69 OFFCURVE",
"434 143 OFFCURVE",
"432 157 CURVE",
"402 148 OFFCURVE",
"286 132 OFFCURVE",
"238 132 CURVE SMOOTH",
"202 132 OFFCURVE",
"183 138 OFFCURVE",
"148 159 CURVE",
"64 47 LINE",
"89 24 OFFCURVE",
"146 -16 OFFCURVE",
"238 -16 CURVE SMOOTH"
);
},
{
closed = 1;
nodes = (
"89 24 OFFCURVE",
"195 0 OFFCURVE",
"191 77 CURVE SMOOTH",
"188 133 OFFCURVE",
"185 234 OFFCURVE",
"185 364 CURVE SMOOTH",
"185 474 OFFCURVE",
"185 548 OFFCURVE",
"187 586 CURVE",
"148 677 LINE",
"118 677 OFFCURVE",
"86 667 OFFCURVE",
"74 656 CURVE SMOOTH",
"55 639 OFFCURVE",
"30 513 OFFCURVE",
"30 364 CURVE SMOOTH",
"30 199 OFFCURVE",
"39 70 OFFCURVE",
"64 47 CURVE SMOOTH"
);
},
{
closed = 1;
nodes = (
"468 69 OFFCURVE",
"493 199 OFFCURVE",
"493 364 CURVE SMOOTH",
"493 513 OFFCURVE",
"470 647 OFFCURVE",
"463 662 CURVE SMOOTH",
"453 684 OFFCURVE",
"410 667 OFFCURVE",
"380 667 CURVE",
"333 620 LINE",
"333 620 OFFCURVE",
"333 518 OFFCURVE",
"333 364 CURVE SMOOTH",
"333 315 OFFCURVE",
"329 200 OFFCURVE",
"322 77 CURVE SMOOTH",
"318 0 OFFCURVE",
"428 17 OFFCURVE",
"449 44 CURVE SMOOTH"
);
},
{
closed = 1;
nodes = (
"169 550 OFFCURVE",
"224 568 OFFCURVE",
"269 568 CURVE SMOOTH",
"283 568 OFFCURVE",
"365 566 OFFCURVE",
"377 564 CURVE SMOOTH",
"440 553 OFFCURVE",
"470 647 OFFCURVE",
"463 662 CURVE SMOOTH",
"453 684 OFFCURVE",
"423 720 OFFCURVE",
"373 720 CURVE SMOOTH",
"266 720 OFFCURVE",
"95 677 OFFCURVE",
"74 656 CURVE SMOOTH",
"56 638 OFFCURVE",
"79 507 OFFCURVE",
"148 540 CURVE"
);
},
{
closed = 1;
nodes = (
"394 673 LINE",
"408 689 OFFCURVE",
"416 709 OFFCURVE",
"416 729 CURVE SMOOTH",
"416 744 OFFCURVE",
"384 751 OFFCURVE",
"366 751 CURVE SMOOTH",
"353 751 OFFCURVE",
"330 711 OFFCURVE",
"308 650 CURVE"
);
}
);
width = 523;
}
);
leftKerningGroup = O;
rightKerningGroup = O;
unicode = 00D8;
},
{
glyphname = OE;
lastChange = "2020-04-03 17:27:55 +0000";
layers = (
{
layerId = "6C5F8957-356A-4AA4-B78F-9BBB75A580E3";
paths = (
{
closed = 1;
nodes = (
"439 69 OFFCURVE",
"465 199 OFFCURVE",
"465 364 CURVE SMOOTH",
"465 513 OFFCURVE",
"435 647 OFFCURVE",
"428 662 CURVE",
"291 640 LINE",
"291 614 OFFCURVE",
"291 602 OFFCURVE",
"292 586 CURVE SMOOTH",
"295 538 OFFCURVE",
"294 474 OFFCURVE",
"294 364 CURVE SMOOTH",
"294 234 OFFCURVE",
"281 133 OFFCURVE",
"278 77 CURVE SMOOTH",
"274 0 OFFCURVE",
"399 17 OFFCURVE",
"420 44 CURVE SMOOTH"
);
},
{
closed = 1;
nodes = (
"316 -16 OFFCURVE",
"407 21 OFFCURVE",
"424 44 CURVE SMOOTH",
"443 69 OFFCURVE",
"399 143 OFFCURVE",
"397 157 CURVE",
"367 148 OFFCURVE",
"309 132 OFFCURVE",
"272 132 CURVE SMOOTH",
"223 132 OFFCURVE",
"183 138 OFFCURVE",
"148 159 CURVE",
"54 47 LINE",
"79 24 OFFCURVE",
"166 -16 OFFCURVE",
"248 -16 CURVE SMOOTH"
);
},
{
closed = 1;
nodes = (
"79 24 OFFCURVE",
"205 0 OFFCURVE",
"201 77 CURVE SMOOTH",
"198 133 OFFCURVE",
"195 234 OFFCURVE",
"195 364 CURVE SMOOTH",
"195 474 OFFCURVE",
"195 548 OFFCURVE",
"197 586 CURVE SMOOTH",
"198 612 OFFCURVE",
"206 624 OFFCURVE",
"206 640 CURVE SMOOTH",
"206 673 OFFCURVE",
"189 677 OFFCURVE",
"148 677 CURVE SMOOTH",
"118 677 OFFCURVE",
"76 667 OFFCURVE",
"64 656 CURVE SMOOTH",
"45 639 OFFCURVE",
"25 513 OFFCURVE",
"25 364 CURVE SMOOTH",
"25 199 OFFCURVE",
"29 70 OFFCURVE",
"54 47 CURVE SMOOTH"
);
},
{
closed = 1;
nodes = (
"565 -10 OFFCURVE",
"592 -6 OFFCURVE",
"604 0 CURVE SMOOTH",
"623 10 OFFCURVE",
"656 81 OFFCURVE",
"656 103 CURVE SMOOTH",
"656 118 OFFCURVE",
"644 132 OFFCURVE",
"633 142 CURVE SMOOTH",
"620 154 OFFCURVE",
"604 162 OFFCURVE",
"583 162 CURVE SMOOTH",
"525 162 OFFCURVE",
"444 137 OFFCURVE",
"416 127 CURVE SMOOTH",
"376 113 OFFCURVE",
"316 15 OFFCURVE",
"333 10 CURVE SMOOTH",
"362 1 OFFCURVE",
"423 -10 OFFCURVE",
"502 -10 CURVE SMOOTH"
);
},
{
closed = 1;
nodes = (
"540 259 OFFCURVE",
"562 267 OFFCURVE",
"572 273 CURVE SMOOTH",
"582 279 OFFCURVE",
"613 332 OFFCURVE",
"613 361 CURVE SMOOTH",
"613 380 OFFCURVE",
"608 398 OFFCURVE",
"602 404 CURVE SMOOTH",
"594 412 OFFCURVE",
"564 418 OFFCURVE",
"515 418 CURVE SMOOTH",
"486 418 OFFCURVE",
"414 408 OFFCURVE",
"345 397 CURVE",
"345 270 LINE",
"382 264 OFFCURVE",
"420 259 OFFCURVE",
"480 259 CURVE SMOOTH"
);
},
{
closed = 1;
nodes = (
"169 550 OFFCURVE",
"237 568 OFFCURVE",
"282 568 CURVE SMOOTH",
"296 568 OFFCURVE",
"330 566 OFFCURVE",
"342 564 CURVE SMOOTH",
"405 553 OFFCURVE",
"435 647 OFFCURVE",
"428 662 CURVE SMOOTH",
"418 684 OFFCURVE",
"388 720 OFFCURVE",
"338 720 CURVE SMOOTH",
"229 720 OFFCURVE",
"85 677 OFFCURVE",
"64 656 CURVE SMOOTH",
"46 638 OFFCURVE",
"69 507 OFFCURVE",
"148 540 CURVE"
);
},
{
closed = 1;
nodes = (
"529 549 OFFCURVE",
"578 552 OFFCURVE",
"618 558 CURVE SMOOTH",
"639 561 OFFCURVE",
"665 634 OFFCURVE",
"665 650 CURVE",
"665 666 OFFCURVE",
"657 683 OFFCURVE",
"646 700 CURVE SMOOTH",
"635 717 OFFCURVE",
"628 721 OFFCURVE",
"578 721 CURVE SMOOTH",
"504 721 OFFCURVE",
"353 710 OFFCURVE",
"329 689 CURVE",
"329 564 LINE",
"351 552 OFFCURVE",
"402 549 OFFCURVE",
"476 549 CURVE SMOOTH"
);
}
);
width = 690;
}
);
leftKerningGroup = O;
rightKerningGroup = E;
unicode = 0152;
},
{
glyphname = P;
lastChange = "2020-04-08 14:39:56 +0000";
layers = (
{
anchors = (
{
name = bottom;
position = "{264, 0}";
},
{
name = top;
position = "{264, 700}";
}
);
components = (
{
name = _part.sidebarFPR;
}
);
layerId = "6C5F8957-356A-4AA4-B78F-9BBB75A580E3";
paths = (
{
closed = 1;
nodes = (
"375 275 OFFCURVE",
"430 292 OFFCURVE",
"444 314 CURVE SMOOTH",
"458 336 OFFCURVE",
"470 424 OFFCURVE",
"470 476 CURVE SMOOTH",
"470 528 OFFCURVE",
"460 646 OFFCURVE",
"443 665 CURVE SMOOTH",
"426 684 OFFCURVE",
"345 713 OFFCURVE",
"242 713 CURVE SMOOTH",
"138 713 OFFCURVE",
"47 683 OFFCURVE",
"33 666 CURVE SMOOTH",
"19 649 OFFCURVE",
"9 547 OFFCURVE",
"20 536 CURVE SMOOTH",
"31 525 OFFCURVE",
"57 522 OFFCURVE",
"71 522 CURVE SMOOTH",
"85 522 OFFCURVE",
"154 553 OFFCURVE",
"238 553 CURVE SMOOTH",
"274 553 OFFCURVE",
"294 550 OFFCURVE",
"306 546 CURVE",
"309 525 OFFCURVE",
"311 495 OFFCURVE",
"311 461 CURVE SMOOTH",
"311 404 OFFCURVE",
"306 340 OFFCURVE",
"297 302 CURVE SMOOTH",
"289 269 OFFCURVE",
"327 275 OFFCURVE",
"345 275 CURVE"
);
},
{
closed = 1;
nodes = (
"368 187 OFFCURVE",
"432 295 OFFCURVE",
"444 314 CURVE",
"352 360 LINE",
"312 353 OFFCURVE",
"276 349 OFFCURVE",
"257 349 CURVE SMOOTH",
"221 349 OFFCURVE",
"207 353 OFFCURVE",
"175 360 CURVE",
"175 199 LINE",
"197 193 OFFCURVE",
"257 187 OFFCURVE",
"297 187 CURVE SMOOTH"
);
}
);
width = 490;
},
{
associatedMasterId = "6C5F8957-356A-4AA4-B78F-9BBB75A580E3";
backgroundImage = {
crop = "{{0, 0}, {91.68, 129.12}}";
imagePath = "../../Desktop/PERSONAL TYPEFACES/MANOSQUE/letterscans/PCAP.jpg";
locked = "1";
transform = "{6.15124, 0, 0, 6.15124, 0, -57}";
};
layerId = "3C6B2299-0FC5-4D98-B92E-ADC9720B9CB3";
name = "Jul 27 19, 16:59";
paths = (
{
closed = 1;
nodes = (
"423 365 OFFCURVE",
"478 382 OFFCURVE",
"492 404 CURVE SMOOTH",
"506 426 OFFCURVE",
"518 484 OFFCURVE",
"518 536 CURVE SMOOTH",
"518 588 OFFCURVE",
"508 646 OFFCURVE",
"491 665 CURVE SMOOTH",
"474 684 OFFCURVE",
"393 713 OFFCURVE",
"265 713 CURVE SMOOTH",
"161 713 OFFCURVE",
"70 683 OFFCURVE",
"56 666 CURVE SMOOTH",
"42 649 OFFCURVE",
"42 549 OFFCURVE",
"53 538 CURVE SMOOTH",
"64 527 OFFCURVE",
"80 524 OFFCURVE",
"94 524 CURVE SMOOTH",
"108 524 OFFCURVE",
"177 555 OFFCURVE",
"261 555 CURVE SMOOTH",
"332 555 OFFCURVE",
"343 552 OFFCURVE",
"355 548 CURVE",
"357 534 OFFCURVE",
"359 517 OFFCURVE",
"359 500 CURVE SMOOTH",
"359 475 OFFCURVE",
"355 429 OFFCURVE",
"346 392 CURVE SMOOTH",
"338 359 OFFCURVE",
"375 365 OFFCURVE",
"393 365 CURVE"
);
},
{
closed = 1;
nodes = (
"56 121 OFFCURVE",
"57 52 OFFCURVE",
"64 22 CURVE SMOOTH",
"69 0 OFFCURVE",
"107 -11 OFFCURVE",
"138 -11 CURVE SMOOTH",
"165 -11 OFFCURVE",
"200 0 OFFCURVE",
"208 32 CURVE SMOOTH",
"215 60 OFFCURVE",
"230 295 OFFCURVE",
"230 474 CURVE SMOOTH",
"230 526 OFFCURVE",
"227 664 OFFCURVE",
"221 670 CURVE SMOOTH",
"209 682 OFFCURVE",
"190 686 OFFCURVE",
"163 686 CURVE SMOOTH",
"140 686 OFFCURVE",
"114 679 OFFCURVE",
"95 665 CURVE SMOOTH",
"76 651 OFFCURVE",
"56 317 OFFCURVE",
"56 196 CURVE SMOOTH"
);
},
{
closed = 1;
nodes = (
"210 273 OFFCURVE",
"250 267 OFFCURVE",
"290 267 CURVE SMOOTH",
"366 267 OFFCURVE",
"480 385 OFFCURVE",
"492 404 CURVE",
"400 450 LINE",
"318 435 OFFCURVE",
"210 435 OFFCURVE",
"188 438 CURVE",
"188 279 LINE"
);
}
);
width = 600;
}
);
leftKerningGroup = EF;
rightKerningGroup = P;
unicode = 0050;
},
{
glyphname = Thorn;
lastChange = "2020-04-04 08:37:24 +0000";
layers = (
{
components = (
{
name = _part.bar;
transform = "{1, 0, 0, 1, -10, 0}";
}
);
layerId = "6C5F8957-356A-4AA4-B78F-9BBB75A580E3";
paths = (
{
closed = 1;
nodes = (
"441 252 LINE",
"455 274 OFFCURVE",
"470 297 OFFCURVE",
"470 349 CURVE SMOOTH",
"470 401 OFFCURVE",
"460 525 OFFCURVE",
"443 544 CURVE SMOOTH",
"426 563 OFFCURVE",
"345 592 OFFCURVE",
"242 592 CURVE SMOOTH",
"192 592 OFFCURVE",
"145 579 OFFCURVE",
"111 570 CURVE",
"111 413 LINE",
"145 421 OFFCURVE",
"189 432 OFFCURVE",
"238 432 CURVE SMOOTH",
"274 432 OFFCURVE",
"294 429 OFFCURVE",
"306 425 CURVE",
"309 404 OFFCURVE",
"311 368 OFFCURVE",
"311 334 CURVE SMOOTH",
"311 277 OFFCURVE",
"306 213 OFFCURVE",
"297 175 CURVE"
);
},
{
closed = 1;
nodes = (
"355 127 OFFCURVE",
"429 233 OFFCURVE",
"441 252 CURVE",
"349 298 LINE",
"309 291 OFFCURVE",
"273 287 OFFCURVE",
"244 287 CURVE SMOOTH",
"208 287 OFFCURVE",
"174 291 OFFCURVE",
"142 298 CURVE",
"142 139 LINE",
"164 133 OFFCURVE",
"244 127 OFFCURVE",
"284 127 CURVE SMOOTH"
);
}
);
width = 495;
}
);
leftKerningGroup = H;
unicode = 00DE;
},
{
glyphname = Q;
lastChange = "2020-07-21 09:24:47 +0000";
layers = (
{
anchors = (
{
name = bottom;
position = "{260, 0}";
},
{
name = top;
position = "{260, 700}";
}
);
components = (
{
name = O;
}
);
layerId = "6C5F8957-356A-4AA4-B78F-9BBB75A580E3";
paths = (
{
closed = 1;
nodes = (
"357 -98 OFFCURVE",
"411 -94 OFFCURVE",
"433 -79 CURVE SMOOTH",
"455 -64 OFFCURVE",
"463 -30 OFFCURVE",
"463 -14 CURVE SMOOTH",
"463 8 OFFCURVE",
"398 33 OFFCURVE",
"374 47 CURVE",
"417 10 LINE",
"401 30 OFFCURVE",
"380 69 OFFCURVE",
"369 90 CURVE",
"255 63 LINE",
"255 31 OFFCURVE",
"260 -1 OFFCURVE",
"267 -16 CURVE SMOOTH",
"285 -54 OFFCURVE",
"311 -83 OFFCURVE",
"332 -90 CURVE SMOOTH"
);
}
);
width = 488;
}
);
leftKerningGroup = O;
leftMetricsKey = O;
rightKerningGroup = O;
unicode = 0051;
},
{
glyphname = R;
lastChange = "2020-07-21 14:40:57 +0000";
layers = (
{
anchors = (
{
name = bottom;
position = "{260, 0}";
},
{
name = top;
position = "{217, 718}";
}
);
components = (
{
name = _part.sidebarFPR;
}
);
layerId = "6C5F8957-356A-4AA4-B78F-9BBB75A580E3";
paths = (
{
closed = 1;
nodes = (
"354 295 OFFCURVE",
"418 355 OFFCURVE",
"432 377 CURVE SMOOTH",
"454 411 OFFCURVE",
"459 431 OFFCURVE",
"459 476 CURVE SMOOTH",
"459 533 OFFCURVE",
"448 651 OFFCURVE",
"431 670 CURVE SMOOTH",
"414 689 OFFCURVE",
"319 718 OFFCURVE",
"217 718 CURVE SMOOTH",
"113 718 OFFCURVE",
"47 688 OFFCURVE",
"33 671 CURVE SMOOTH",
"23 659 OFFCURVE",
"15 623 OFFCURVE",
"15 592 CURVE SMOOTH",
"15 579 OFFCURVE",
"17 569 OFFCURVE",
"20 566 CURVE SMOOTH",
"31 555 OFFCURVE",
"47 552 OFFCURVE",
"61 552 CURVE SMOOTH",
"75 552 OFFCURVE",
"129 573 OFFCURVE",
"213 573 CURVE SMOOTH",
"246 573 OFFCURVE",
"280 568 OFFCURVE",
"300 560 CURVE",
"292 583 LINE",
"296 568 OFFCURVE",
"299 535 OFFCURVE",
"299 495 CURVE SMOOTH",
"299 454 OFFCURVE",
"295 413 OFFCURVE",
"288 392 CURVE SMOOTH",
"277 360 OFFCURVE",
"306 295 OFFCURVE",
"324 295 CURVE"
);
},
{
closed = 1;
nodes = (
"379 -10 OFFCURVE",
"404 -2 OFFCURVE",
"415 7 CURVE SMOOTH",
"426 16 OFFCURVE",
"474 76 OFFCURVE",
"474 103 CURVE SMOOTH",
"474 114 OFFCURVE",
"454 126 OFFCURVE",
"443 137 CURVE SMOOTH",
"362 212 OFFCURVE",
"303 282 OFFCURVE",
"295 312 CURVE",
"270 312 OFFCURVE",
"212 255 OFFCURVE",
"212 226 CURVE SMOOTH",
"212 211 OFFCURVE",
"241 148 OFFCURVE",
"278 90 CURVE SMOOTH",
"312 38 OFFCURVE",
"349 -10 OFFCURVE",
"363 -10 CURVE SMOOTH"
);
},
{
closed = 1;
nodes = (
"306 240 OFFCURVE",
"418 355 OFFCURVE",
"432 377 CURVE",
"340 423 LINE",
"258 408 OFFCURVE",
"190 408 OFFCURVE",
"168 411 CURVE",
"168 252 LINE",
"190 246 OFFCURVE",
"210 240 OFFCURVE",
"250 240 CURVE SMOOTH"
);
}
);
width = 479;
},
{
associatedMasterId = "6C5F8957-356A-4AA4-B78F-9BBB75A580E3";
backgroundImage = {
crop = "{{0, 0}, {115.92, 133.2}}";
imagePath = "../../Desktop/PERSONAL TYPEFACES/MANOSQUE/letterscans/RCAP.jpg";
locked = "1";
transform = "{6.17343, 0, 0, 6.17343, -90, -66}";
};
layerId = "FF4F326F-C4CF-47D7-8F03-14F14BB57029";
name = "Jul 27 19, 16:59";
paths = (
{
closed = 1;
nodes = (
"423 365 OFFCURVE",
"478 382 OFFCURVE",
"492 404 CURVE SMOOTH",
"506 426 OFFCURVE",
"518 484 OFFCURVE",
"518 536 CURVE SMOOTH",
"518 588 OFFCURVE",
"508 646 OFFCURVE",
"491 665 CURVE SMOOTH",
"474 684 OFFCURVE",
"393 713 OFFCURVE",
"265 713 CURVE SMOOTH",
"161 713 OFFCURVE",
"70 683 OFFCURVE",
"56 666 CURVE SMOOTH",
"42 649 OFFCURVE",
"42 549 OFFCURVE",
"53 538 CURVE SMOOTH",
"64 527 OFFCURVE",
"80 524 OFFCURVE",
"94 524 CURVE SMOOTH",
"108 524 OFFCURVE",
"177 555 OFFCURVE",
"261 555 CURVE SMOOTH",
"332 555 OFFCURVE",
"343 552 OFFCURVE",
"355 548 CURVE",
"357 534 OFFCURVE",
"359 517 OFFCURVE",
"359 500 CURVE SMOOTH",
"359 475 OFFCURVE",
"355 429 OFFCURVE",
"346 392 CURVE SMOOTH",
"338 359 OFFCURVE",
"375 365 OFFCURVE",
"393 365 CURVE"
);
},
{
closed = 1;
nodes = (
"56 121 OFFCURVE",
"57 52 OFFCURVE",
"64 22 CURVE SMOOTH",
"69 0 OFFCURVE",
"107 -11 OFFCURVE",
"138 -11 CURVE SMOOTH",
"165 -11 OFFCURVE",
"200 0 OFFCURVE",
"208 32 CURVE SMOOTH",
"215 60 OFFCURVE",
"230 295 OFFCURVE",
"230 474 CURVE SMOOTH",
"230 526 OFFCURVE",
"227 664 OFFCURVE",
"221 670 CURVE SMOOTH",
"209 682 OFFCURVE",
"190 686 OFFCURVE",
"163 686 CURVE SMOOTH",
"140 686 OFFCURVE",
"114 679 OFFCURVE",
"95 665 CURVE SMOOTH",
"76 651 OFFCURVE",
"56 317 OFFCURVE",
"56 196 CURVE SMOOTH"
);
},
{
closed = 1;
nodes = (
"210 273 OFFCURVE",
"250 267 OFFCURVE",
"290 267 CURVE SMOOTH",
"366 267 OFFCURVE",
"480 385 OFFCURVE",
"492 404 CURVE",
"400 450 LINE",
"318 435 OFFCURVE",
"210 435 OFFCURVE",
"188 438 CURVE",
"188 279 LINE"
);
},
{
closed = 1;
nodes = (
"297 339 LINE SMOOTH",
"276 339 OFFCURVE",
"242 302 OFFCURVE",
"242 273 CURVE SMOOTH",
"242 258 OFFCURVE",
"274 170 OFFCURVE",
"317 103 CURVE SMOOTH",
"358 39 OFFCURVE",
"400 -11 OFFCURVE",
"418 -11 CURVE SMOOTH",
"434 -11 OFFCURVE",
"459 -3 OFFCURVE",
"470 6 CURVE SMOOTH",
"481 15 OFFCURVE",
"524 85 OFFCURVE",
"524 112 CURVE SMOOTH",
"524 125 OFFCURVE",
"481 161 OFFCURVE",
"438 219 CURVE SMOOTH",
"398 272 OFFCURVE",
"385 290 OFFCURVE",
"365 339 CURVE"
);
}
);
width = 600;
},
{
associatedMasterId = "6C5F8957-356A-4AA4-B78F-9BBB75A580E3";
backgroundImage = {
crop = "{{0, 0}, {115.92, 133.2}}";
imagePath = "../../Desktop/PERSONAL TYPEFACES/MANOSQUE/letterscans/RCAP.jpg";
locked = "1";
transform = "{6.17343, 0, 0, 6.17343, -90, -66}";
};
layerId = "C39DE871-5801-4BE6-88CF-EFA0C8817573";
name = "Jul 27 19, 18:15";
paths = (
{
closed = 1;
nodes = (
"423 345 OFFCURVE",
"478 362 OFFCURVE",
"492 384 CURVE SMOOTH",
"506 406 OFFCURVE",
"518 464 OFFCURVE",
"518 516 CURVE SMOOTH",
"518 568 OFFCURVE",
"508 646 OFFCURVE",
"491 665 CURVE SMOOTH",
"474 684 OFFCURVE",
"393 713 OFFCURVE",
"265 713 CURVE SMOOTH",
"161 713 OFFCURVE",
"70 683 OFFCURVE",
"56 666 CURVE SMOOTH",
"42 649 OFFCURVE",
"42 549 OFFCURVE",
"53 538 CURVE SMOOTH",
"64 527 OFFCURVE",
"80 524 OFFCURVE",
"94 524 CURVE SMOOTH",
"108 524 OFFCURVE",
"177 555 OFFCURVE",
"261 555 CURVE SMOOTH",
"332 555 OFFCURVE",
"343 552 OFFCURVE",
"355 548 CURVE",
"357 534 OFFCURVE",
"359 517 OFFCURVE",
"359 500 CURVE SMOOTH",
"359 455 OFFCURVE",
"355 409 OFFCURVE",
"346 372 CURVE SMOOTH",
"338 339 OFFCURVE",
"375 345 OFFCURVE",
"393 345 CURVE"
);
},
{
closed = 1;
nodes = (
"56 121 OFFCURVE",
"57 52 OFFCURVE",
"64 22 CURVE SMOOTH",
"69 0 OFFCURVE",
"107 -11 OFFCURVE",
"138 -11 CURVE SMOOTH",
"165 -11 OFFCURVE",
"200 0 OFFCURVE",
"208 32 CURVE SMOOTH",
"215 60 OFFCURVE",
"230 275 OFFCURVE",
"230 454 CURVE SMOOTH",
"230 506 OFFCURVE",
"227 664 OFFCURVE",
"221 670 CURVE SMOOTH",
"209 682 OFFCURVE",
"190 686 OFFCURVE",
"163 686 CURVE SMOOTH",
"140 686 OFFCURVE",
"114 679 OFFCURVE",
"95 665 CURVE SMOOTH",
"76 651 OFFCURVE",
"56 317 OFFCURVE",
"56 196 CURVE SMOOTH"
);
},
{
closed = 1;
nodes = (
"210 253 OFFCURVE",
"250 247 OFFCURVE",
"290 247 CURVE SMOOTH",
"366 247 OFFCURVE",
"480 365 OFFCURVE",
"492 384 CURVE",
"400 430 LINE",
"318 415 OFFCURVE",
"210 415 OFFCURVE",
"188 418 CURVE",
"188 259 LINE"
);
},
{
closed = 1;
nodes = (
"297 339 LINE SMOOTH",
"276 339 OFFCURVE",
"242 302 OFFCURVE",
"242 273 CURVE SMOOTH",
"242 258 OFFCURVE",
"274 170 OFFCURVE",
"317 103 CURVE SMOOTH",
"358 39 OFFCURVE",
"400 -11 OFFCURVE",
"418 -11 CURVE SMOOTH",
"434 -11 OFFCURVE",
"459 -3 OFFCURVE",
"470 6 CURVE SMOOTH",
"481 15 OFFCURVE",
"524 85 OFFCURVE",
"524 112 CURVE SMOOTH",
"524 125 OFFCURVE",
"481 161 OFFCURVE",
"438 219 CURVE SMOOTH",
"398 272 OFFCURVE",
"385 290 OFFCURVE",
"365 339 CURVE"
);
}
);
width = 569;
}
);
leftKerningGroup = EF;
leftMetricsKey = E;
rightKerningGroup = R;
unicode = 0052;
},
{
glyphname = S;
lastChange = "2020-07-20 12:24:03 +0000";
layers = (
{
anchors = (
{
name = bottom;
position = "{243, -10}";
},
{
name = top;
position = "{243, 700}";
}
);
guideLines = (
{
angle = 90;
position = "{181, 209}";
}
);
layerId = "6C5F8957-356A-4AA4-B78F-9BBB75A580E3";
paths = (
{
closed = 1;
nodes = (
"377 272 OFFCURVE",
"447 332 OFFCURVE",
"438 360 CURVE SMOOTH",
"428 392 OFFCURVE",
"199 464 OFFCURVE",
"156 473 CURVE",
"186 439 LINE",
"182 463 OFFCURVE",
"180 490 OFFCURVE",
"180 514 CURVE SMOOTH",
"180 543 OFFCURVE",
"183 569 OFFCURVE",
"186 579 CURVE",
"37 609 LINE",
"32 595 OFFCURVE",
"25 552 OFFCURVE",
"25 506 CURVE SMOOTH",
"25 451 OFFCURVE",
"34 392 OFFCURVE",
"50 376 CURVE SMOOTH",
"79 347 OFFCURVE",
"251 272 OFFCURVE",
"314 272 CURVE SMOOTH"
);
},
{
closed = 1;
nodes = (
"317 -20 OFFCURVE",
"395 23 OFFCURVE",
"439 87 CURVE SMOOTH",
"447 99 OFFCURVE",
"460 145 OFFCURVE",
"404 145 CURVE",
"349 135 OFFCURVE",
"321 125 OFFCURVE",
"261 125 CURVE SMOOTH",
"230 125 OFFCURVE",
"188 139 OFFCURVE",
"155 160 CURVE",
"175 112 LINE",
"179 126 OFFCURVE",
"181 165 OFFCURVE",
"181 209 CURVE",
"181 223 OFFCURVE",
"180 236 OFFCURVE",
"177 249 CURVE SMOOTH",
"173 265 OFFCURVE",
"148 272 OFFCURVE",
"113 272 CURVE SMOOTH",
"90 272 OFFCURVE",
"40 259 OFFCURVE",
"34 241 CURVE SMOOTH",
"27 221 OFFCURVE",
"25 187 OFFCURVE",
"25 151 CURVE SMOOTH",
"25 128 OFFCURVE",
"28 74 OFFCURVE",
"34 65 CURVE SMOOTH",
"44 50 OFFCURVE",
"185 -20 OFFCURVE",
"270 -20 CURVE SMOOTH"
);
},
{
closed = 1;
nodes = (
"447 99 OFFCURVE",
"460 170 OFFCURVE",
"460 211 CURVE SMOOTH",
"460 269 OFFCURVE",
"447 332 OFFCURVE",
"438 360 CURVE",
"274 322 LINE",
"291 299 OFFCURVE",
"298 261 OFFCURVE",
"298 222 CURVE SMOOTH",
"298 183 OFFCURVE",
"291 143 OFFCURVE",
"279 116 CURVE",
"439 87 LINE"
);
},
{
closed = 1;
nodes = (
"183 556 OFFCURVE",
"225 566 OFFCURVE",
"291 566 CURVE SMOOTH",
"335 566 OFFCURVE",
"388 561 OFFCURVE",
"456 553 CURVE",
"456 603 OFFCURVE",
"452 660 OFFCURVE",
"448 667 CURVE SMOOTH",
"444 674 OFFCURVE",
"426 695 OFFCURVE",
"416 700 CURVE SMOOTH",
"405 705 OFFCURVE",
"379 713 OFFCURVE",
"337 713 CURVE SMOOTH",
"245 713 OFFCURVE",
"139 700 OFFCURVE",
"120 689 CURVE SMOOTH",
"101 678 OFFCURVE",
"49 643 OFFCURVE",
"37 609 CURVE",
"152 546 LINE"
);
},
{
closed = 1;
nodes = (
"378 460 OFFCURVE",
"436 492 OFFCURVE",
"448 505 CURVE SMOOTH",
"454 512 OFFCURVE",
"456 517 OFFCURVE",
"456 553 CURVE SMOOTH",
"456 586 OFFCURVE",
"449 615 OFFCURVE",
"445 632 CURVE SMOOTH",
"440 652 OFFCURVE",
"403 671 OFFCURVE",
"377 671 CURVE SMOOTH",
"349 671 OFFCURVE",
"313 653 OFFCURVE",
"310 632 CURVE SMOOTH",
"304 590 OFFCURVE",
"300 571 OFFCURVE",
"300 533 CURVE SMOOTH",
"300 510 OFFCURVE",
"302 481 OFFCURVE",
"306 476 CURVE SMOOTH",
"311 469 OFFCURVE",
"327 460 OFFCURVE",
"350 460 CURVE SMOOTH"
);
}
);
width = 485;
},
{
associatedMasterId = "6C5F8957-356A-4AA4-B78F-9BBB75A580E3";
backgroundImage = {
crop = "{{0, 0}, {90.72, 127}}";
imagePath = "../../Desktop/PERSONAL TYPEFACES/MANOSQUE/letterscans/SCAP.jpg";
locked = "1";
transform = "{6.17424, 0, 0, 6.17424, 0, -55}";
};
layerId = "8349B597-D0E3-4EF3-B71C-60CF474AF04F";
name = "Jul 27 19, 18:08";
paths = (
{
closed = 1;
nodes = (
"314 590 OFFCURVE",
"310 571 OFFCURVE",
"310 533 CURVE SMOOTH",
"310 512 OFFCURVE",
"312 495 OFFCURVE",
"313 484 CURVE SMOOTH",
"314 476 OFFCURVE",
"332 460 OFFCURVE",
"360 460 CURVE SMOOTH",
"388 460 OFFCURVE",
"446 492 OFFCURVE",
"458 505 CURVE SMOOTH",
"464 512 OFFCURVE",
"466 537 OFFCURVE",
"466 573 CURVE SMOOTH",
"466 606 OFFCURVE",
"459 615 OFFCURVE",
"455 632 CURVE SMOOTH",
"450 652 OFFCURVE",
"413 671 OFFCURVE",
"387 671 CURVE SMOOTH",
"359 671 OFFCURVE",
"323 653 OFFCURVE",
"320 632 CURVE SMOOTH"
);
},
{
closed = 1;
nodes = (
"57 609 LINE",
"47 578 OFFCURVE",
"41 405 OFFCURVE",
"70 376 CURVE SMOOTH",
"99 347 OFFCURVE",
"241 282 OFFCURVE",
"304 282 CURVE SMOOTH",
"367 282 OFFCURVE",
"447 332 OFFCURVE",
"438 360 CURVE SMOOTH",
"429 389 OFFCURVE",
"216 460 OFFCURVE",
"191 470 CURVE",
"197 511 OFFCURVE",
"197 559 OFFCURVE",
"194 579 CURVE"
);
},
{
closed = 1;
nodes = (
"124 678 OFFCURVE",
"69 643 OFFCURVE",
"57 609 CURVE",
"172 546 LINE",
"213 563 OFFCURVE",
"363 573 OFFCURVE",
"466 573 CURVE",
"466 623 OFFCURVE",
"462 660 OFFCURVE",
"458 667 CURVE SMOOTH",
"454 674 OFFCURVE",
"436 695 OFFCURVE",
"426 700 CURVE SMOOTH",
"415 705 OFFCURVE",
"389 713 OFFCURVE",
"347 713 CURVE SMOOTH",
"305 713 OFFCURVE",
"160 695 OFFCURVE",
"140 689 CURVE"
);
},
{
closed = 1;
nodes = (
"110 272 OFFCURVE",
"60 259 OFFCURVE",
"54 241 CURVE SMOOTH",
"47 221 OFFCURVE",
"45 187 OFFCURVE",
"45 151 CURVE SMOOTH",
"45 128 OFFCURVE",
"48 74 OFFCURVE",
"54 65 CURVE SMOOTH",
"64 50 OFFCURVE",
"175 -20 OFFCURVE",
"260 -20 CURVE SMOOTH",
"325 -20 OFFCURVE",
"417 55 OFFCURVE",
"439 87 CURVE SMOOTH",
"447 99 OFFCURVE",
"460 161 OFFCURVE",
"414 161 CURVE",
"366 141 OFFCURVE",
"372 153 OFFCURVE",
"311 143 CURVE SMOOTH",
"255 134 OFFCURVE",
"210 153 OFFCURVE",
"200 168 CURVE",
"202 184 OFFCURVE",
"202 196 OFFCURVE",
"202 209 CURVE",
"202 223 OFFCURVE",
"201 236 OFFCURVE",
"198 249 CURVE SMOOTH",
"194 265 OFFCURVE",
"168 272 OFFCURVE",
"133 272 CURVE SMOOTH"
);
},
{
closed = 1;
nodes = (
"290 281 OFFCURVE",
"304 227 OFFCURVE",
"304 202 CURVE SMOOTH",
"304 177 OFFCURVE",
"302 144 OFFCURVE",
"295 126 CURVE SMOOTH",
"288 108 OFFCURVE",
"431 75 OFFCURVE",
"439 87 CURVE SMOOTH",
"447 99 OFFCURVE",
"460 170 OFFCURVE",
"460 211 CURVE SMOOTH",
"460 269 OFFCURVE",
"447 332 OFFCURVE",
"438 360 CURVE SMOOTH",
"429 389 OFFCURVE",
"330 325 OFFCURVE",
"283 312 CURVE"
);
}
);
width = 511;
}
);
leftKerningGroup = S;
rightKerningGroup = S;
unicode = 0053;
},
{
glyphname = Germandbls;
lastChange = "2020-07-21 11:37:47 +0000";
layers = (
{
layerId = "6C5F8957-356A-4AA4-B78F-9BBB75A580E3";
paths = (
{
closed = 1;
nodes = (
"451 -26 OFFCURVE",
"503 16 OFFCURVE",
"526 57 CURVE SMOOTH",
"538 78 OFFCURVE",
"565 133 OFFCURVE",
"565 188 CURVE SMOOTH",
"565 240 OFFCURVE",
"564 295 OFFCURVE",
"550 314 CURVE SMOOTH",
"517 360 OFFCURVE",
"457 405 OFFCURVE",
"401 427 CURVE",
"365 363 LINE",
"411 404 OFFCURVE",
"468 457 OFFCURVE",
"468 494 CURVE SMOOTH",
"468 539 OFFCURVE",
"402 684 OFFCURVE",
"382 699 CURVE SMOOTH",
"362 714 OFFCURVE",
"340 727 OFFCURVE",
"262 727 CURVE SMOOTH",
"181 727 OFFCURVE",
"83 689 OFFCURVE",
"64 675 CURVE SMOOTH",
"45 661 OFFCURVE",
"66 544 OFFCURVE",
"128 534 CURVE",
"177 573 OFFCURVE",
"263 593 OFFCURVE",
"343 582 CURVE",
"247 623 LINE",
"291 566 OFFCURVE",
"320 481 OFFCURVE",
"320 411 CURVE",
"366 535 LINE",
"321 503 OFFCURVE",
"288 429 OFFCURVE",
"273 368 CURVE",
"315 315 OFFCURVE",
"394 262 OFFCURVE",
"471 234 CURVE",
"374 344 LINE",
"390 314 OFFCURVE",
"400 253 OFFCURVE",
"400 195 CURVE SMOOTH",
"400 142 OFFCURVE",
"392 91 OFFCURVE",
"374 64 CURVE",
"443 118 LINE",
"407 128 OFFCURVE",
"357 137 OFFCURVE",
"309 137 CURVE SMOOTH",
"294 137 OFFCURVE",
"281 136 OFFCURVE",
"273 134 CURVE SMOOTH",
"253 129 OFFCURVE",
"239 76 OFFCURVE",
"239 38 CURVE SMOOTH",
"239 0 OFFCURVE",
"277 -26 OFFCURVE",
"363 -26 CURVE SMOOTH"
);
},
{
closed = 1;
nodes = (
"139 -11 OFFCURVE",
"194 0 OFFCURVE",
"202 32 CURVE SMOOTH",
"209 60 OFFCURVE",
"214 275 OFFCURVE",
"214 454 CURVE SMOOTH",
"214 506 OFFCURVE",
"211 674 OFFCURVE",
"205 680 CURVE SMOOTH",
"193 692 OFFCURVE",
"164 696 OFFCURVE",
"132 696 CURVE SMOOTH",
"109 696 OFFCURVE",
"83 689 OFFCURVE",
"64 675 CURVE SMOOTH",
"45 661 OFFCURVE",
"35 317 OFFCURVE",
"35 196 CURVE SMOOTH",
"35 121 OFFCURVE",
"36 52 OFFCURVE",
"43 22 CURVE SMOOTH",
"48 0 OFFCURVE",
"76 -11 OFFCURVE",
"107 -11 CURVE SMOOTH"
);
}
);
width = 595;
},
{
associatedMasterId = "6C5F8957-356A-4AA4-B78F-9BBB75A580E3";
backgroundImage = {
crop = "{{0, 0}, {115.92, 139.2}}";
imagePath = "../../Desktop/PERSONAL TYPEFACES/MANOSQUE/letterscans-new/eszett-cap.jpg";
locked = "1";
transform = "{5.99597, 0, 0, 5.99597, 0, -51}";
};
layerId = "3C972573-0BD1-44DC-8F89-D08AEE0EAB17";
name = "Nov 30 19, 15:42";
paths = (
{
closed = 1;
nodes = (
"60 121 OFFCURVE",
"61 52 OFFCURVE",
"68 22 CURVE SMOOTH",
"73 0 OFFCURVE",
"111 -11 OFFCURVE",
"142 -11 CURVE SMOOTH",
"174 -11 OFFCURVE",
"229 0 OFFCURVE",
"237 32 CURVE SMOOTH",
"244 60 OFFCURVE",
"249 295 OFFCURVE",
"249 474 CURVE SMOOTH",
"249 526 OFFCURVE",
"246 644 OFFCURVE",
"240 650 CURVE SMOOTH",
"228 662 OFFCURVE",
"199 666 OFFCURVE",
"167 666 CURVE SMOOTH",
"144 666 OFFCURVE",
"108 659 OFFCURVE",
"89 645 CURVE SMOOTH",
"70 631 OFFCURVE",
"60 317 OFFCURVE",
"60 196 CURVE SMOOTH"
);
},
{
closed = 1;
nodes = (
"546 565 OFFCURVE",
"476 675 OFFCURVE",
"449 693 CURVE SMOOTH",
"422 711 OFFCURVE",
"387 724 OFFCURVE",
"272 724 CURVE SMOOTH",
"157 724 OFFCURVE",
"89 662 OFFCURVE",
"89 618 CURVE SMOOTH",
"89 574 OFFCURVE",
"187 557 OFFCURVE",
"227 557 CURVE SMOOTH",
"267 557 OFFCURVE",
"290 552 OFFCURVE",
"341 552 CURVE SMOOTH",
"433 552 LINE",
"321 604 LINE",
"332.999 565.004 OFFCURVE",
"357 522 OFFCURVE",
"357 487 CURVE",
"305 401 LINE",
"382 326 OFFCURVE",
"488 226 OFFCURVE",
"498 212 CURVE",
"460 288 OFFCURVE",
"460 308 OFFCURVE",
"460 288 CURVE",
"465 187 OFFCURVE",
"470 147 OFFCURVE",
"469 116 CURVE",
"505 164 LINE",
"437 154 OFFCURVE",
"361 157 OFFCURVE",
"329 166 CURVE SMOOTH",
"305 173 OFFCURVE",
"254 52 OFFCURVE",
"287 31 CURVE SMOOTH",
"331 0 OFFCURVE",
"377 -14 OFFCURVE",
"455 -14 CURVE SMOOTH",
"533 -14 OFFCURVE",
"588 24 OFFCURVE",
"614 63 CURVE SMOOTH",
"640 102 OFFCURVE",
"648 134 OFFCURVE",
"648 184 CURVE SMOOTH",
"648 234 OFFCURVE",
"649 284 OFFCURVE",
"629 317 CURVE SMOOTH",
"609 350 OFFCURVE",
"538 421 OFFCURVE",
"497 436 CURVE",
"491 379 LINE",
"509 420 OFFCURVE",
"546 443 OFFCURVE",
"546 501 CURVE"
);
}
);
width = 600;
},
{
associatedMasterId = "6C5F8957-356A-4AA4-B78F-9BBB75A580E3";
backgroundImage = {
crop = "{{0, 0}, {115.92, 139.2}}";
imagePath = "../../Desktop/PERSONAL TYPEFACES/MANOSQUE/letterscans-new/eszett-cap.jpg";
locked = "1";
transform = "{5.99597, 0, 0, 5.99597, -25, -51}";
};
layerId = "D74DAE83-6753-493C-A7EB-AB209BF9E2A2";
name = "Nov 30 19, 15:44";
paths = (
{
closed = 1;
nodes = (
"35 121 OFFCURVE",
"36 52 OFFCURVE",
"43 22 CURVE SMOOTH",
"48 0 OFFCURVE",
"86 -11 OFFCURVE",
"117 -11 CURVE SMOOTH",
"149 -11 OFFCURVE",
"204 0 OFFCURVE",
"212 32 CURVE SMOOTH",
"219 60 OFFCURVE",
"224 295 OFFCURVE",
"224 474 CURVE SMOOTH",
"224 526 OFFCURVE",
"221 644 OFFCURVE",
"215 650 CURVE SMOOTH",
"203 662 OFFCURVE",
"174 666 OFFCURVE",
"142 666 CURVE SMOOTH",
"118 666 OFFCURVE",
"69 690 OFFCURVE",
"59 665 CURVE SMOOTH",
"43 609 OFFCURVE",
"35 307 OFFCURVE",
"35 196 CURVE SMOOTH"
);
},
{
closed = 1;
nodes = (
"501 565 OFFCURVE",
"451 675 OFFCURVE",
"424 693 CURVE SMOOTH",
"397 711 OFFCURVE",
"362 724 OFFCURVE",
"247 724 CURVE SMOOTH",
"132 724 OFFCURVE",
"69 690 OFFCURVE",
"59 665 CURVE SMOOTH",
"43 625 OFFCURVE",
"162 557 OFFCURVE",
"202 557 CURVE SMOOTH",
"242 557 OFFCURVE",
"265 552 OFFCURVE",
"316 552 CURVE SMOOTH",
"408 552 LINE",
"296 604 LINE",
"308 565 OFFCURVE",
"332 522 OFFCURVE",
"332 487 CURVE",
"280 401 LINE",
"347 346 OFFCURVE",
"405 284 OFFCURVE",
"453 212 CURVE",
"415 288 OFFCURVE",
"415 308 OFFCURVE",
"415 288 CURVE",
"430 221 OFFCURVE",
"431 168 OFFCURVE",
"424 116 CURVE",
"460 164 LINE",
"392 154 OFFCURVE",
"336 157 OFFCURVE",
"304 166 CURVE SMOOTH",
"280 173 OFFCURVE",
"229 52 OFFCURVE",
"262 31 CURVE SMOOTH",
"306 0 OFFCURVE",
"352 -14 OFFCURVE",
"430 -14 CURVE SMOOTH",
"498 -14 OFFCURVE",
"533 24 OFFCURVE",
"559 63 CURVE SMOOTH",
"585 102 OFFCURVE",
"593 134 OFFCURVE",
"593 184 CURVE SMOOTH",
"593 234 OFFCURVE",
"594 284 OFFCURVE",
"574 317 CURVE SMOOTH",
"554 350 OFFCURVE",
"493 421 OFFCURVE",
"452 436 CURVE",
"446 379 LINE",
"464 420 OFFCURVE",
"501 443 OFFCURVE",
"501 501 CURVE"
);
}
);
width = 628;
},
{
associatedMasterId = "6C5F8957-356A-4AA4-B78F-9BBB75A580E3";
backgroundImage = {
crop = "{{0, 0}, {115.92, 139.2}}";
imagePath = "../../Desktop/PERSONAL TYPEFACES/MANOSQUE/letterscans-new/eszett-cap.jpg";
locked = "1";
transform = "{5.99597, 0, 0, 5.99597, -25, -51}";
};
layerId = "FC905EF5-6B24-4019-8989-ADE4A7E36407";
name = "Dec 18 19, 15:05";
paths = (
{
closed = 1;
nodes = (
"35 121 OFFCURVE",
"36 52 OFFCURVE",
"43 22 CURVE SMOOTH",
"48 0 OFFCURVE",
"86 -11 OFFCURVE",
"117 -11 CURVE SMOOTH",
"149 -11 OFFCURVE",
"204 0 OFFCURVE",
"212 32 CURVE SMOOTH",
"219 60 OFFCURVE",
"224 295 OFFCURVE",
"224 474 CURVE SMOOTH",
"224 526 OFFCURVE",
"221 644 OFFCURVE",
"215 650 CURVE SMOOTH",
"203 662 OFFCURVE",
"174 666 OFFCURVE",
"142 666 CURVE SMOOTH",
"118 666 OFFCURVE",
"69 690 OFFCURVE",
"59 665 CURVE SMOOTH",
"43 609 OFFCURVE",
"35 307 OFFCURVE",
"35 196 CURVE SMOOTH"
);
},
{
closed = 1;
nodes = (
"501 565 OFFCURVE",
"451 675 OFFCURVE",
"424 693 CURVE SMOOTH",
"397 711 OFFCURVE",
"362 724 OFFCURVE",
"247 724 CURVE SMOOTH",
"132 724 OFFCURVE",
"69 690 OFFCURVE",
"59 665 CURVE SMOOTH",
"43 625 OFFCURVE",
"162 557 OFFCURVE",
"202 557 CURVE SMOOTH",
"242 557 OFFCURVE",
"265 552 OFFCURVE",
"316 552 CURVE SMOOTH",
"408 552 LINE",
"296 604 LINE",
"311 555 OFFCURVE",
"344 501 OFFCURVE",
"327 463 CURVE",
"346 510 LINE",
"332 487 OFFCURVE",
"312 454 OFFCURVE",
"293 430 CURVE SMOOTH",
"280 413 OFFCURVE",
"289 392 OFFCURVE",
"309 373 CURVE SMOOTH",
"366 317 OFFCURVE",
"419 278 OFFCURVE",
"463 212 CURVE",
"425 288 OFFCURVE",
"425 308 OFFCURVE",
"425 288 CURVE",
"440 221 OFFCURVE",
"431 168 OFFCURVE",
"425 116 CURVE",
"510 144 LINE",
"442 134 OFFCURVE",
"362 138 OFFCURVE",
"304 166 CURVE SMOOTH",
"282 176 OFFCURVE",
"229 52 OFFCURVE",
"262 31 CURVE SMOOTH",
"306 0 OFFCURVE",
"352 -14 OFFCURVE",
"430 -14 CURVE SMOOTH",
"498 -14 OFFCURVE",
"533 24 OFFCURVE",
"559 63 CURVE SMOOTH",
"585 102 OFFCURVE",
"593 134 OFFCURVE",
"593 184 CURVE SMOOTH",
"593 234 OFFCURVE",
"594 284 OFFCURVE",
"574 317 CURVE SMOOTH",
"554 350 OFFCURVE",
"493 421 OFFCURVE",
"452 436 CURVE",
"446 379 LINE",
"464 420 OFFCURVE",
"501 443 OFFCURVE",
"501 501 CURVE"
);
}
);
width = 628;
},
{
annotations = (
{
position = "{571.984, 483.977}";
text = "trop gras";
type = Text;
},
{
angle = 32.00938;
position = "{533, 427}";
type = Arrow;
}
);
associatedMasterId = "6C5F8957-356A-4AA4-B78F-9BBB75A580E3";
layerId = "EF302B30-AF45-467E-9FBC-98DD7BE3798D";
name = "Jul 21 20, 13:09";
paths = (
{
closed = 1;
nodes = (
"471 -26 OFFCURVE",
"543 16 OFFCURVE",
"566 57 CURVE SMOOTH",
"578 78 OFFCURVE",
"585 133 OFFCURVE",
"585 188 CURVE SMOOTH",
"585 240 OFFCURVE",
"578 292 OFFCURVE",
"570 314 CURVE SMOOTH",
"553 359 OFFCURVE",
"434 422 OFFCURVE",
"411 427 CURVE",
"411 363 LINE",
"457 404 OFFCURVE",
"484 457 OFFCURVE",
"484 494 CURVE SMOOTH",
"484 539 OFFCURVE",
"418 684 OFFCURVE",
"398 699 CURVE SMOOTH",
"378 714 OFFCURVE",
"340 727 OFFCURVE",
"262 727 CURVE SMOOTH",
"181 727 OFFCURVE",
"83 689 OFFCURVE",
"64 675 CURVE SMOOTH",
"45 661 OFFCURVE",
"114 594 OFFCURVE",
"176 584 CURVE",
"188 581 OFFCURVE",
"203 580 OFFCURVE",
"220 580 CURVE SMOOTH",
"257 580 OFFCURVE",
"301 586 OFFCURVE",
"343 597 CURVE",
"257 623 LINE",
"301 566 OFFCURVE",
"330 481 OFFCURVE",
"330 411 CURVE",
"366 525 LINE",
"355 512 OFFCURVE",
"303 433 OFFCURVE",
"283 353 CURVE",
"322 294 OFFCURVE",
"403 250 OFFCURVE",
"461 209 CURVE",
"428 274 LINE",
"416 227 OFFCURVE",
"416 113 OFFCURVE",
"435 79 CURVE",
"463 138 LINE",
"416 146 OFFCURVE",
"318 163 OFFCURVE",
"283 154 CURVE SMOOTH",
"259 148 OFFCURVE",
"228 50 OFFCURVE",
"243 15 CURVE SMOOTH",
"249 1 OFFCURVE",
"285 -26 OFFCURVE",
"383 -26 CURVE SMOOTH"
);
},
{
closed = 1;
nodes = (
"139 -11 OFFCURVE",
"194 0 OFFCURVE",
"202 32 CURVE SMOOTH",
"209 60 OFFCURVE",
"214 275 OFFCURVE",
"214 454 CURVE SMOOTH",
"214 506 OFFCURVE",
"211 674 OFFCURVE",
"205 680 CURVE SMOOTH",
"193 692 OFFCURVE",
"164 696 OFFCURVE",
"132 696 CURVE SMOOTH",
"109 696 OFFCURVE",
"83 689 OFFCURVE",
"64 675 CURVE SMOOTH",
"45 661 OFFCURVE",
"35 317 OFFCURVE",
"35 196 CURVE SMOOTH",
"35 121 OFFCURVE",
"36 52 OFFCURVE",
"43 22 CURVE SMOOTH",
"48 0 OFFCURVE",
"76 -11 OFFCURVE",
"107 -11 CURVE SMOOTH"
);
}
);
width = 628;
}
);
leftKerningGroup = H;
unicode = 1E9E;
},
{
glyphname = T;
lastChange = "2020-07-21 09:21:18 +0000";
layers = (
{
anchors = (
{
name = bottom;
position = "{201, 0}";
},
{
name = center;
position = "{201, 280}";
},
{
name = top;
position = "{201, 700}";
}
);
layerId = "6C5F8957-356A-4AA4-B78F-9BBB75A580E3";
paths = (
{
closed = 1;
nodes = (
"224 -11 OFFCURVE",
"279 0 OFFCURVE",
"287 32 CURVE SMOOTH",
"291 47 OFFCURVE",
"294 137 OFFCURVE",
"294 240 CURVE SMOOTH",
"294 315 OFFCURVE",
"291 398 OFFCURVE",
"287 461 CURVE SMOOTH",
"285 490 OFFCURVE",
"271 552 OFFCURVE",
"260 572 CURVE",
"147 572 LINE",
"126 527 OFFCURVE",
"116 367 OFFCURVE",
"116 228 CURVE SMOOTH",
"116 139 OFFCURVE",
"120 58 OFFCURVE",
"128 22 CURVE SMOOTH",
"133 0 OFFCURVE",
"161 -11 OFFCURVE",
"192 -11 CURVE SMOOTH"
);
},
{
closed = 1;
nodes = (
"259 549 OFFCURVE",
"338 554 OFFCURVE",
"367 562 CURVE SMOOTH",
"386 567 OFFCURVE",
"405 630 OFFCURVE",
"405 650 CURVE",
"405 662 OFFCURVE",
"397 682 OFFCURVE",
"386 700 CURVE SMOOTH",
"375 717 OFFCURVE",
"367 721 OFFCURVE",
"333 721 CURVE SMOOTH",
"259 721 OFFCURVE",
"48 710 OFFCURVE",
"26 689 CURVE SMOOTH",
"14 679 OFFCURVE",
"10 621 OFFCURVE",
"10 595 CURVE SMOOTH",
"10 583 OFFCURVE",
"19 570 OFFCURVE",
"32 564 CURVE SMOOTH",
"56 552 OFFCURVE",
"127 549 OFFCURVE",
"201 549 CURVE SMOOTH"
);
}
);
width = 415;
},
{
anchors = (
{
name = bottom;
position = "{208, 0}";
},
{
name = center;
position = "{205, 300}";
},
{
name = top;
position = "{215, 700}";
}
);
associatedMasterId = "6C5F8957-356A-4AA4-B78F-9BBB75A580E3";
layerId = "71C46B81-61EE-44EF-B6CE-42B60CB4F7D8";
name = "Mar 31 20, 10:02";
paths = (
{
closed = 1;
nodes = (
"227 -11 OFFCURVE",
"268 0 OFFCURVE",
"275 32 CURVE SMOOTH",
"280 54 OFFCURVE",
"287 322 OFFCURVE",
"291 471 CURVE SMOOTH",
"292 513 OFFCURVE",
"275 545 OFFCURVE",
"265 570 CURVE",
"162 570 LINE",
"149 544 OFFCURVE",
"134 443 OFFCURVE",
"131 408 CURVE SMOOTH",
"124 327 OFFCURVE",
"123 245 OFFCURVE",
"123 196 CURVE SMOOTH",
"123 121 OFFCURVE",
"124 52 OFFCURVE",
"131 22 CURVE SMOOTH",
"136 0 OFFCURVE",
"169 -11 OFFCURVE",
"200 -11 CURVE SMOOTH"
);
},
{
closed = 1;
nodes = (
"289 549 OFFCURVE",
"328 554 OFFCURVE",
"368 558 CURVE SMOOTH",
"389 560 OFFCURVE",
"445 634 OFFCURVE",
"445 650 CURVE",
"445 666 OFFCURVE",
"437 683 OFFCURVE",
"426 700 CURVE SMOOTH",
"415 717 OFFCURVE",
"408 721 OFFCURVE",
"358 721 CURVE SMOOTH",
"204 721 OFFCURVE",
"58 710 OFFCURVE",
"36 689 CURVE SMOOTH",
"23 677 OFFCURVE",
"10 607 OFFCURVE",
"10 586 CURVE SMOOTH",
"10 578 OFFCURVE",
"17 569 OFFCURVE",
"27 564 CURVE SMOOTH",
"51 552 OFFCURVE",
"122 549 OFFCURVE",
"216 549 CURVE SMOOTH"
);
}
);
width = 455;
}
);
leftKerningGroup = T;
rightKerningGroup = T;
unicode = 0054;
},
{
glyphname = U;
lastChange = "2020-07-21 09:24:30 +0000";
layers = (
{
anchors = (
{
name = bottom;
position = "{233, -21}";
},
{
name = ogonek;
position = "{327, 10}";
},
{
name = top;
position = "{233, 716}";
},
{
name = topright;
position = "{437, 700}";
}
);
guideLines = (
{
position = "{59, 37}";
}
);
layerId = "6C5F8957-356A-4AA4-B78F-9BBB75A580E3";
paths = (
{
closed = 1;
nodes = (
"415 64 OFFCURVE",
"440 204 OFFCURVE",
"440 364 CURVE SMOOTH",
"440 485 OFFCURVE",
"427 681 OFFCURVE",
"408 695 CURVE SMOOTH",
"389 709 OFFCURVE",
"353 716 OFFCURVE",
"330 716 CURVE SMOOTH",
"290 716 OFFCURVE",
"279 700 OFFCURVE",
"277 638 CURVE SMOOTH",
"275 569 OFFCURVE",
"275 458 OFFCURVE",
"275 384 CURVE SMOOTH",
"275 335 OFFCURVE",
"271 195 OFFCURVE",
"264 72 CURVE SMOOTH",
"260 -5 OFFCURVE",
"375 12 OFFCURVE",
"396 39 CURVE SMOOTH"
);
},
{
closed = 1;
nodes = (
"288 -21 OFFCURVE",
"375 12 OFFCURVE",
"396 39 CURVE SMOOTH",
"415 64 OFFCURVE",
"381 138 OFFCURVE",
"379 152 CURVE",
"329 137 OFFCURVE",
"271 127 OFFCURVE",
"233 127 CURVE SMOOTH",
"188 127 OFFCURVE",
"140 138 OFFCURVE",
"113 154 CURVE",
"59 32 LINE",
"84 9 OFFCURVE",
"171 -21 OFFCURVE",
"233 -21 CURVE SMOOTH"
);
},
{
closed = 1;
nodes = (
"84 9 OFFCURVE",
"200 -5 OFFCURVE",
"196 72 CURVE SMOOTH",
"193 128 OFFCURVE",
"190 254 OFFCURVE",
"190 384 CURVE SMOOTH",
"190 456 OFFCURVE",
"190 564 OFFCURVE",
"188 633 CURVE SMOOTH",
"187 699 OFFCURVE",
"177 716 OFFCURVE",
"136 716 CURVE SMOOTH",
"113 716 OFFCURVE",
"77 709 OFFCURVE",
"58 695 CURVE SMOOTH",
"39 681 OFFCURVE",
"25 485 OFFCURVE",
"25 364 CURVE SMOOTH",
"25 204 OFFCURVE",
"34 55 OFFCURVE",
"59 32 CURVE SMOOTH"
);
}
);
width = 465;
},
{
associatedMasterId = "6C5F8957-356A-4AA4-B78F-9BBB75A580E3";
backgroundImage = {
crop = "{{0, 0}, {98.88, 129.12}}";
imagePath = "../../Desktop/PERSONAL TYPEFACES/MANOSQUE/letterscans/UCAP.jpg";
locked = "1";
transform = "{6.12652, 0, 0, 6.12652, 10, -50}";
};
layerId = "8F1D613C-9D00-42D0-B057-03D6D4D87712";
name = "Jul 27 19, 17:56";
paths = (
{
closed = 1;
nodes = (
"352 -16 OFFCURVE",
"438 17 OFFCURVE",
"471 47 CURVE SMOOTH",
"496 69 OFFCURVE",
"375 148 OFFCURVE",
"353 168 CURVE",
"333 153 OFFCURVE",
"311 142 OFFCURVE",
"274 142 CURVE SMOOTH",
"239 142 OFFCURVE",
"209 153 OFFCURVE",
"194 168 CURVE",
"131 143 OFFCURVE",
"49 70 OFFCURVE",
"74 47 CURVE SMOOTH",
"99 24 OFFCURVE",
"182 -16 OFFCURVE",
"274 -16 CURVE SMOOTH"
);
},
{
closed = 1;
nodes = (
"45 291 OFFCURVE",
"49 70 OFFCURVE",
"74 47 CURVE SMOOTH",
"107 17 OFFCURVE",
"198 49 OFFCURVE",
"207 102 CURVE SMOOTH",
"216 157 OFFCURVE",
"224 295 OFFCURVE",
"224 474 CURVE SMOOTH",
"224 586 OFFCURVE",
"216 694 OFFCURVE",
"210 700 CURVE SMOOTH",
"198 712 OFFCURVE",
"179 716 OFFCURVE",
"162 716 CURVE SMOOTH",
"139 716 OFFCURVE",
"103 709 OFFCURVE",
"84 695 CURVE SMOOTH",
"65 681 OFFCURVE",
"45 487 OFFCURVE",
"45 366 CURVE SMOOTH"
);
},
{
closed = 1;
nodes = (
"500 487 OFFCURVE",
"480 681 OFFCURVE",
"461 695 CURVE SMOOTH",
"442 709 OFFCURVE",
"406 716 OFFCURVE",
"383 716 CURVE SMOOTH",
"366 716 OFFCURVE",
"347 712 OFFCURVE",
"335 700 CURVE SMOOTH",
"329 694 OFFCURVE",
"321 586 OFFCURVE",
"321 474 CURVE SMOOTH",
"321 295 OFFCURVE",
"329 157 OFFCURVE",
"338 102 CURVE SMOOTH",
"347 49 OFFCURVE",
"438 17 OFFCURVE",
"471 47 CURVE SMOOTH",
"496 70 OFFCURVE",
"500 291 OFFCURVE",
"500 366 CURVE SMOOTH"
);
}
);
width = 545;
},
{
associatedMasterId = "6C5F8957-356A-4AA4-B78F-9BBB75A580E3";
backgroundImage = {
crop = "{{0, 0}, {98.88, 129.12}}";
imagePath = "../../Desktop/PERSONAL TYPEFACES/MANOSQUE/letterscans/UCAP.jpg";
locked = "1";
transform = "{6.12652, 0, 0, 6.12652, 10, -50}";
};
layerId = "27A2FC6E-B6C0-46CB-82B1-B100CDA33DB4";
name = "Aug 3 19, 15:23";
paths = (
{
closed = 1;
nodes = (
"352 -16 OFFCURVE",
"423 17 OFFCURVE",
"456 47 CURVE SMOOTH",
"481 69 OFFCURVE",
"375 148 OFFCURVE",
"353 168 CURVE",
"333 153 OFFCURVE",
"311 142 OFFCURVE",
"274 142 CURVE SMOOTH",
"239 142 OFFCURVE",
"209 153 OFFCURVE",
"194 168 CURVE",
"131 143 OFFCURVE",
"49 70 OFFCURVE",
"74 47 CURVE SMOOTH",
"99 24 OFFCURVE",
"182 -16 OFFCURVE",
"274 -16 CURVE SMOOTH"
);
},
{
closed = 1;
nodes = (
"45 291 OFFCURVE",
"49 70 OFFCURVE",
"74 47 CURVE SMOOTH",
"107 17 OFFCURVE",
"204 49 OFFCURVE",
"213 102 CURVE SMOOTH",
"222 157 OFFCURVE",
"224 295 OFFCURVE",
"224 474 CURVE SMOOTH",
"224 586 OFFCURVE",
"216 694 OFFCURVE",
"210 700 CURVE SMOOTH",
"198 712 OFFCURVE",
"179 716 OFFCURVE",
"162 716 CURVE SMOOTH",
"139 716 OFFCURVE",
"103 709 OFFCURVE",
"84 695 CURVE SMOOTH",
"65 681 OFFCURVE",
"45 487 OFFCURVE",
"45 366 CURVE SMOOTH"
);
},
{
closed = 1;
nodes = (
"332 291 OFFCURVE",
"330 125 OFFCURVE",
"345 102 CURVE SMOOTH",
"361 77 OFFCURVE",
"423 17 OFFCURVE",
"456 47 CURVE SMOOTH",
"481 69 OFFCURVE",
"491 84 OFFCURVE",
"494 102 CURVE SMOOTH",
"503 157 OFFCURVE",
"511 295 OFFCURVE",
"511 474 CURVE SMOOTH",
"511 586 OFFCURVE",
"503 694 OFFCURVE",
"497 700 CURVE SMOOTH",
"485 712 OFFCURVE",
"466 716 OFFCURVE",
"449 716 CURVE SMOOTH",
"426 716 OFFCURVE",
"390 709 OFFCURVE",
"371 695 CURVE SMOOTH",
"352 681 OFFCURVE",
"332 487 OFFCURVE",
"332 366 CURVE SMOOTH"
);
},
{
closed = 1;
nodes = (
"1097 235 LINE",
"1097 169 LINE SMOOTH",
"1097 48 OFFCURVE",
"1005 -20 OFFCURVE",
"866 -20 CURVE SMOOTH",
"693 -20 OFFCURVE",
"637 78 OFFCURVE",
"637 167 CURVE SMOOTH",
"637 182 OFFCURVE",
"637 206 OFFCURVE",
"638 235 CURVE",
"809 235 LINE",
"809 175 LINE SMOOTH",
"809 154 OFFCURVE",
"830 133 OFFCURVE",
"876 133 CURVE SMOOTH",
"906 133 OFFCURVE",
"937 156 OFFCURVE",
"937 185 CURVE SMOOTH",
"937 235 LINE"
);
}
);
width = 545;
},
{
associatedMasterId = "6C5F8957-356A-4AA4-B78F-9BBB75A580E3";
backgroundImage = {
crop = "{{0, 0}, {98.88, 129.12}}";
imagePath = "../../Desktop/PERSONAL TYPEFACES/MANOSQUE/letterscans/UCAP.jpg";
locked = "1";
transform = "{6.12652, 0, 0, 6.12652, 10, -50}";
};
layerId = "F9057238-257E-457B-BBC1-B89DA0EE8C55";
name = "Aug 3 19, 15:26";
paths = (
{
closed = 1;
nodes = (
"-248 -16 OFFCURVE",
"-177 18 OFFCURVE",
"-144 47 CURVE SMOOTH",
"-119 69 OFFCURVE",
"-225 148 OFFCURVE",
"-247 168 CURVE",
"-267 153 OFFCURVE",
"-289 142 OFFCURVE",
"-326 142 CURVE SMOOTH",
"-361 142 OFFCURVE",
"-391 153 OFFCURVE",
"-406 168 CURVE",
"-469 143 OFFCURVE",
"-551 70 OFFCURVE",
"-526 47 CURVE SMOOTH",
"-501 24 OFFCURVE",
"-418 -16 OFFCURVE",
"-326 -16 CURVE SMOOTH"
);
},
{
closed = 1;
nodes = (
"45 291 OFFCURVE",
"46 182 OFFCURVE",
"47 167 CURVE SMOOTH",
"51 123 OFFCURVE",
"204 49 OFFCURVE",
"213 102 CURVE SMOOTH",
"222 157 OFFCURVE",
"224 295 OFFCURVE",
"224 474 CURVE SMOOTH",
"224 586 OFFCURVE",
"216 694 OFFCURVE",
"210 700 CURVE SMOOTH",
"198 712 OFFCURVE",
"179 716 OFFCURVE",
"162 716 CURVE SMOOTH",
"139 716 OFFCURVE",
"103 709 OFFCURVE",
"84 695 CURVE SMOOTH",
"65 681 OFFCURVE",
"45 487 OFFCURVE",
"45 366 CURVE SMOOTH"
);
},
{
closed = 1;
nodes = (
"332 291 OFFCURVE",
"330 125 OFFCURVE",
"345 102 CURVE SMOOTH",
"361 77 OFFCURVE",
"393 38 OFFCURVE",
"426 68 CURVE SMOOTH",
"451 90 OFFCURVE",
"494 137 OFFCURVE",
"497 169 CURVE SMOOTH",
"502 224 OFFCURVE",
"506 295 OFFCURVE",
"506 474 CURVE SMOOTH",
"506 586 OFFCURVE",
"493 694 OFFCURVE",
"487 700 CURVE SMOOTH",
"475 712 OFFCURVE",
"456 716 OFFCURVE",
"439 716 CURVE SMOOTH",
"416 716 OFFCURVE",
"390 709 OFFCURVE",
"371 695 CURVE SMOOTH",
"352 681 OFFCURVE",
"332 487 OFFCURVE",
"332 366 CURVE SMOOTH"
);
},
{
closed = 1;
nodes = (
"337 185 LINE SMOOTH",
"337 156 OFFCURVE",
"306 133 OFFCURVE",
"276 133 CURVE SMOOTH",
"240 133 OFFCURVE",
"219 154 OFFCURVE",
"219 175 CURVE SMOOTH",
"219 235 LINE",
"48 235 LINE",
"47 206 OFFCURVE",
"46 182 OFFCURVE",
"47 167 CURVE SMOOTH",
"51 78 OFFCURVE",
"103 -20 OFFCURVE",
"266 -20 CURVE SMOOTH",
"405 -20 OFFCURVE",
"486 51 OFFCURVE",
"497 169 CURVE SMOOTH",
"502 224 OFFCURVE",
"470 252 OFFCURVE",
"456 294 CURVE",
"337 235 LINE"
);
}
);
width = 545;
},
{
anchors = (
{
name = bottom;
position = "{248, 0}";
},
{
name = ogonek;
position = "{318, 10}";
},
{
name = top;
position = "{255, 700}";
},
{
name = topright;
position = "{447, 700}";
}
);
associatedMasterId = "6C5F8957-356A-4AA4-B78F-9BBB75A580E3";
layerId = "72E0E5CF-15C6-47A4-8072-CC200C6EF8EC";
name = "Apr 6 20, 14:38";
paths = (
{
closed = 1;
nodes = (
"106 11 OFFCURVE",
"191 31 OFFCURVE",
"197 72 CURVE SMOOTH",
"203 114 OFFCURVE",
"200 295 OFFCURVE",
"200 454 CURVE SMOOTH",
"200 566 OFFCURVE",
"200 694 OFFCURVE",
"194 700 CURVE SMOOTH",
"182 712 OFFCURVE",
"163 716 OFFCURVE",
"146 716 CURVE SMOOTH",
"123 716 OFFCURVE",
"87 709 OFFCURVE",
"68 695 CURVE SMOOTH",
"49 681 OFFCURVE",
"30 487 OFFCURVE",
"30 366 CURVE SMOOTH",
"30 242 OFFCURVE",
"42 66 OFFCURVE",
"56 54 CURVE SMOOTH"
);
},
{
closed = 1;
nodes = (
"335 -21 OFFCURVE",
"392 19 OFFCURVE",
"430 74 CURVE",
"324 161 LINE",
"299 153 OFFCURVE",
"262 150 OFFCURVE",
"248 150 CURVE SMOOTH",
"222 150 OFFCURVE",
"184 155 OFFCURVE",
"170 161 CURVE SMOOTH",
"91 195 OFFCURVE",
"42 66 OFFCURVE",
"56 54 CURVE SMOOTH",
"106 11 OFFCURVE",
"159 -21 OFFCURVE",
"248 -21 CURVE SMOOTH"
);
},
{
closed = 1;
nodes = (
"440 89 OFFCURVE",
"456 242 OFFCURVE",
"456 366 CURVE SMOOTH",
"456 487 OFFCURVE",
"437 681 OFFCURVE",
"418 695 CURVE SMOOTH",
"399 709 OFFCURVE",
"363 716 OFFCURVE",
"340 716 CURVE SMOOTH",
"323 716 OFFCURVE",
"304 712 OFFCURVE",
"292 700 CURVE SMOOTH",
"286 694 OFFCURVE",
"286 566 OFFCURVE",
"286 454 CURVE SMOOTH",
"286 295 OFFCURVE",
"283 114 OFFCURVE",
"289 72 CURVE SMOOTH",
"295 31 OFFCURVE",
"392 19 OFFCURVE",
"430 74 CURVE SMOOTH"
);
}
);
width = 486;
},
{
anchors = (
{
name = bottom;
position = "{248, 0}";
},
{
name = ogonek;
position = "{318, 10}";
},
{
name = top;
position = "{255, 700}";
},
{
name = topright;
position = "{447, 700}";
}
);
associatedMasterId = "6C5F8957-356A-4AA4-B78F-9BBB75A580E3";
layerId = "A289936C-4414-4900-8B22-2D0C8A90F75F";
name = "Apr 6 20, 14:40";
paths = (
{
closed = 1;
nodes = (
"106 11 OFFCURVE",
"191 31 OFFCURVE",
"197 72 CURVE SMOOTH",
"203 114 OFFCURVE",
"200 295 OFFCURVE",
"200 454 CURVE SMOOTH",
"200 566 OFFCURVE",
"200 694 OFFCURVE",
"194 700 CURVE SMOOTH",
"182 712 OFFCURVE",
"163 716 OFFCURVE",
"146 716 CURVE SMOOTH",
"123 716 OFFCURVE",
"87 709 OFFCURVE",
"68 695 CURVE SMOOTH",
"49 681 OFFCURVE",
"30 487 OFFCURVE",
"30 366 CURVE SMOOTH",
"30 242 OFFCURVE",
"42 66 OFFCURVE",
"56 54 CURVE SMOOTH"
);
},
{
closed = 1;
nodes = (
"335 -8 OFFCURVE",
"392 19 OFFCURVE",
"430 74 CURVE",
"324 160 LINE",
"300 151 OFFCURVE",
"262 148 OFFCURVE",
"248 148 CURVE SMOOTH",
"222 148 OFFCURVE",
"184 153 OFFCURVE",
"170 159 CURVE SMOOTH",
"91 193 OFFCURVE",
"42 66 OFFCURVE",
"56 54 CURVE SMOOTH",
"106 11 OFFCURVE",
"159 -8 OFFCURVE",
"248 -8 CURVE SMOOTH"
);
},
{
closed = 1;
nodes = (
"440 89 OFFCURVE",
"456 242 OFFCURVE",
"456 366 CURVE SMOOTH",
"456 487 OFFCURVE",
"437 681 OFFCURVE",
"418 695 CURVE SMOOTH",
"399 709 OFFCURVE",
"363 716 OFFCURVE",
"340 716 CURVE SMOOTH",
"323 716 OFFCURVE",
"304 712 OFFCURVE",
"292 700 CURVE SMOOTH",
"286 694 OFFCURVE",
"286 566 OFFCURVE",
"286 454 CURVE SMOOTH",
"286 295 OFFCURVE",
"283 114 OFFCURVE",
"289 72 CURVE SMOOTH",
"295 31 OFFCURVE",
"392 19 OFFCURVE",
"430 74 CURVE SMOOTH"
);
}
);
width = 486;
}
);
leftKerningGroup = O;
leftMetricsKey = O;
rightKerningGroup = O;
rightMetricsKey = O;
unicode = 0055;
},
